<svg width="15" height="15" viewBox="0 0 15 15" fill="none" xmlns="http://www.w3.org/2000/svg">
<path d="M1.64824 0.835752C1.42354 0.611054 1.05924 0.611055 0.834539 0.835752C0.609841 1.06045 0.609841 1.42476 0.834539 1.64945L6.93725 7.75217L0.834918 13.8545C0.610221 14.0792 0.610221 14.4435 0.834918 14.6682C1.05962 14.8929 1.42392 14.8929 1.64862 14.6682L7.75096 8.56588L13.8538 14.6687C14.0785 14.8934 14.4428 14.8934 14.6675 14.6687C14.8922 14.444 14.8922 14.0797 14.6675 13.855L8.56466 7.75217L14.6679 1.64897C14.8926 1.42428 14.8926 1.05997 14.6679 0.835271C14.4432 0.610573 14.0789 0.610574 13.8542 0.835271L7.75096 6.93847L1.64824 0.835752Z" fill="black"/>
</svg>
