<svg width="18" height="12" viewBox="0 0 18 12" fill="none" xmlns="http://www.w3.org/2000/svg">
<path d="M16.1748 0.426078L15.7639 0L1.97224 11.5739L2.38313 12L16.1748 0.426078Z" fill="#7D7D7D"/>
<path d="M8.9732 1.71935C10.0867 1.71935 11.1528 1.93635 12.1366 2.27283L11.0186 3.21108C10.4358 2.84075 9.73158 2.62428 8.9732 2.62428C6.96411 2.62428 5.33542 4.14358 5.33542 6.01774C5.33542 6.59704 5.49102 7.14245 5.76538 7.61955L4.0898 9.02569C1.62803 7.75964 0 6.01774 0 6.01774C0 6.01774 4.01744 1.71935 8.9732 1.71935Z" fill="#7D7D7D"/>
<path d="M8.9732 4.43413C9.14855 4.43413 9.31769 4.45892 9.4768 4.50496L7.30758 6.32535C7.28658 6.22584 7.27557 6.12299 7.27557 6.01774C7.27557 5.14313 8.03564 4.43413 8.9732 4.43413Z" fill="#7D7D7D"/>
<path d="M5.92239 9.80051L7.01882 8.88038C7.58333 9.21645 8.25388 9.4112 8.9732 9.4112C10.9823 9.4112 12.611 7.8919 12.611 6.01774C12.611 5.47468 12.4742 4.9614 12.2311 4.50626L13.9541 3.06038C16.3612 4.32171 17.9464 6.01774 17.9464 6.01774C17.9464 6.01774 13.929 10.3161 8.9732 10.3161C7.90207 10.3161 6.87477 10.1153 5.92239 9.80051Z" fill="#7D7D7D"/>
<path d="M8.59096 7.56105L10.6585 5.82598C10.6667 5.88884 10.6708 5.95283 10.6708 6.01774C10.6708 6.89234 9.91079 7.60135 8.9732 7.60135C8.84177 7.60135 8.71381 7.58741 8.59096 7.56105Z" fill="#7D7D7D"/>
</svg>
