<svg width="18" height="13" viewBox="0 0 18 13" fill="none" xmlns="http://www.w3.org/2000/svg">
<path d="M9 8.13388C9.94038 8.13388 10.7027 7.37041 10.7027 6.42862C10.7027 5.48683 9.94038 4.72336 9 4.72336C8.05962 4.72336 7.2973 5.48683 7.2973 6.42862C7.2973 7.37041 8.05962 8.13388 9 8.13388Z" fill="#7D7D7D"/>
<path fill-rule="evenodd" clip-rule="evenodd" d="M18 6.42862C18 6.42862 13.9706 11.0572 9 11.0572C4.02944 11.0572 0 6.42862 0 6.42862C0 6.42862 4.02944 1.80005 9 1.80005C13.9706 1.80005 18 6.42862 18 6.42862ZM12.6486 6.42862C12.6486 8.44674 11.0151 10.0828 9 10.0828C6.98491 10.0828 5.35135 8.44674 5.35135 6.42862C5.35135 4.4105 6.98491 2.77448 9 2.77448C11.0151 2.77448 12.6486 4.4105 12.6486 6.42862Z" fill="#7D7D7D"/>
</svg>
