<svg width="16" height="16" viewBox="0 0 16 16" fill="none" xmlns="http://www.w3.org/2000/svg">
<path d="M5.88599 3.46524C6.56995 1.82175 6.91193 1 7.5 1C8.08807 1 8.43005 1.82175 9.11401 3.46524L9.14586 3.54177C9.53226 4.47027 9.72546 4.93451 10.1192 5.21669C10.513 5.49887 11.0299 5.54348 12.0636 5.63272L12.2505 5.64885C13.9424 5.7949 14.7884 5.86793 14.9694 6.38669C15.1504 6.90546 14.5222 7.45637 13.2657 8.5582L12.8463 8.92593C12.2103 9.48369 11.8923 9.76257 11.744 10.1281C11.7164 10.1963 11.6934 10.2661 11.6752 10.3372C11.5778 10.7183 11.6709 11.1228 11.8572 11.932L11.9151 12.1838C12.2574 13.6709 12.4286 14.4144 12.1298 14.7351C12.0181 14.855 11.873 14.9413 11.7117 14.9837C11.2803 15.0971 10.6677 14.616 9.44266 13.6538C8.63821 13.022 8.23599 12.7061 7.77419 12.635C7.59255 12.6071 7.40745 12.6071 7.22581 12.635C6.76401 12.7061 6.36179 13.022 5.55734 13.6538C4.33225 14.616 3.7197 15.0971 3.28825 14.9837C3.12703 14.9413 2.9819 14.855 2.87024 14.7351C2.57141 14.4144 2.74256 13.6709 3.08486 12.1838L3.14283 11.932C3.32909 11.1228 3.42222 10.7183 3.32479 10.3372C3.30661 10.2661 3.28362 10.1963 3.25597 10.1281C3.10775 9.76257 2.78972 9.48369 2.15367 8.92593L1.73432 8.5582C0.47785 7.45637 -0.150388 6.90546 0.0306247 6.38669C0.211637 5.86793 1.05759 5.7949 2.74948 5.64885L2.93637 5.63272C3.97014 5.54348 4.48703 5.49887 4.88079 5.21669C5.27454 4.93451 5.46774 4.47027 5.85414 3.54177L5.88599 3.46524Z" stroke="#7F203B"/>
</svg>
