<svg width="35" height="35" viewBox="0 0 35 35" fill="none" xmlns="http://www.w3.org/2000/svg">
<path fill-rule="evenodd" clip-rule="evenodd" d="M24.8587 7.17566H23.7545V14.0049L19.3364 17.6822L23.7545 21.3595V28.1888L24.8587 28.1888V29.2394H10.4998V28.1888L11.6046 28.1888V21.8848L16.0228 17.6822L11.6046 13.4796V7.17566H10.4998V6.125H24.8587V7.17566ZM22.65 8.22631H12.7092V13.0444L16.4803 16.6316H17.1272L16.0234 15.5284L14.9182 14.5303H20.4408L19.337 15.5809L18.2318 16.6316H18.9214L22.65 13.5282V8.22631ZM12.7092 27.1381L13.8135 27.1381V21.8849L17.1271 18.7329L16.4803 18.7329L12.7092 22.32V27.1381ZM22.65 27.1381L21.5452 27.1381V21.8849L18.2316 18.7329L18.9214 18.7329L22.65 21.8363V27.1381Z" fill="#931E3F"/>
</svg>
