<svg width="16" height="16" viewBox="0 0 16 16" fill="none" xmlns="http://www.w3.org/2000/svg">
<circle cx="8" cy="8" r="8" fill="#931E3F"/>
<path d="M8.19922 10.2871H6.92774C6.93229 9.84961 6.97103 9.49186 7.04395 9.21387C7.12142 8.93131 7.24675 8.67383 7.41992 8.44141C7.5931 8.20898 7.82324 7.94466 8.11035 7.64844C8.31999 7.43424 8.5114 7.23372 8.68457 7.04688C8.86231 6.85547 9.00586 6.65039 9.11524 6.43164C9.22461 6.20833 9.2793 5.94173 9.2793 5.63184C9.2793 5.31738 9.22233 5.04622 9.1084 4.81836C8.99903 4.59049 8.83496 4.41504 8.61621 4.29199C8.40202 4.16895 8.13542 4.10742 7.81641 4.10742C7.55208 4.10742 7.30143 4.15527 7.06445 4.25098C6.82748 4.34668 6.63607 4.49479 6.49024 4.69531C6.3444 4.89128 6.26921 5.14876 6.26465 5.46777H5C5.00911 4.9528 5.13672 4.51074 5.38281 4.1416C5.63346 3.77246 5.9707 3.48991 6.39453 3.29395C6.81836 3.09798 7.29232 3 7.81641 3C8.39518 3 8.88737 3.10482 9.29297 3.31445C9.70313 3.52409 10.0153 3.82487 10.2295 4.2168C10.4437 4.60417 10.5508 5.06445 10.5508 5.59766C10.5508 6.00781 10.4665 6.38607 10.2979 6.73242C10.1338 7.07422 9.92188 7.39551 9.66211 7.69629C9.40235 7.99707 9.12663 8.28418 8.83496 8.55762C8.58431 8.79004 8.41569 9.05208 8.3291 9.34375C8.24251 9.63542 8.19922 9.94987 8.19922 10.2871ZM6.87305 12.4541C6.87305 12.249 6.93685 12.0758 7.06445 11.9346C7.19206 11.7933 7.37663 11.7227 7.61817 11.7227C7.86426 11.7227 8.05111 11.7933 8.17871 11.9346C8.30632 12.0758 8.37012 12.249 8.37012 12.4541C8.37012 12.6501 8.30632 12.8187 8.17871 12.96C8.05111 13.1012 7.86426 13.1719 7.61817 13.1719C7.37663 13.1719 7.19206 13.1012 7.06445 12.96C6.93685 12.8187 6.87305 12.6501 6.87305 12.4541Z" fill="white"/>
</svg>
