<svg width="502" height="395" viewBox="0 0 502 395" fill="none" xmlns="http://www.w3.org/2000/svg">
<path d="M185.232 244.305L235.507 200.314L401.65 205.421V240.77C400.079 245.745 396.622 255.381 395.366 254.124C393.795 252.553 380.047 272.585 381.619 277.298C383.19 282.011 204.085 267.871 199.372 267.871C195.601 267.871 188.374 252.16 185.232 244.305Z" fill="#3361AD"/>
<path fill-rule="evenodd" clip-rule="evenodd" d="M405.185 250.197L408.123 205.755C408.235 204.067 406.929 202.62 405.238 202.559L237.767 196.497C235.805 196.426 233.886 197.079 232.374 198.331L185.136 237.461C183.216 239.051 182.148 241.446 182.246 243.938L187.306 371.89C187.467 375.955 190.654 379.252 194.711 379.552L392.159 394.124C396.693 394.458 400.595 390.951 400.743 386.406L405.185 250.197ZM396.895 249.817L399.686 206.206L238.649 200.314L190.087 240.351L396.895 249.817Z" fill="#ACDEF2"/>
<mask id="mask0_3085_163933" style="mask-type:alpha" maskUnits="userSpaceOnUse" x="182" y="196" width="227" height="199">
<path fill-rule="evenodd" clip-rule="evenodd" d="M405.185 250.197L408.123 205.755C408.235 204.067 406.929 202.62 405.238 202.559L237.767 196.497C235.805 196.426 233.886 197.079 232.374 198.331L185.136 237.461C183.216 239.051 182.148 241.446 182.246 243.938L187.306 371.89C187.467 375.955 190.654 379.252 194.711 379.552L392.159 394.124C396.693 394.458 400.595 390.951 400.743 386.406L405.185 250.197ZM396.151 254.91L399.686 206.206L238.649 200.314L185.625 245.483L396.151 254.91Z" fill="#ACDEF2"/>
</mask>
<g mask="url(#mask0_3085_163933)">
<rect width="9.3317" height="161.587" transform="matrix(0.999617 -0.0276662 0.0222085 0.999753 192.978 240)" fill="#4B74B9"/>
<rect width="9.3317" height="161.587" transform="matrix(0.999898 -0.014314 0.0088549 0.999961 212.979 238.757)" fill="#4B74B9"/>
<rect width="9.3317" height="161.587" transform="matrix(1 -0.000380337 -0.00507912 0.999987 233.04 237.861)" fill="#4B74B9"/>
<rect width="9.33171" height="161.587" transform="matrix(1 -0.000895979 -0.00456349 0.99999 251.91 238.39)" fill="#4B74B9"/>
<rect width="9.33171" height="161.587" transform="matrix(0.999991 -0.00425279 -0.00120667 0.999999 270.553 238.832)" fill="#4B74B9"/>
<rect width="9.33171" height="161.587" transform="matrix(0.999997 0.00228379 -0.0077432 0.99997 290.003 238.911)" fill="#4B74B9"/>
<rect width="9.33168" height="161.587" transform="matrix(0.999998 -0.00174947 -0.00371 0.999993 308.584 239.62)" fill="#4B74B9"/>
<rect width="9.33171" height="161.587" transform="matrix(0.999998 -0.00174946 -0.00371001 0.999993 327.497 240.085)" fill="#4B74B9"/>
<rect width="9.33171" height="161.587" transform="matrix(0.999998 -0.00174946 -0.00371001 0.999993 346.41 240.551)" fill="#4B74B9"/>
<rect width="9.33171" height="161.587" transform="matrix(0.999998 -0.00174946 -0.00371001 0.999993 365.323 241.014)" fill="#4B74B9"/>
<rect width="9.33168" height="161.587" transform="matrix(0.999998 -0.00174947 -0.00371 0.999993 384.236 241.479)" fill="#4B74B9"/>
<path d="M400.864 248.626L403.221 231.344L410.291 353.889L406.363 378.241L400.864 248.626Z" fill="#4B74B9"/>
<path d="M404.006 221.917L405.666 209.754L415.004 308.327L412.647 329.929L404.006 221.917Z" fill="#4B74B9"/>
</g>
<path d="M235.507 126.474L218.225 32.208L98.8218 162.609L89.3953 275.727L235.507 126.474Z" fill="#4B74B9"/>
<path d="M233.543 126.081L218.224 32.208L249.646 55.7744L273.998 155.539L233.543 126.081Z" fill="#3361AD"/>
<path d="M273.998 155.537L233.543 126.079L90.1804 274.94L129.458 295.364L273.998 155.537Z" fill="#5988D7"/>
<path d="M175.02 186.959L214.297 214.06L184.839 242.733L146.347 216.81L148.311 172.033L92.9302 226.629L94.5013 203.063L154.596 143.754V101.727L165.986 89.1584L168.735 127.257L223.724 65.1992L259.073 91.1222L263.394 110.368L227.651 89.1584L173.449 146.503L175.02 186.959Z" fill="#F16562"/>
<path d="M157.56 147.848C157.56 147.848 128.998 105.126 137.924 71.7955C146.855 38.4745 145.64 27.7656 157.963 13.0991C170.304 -1.57841 184.074 7.91922 189.836 24.282C195.602 40.6448 192.969 118.13 174.858 142.977C156.765 167.815 163.494 153.98 163.494 153.98C163.494 153.98 181.758 34.8354 168.059 20.6856C168.059 20.6856 159.336 14.5209 148.629 43.1591C137.922 71.7974 162.437 133.977 160.99 137.207C159.542 140.441 157.56 147.848 157.56 147.848Z" fill="#F16460"/>
<path d="M155.878 155.104C155.878 155.104 106.312 207.707 40.7427 177.366C40.7427 177.366 17.9661 152.088 38.3925 136.239C58.8217 120.395 133.518 127.997 154.924 144.849C176.318 161.705 158.4 150.421 158.4 150.421C158.4 150.421 66.5786 140.335 51.2063 146.828C35.84 153.319 39.8567 164.763 44.1047 169.077C48.3632 173.389 61.2605 181.613 79.3619 175.74C97.4537 169.866 142.964 153.096 155.878 155.104Z" fill="#F16460"/>
<path d="M420.896 197.816C409.584 161.367 369.05 204.624 350.197 230.809C414.219 151.469 415.79 228.453 416.575 235.522C417.361 242.592 418.932 277.156 422.86 280.299C426.787 283.441 437.785 285.152 444.069 277.156C450.354 269.161 489.762 238.403 501.021 235.522V224.525C477.848 224.525 439.749 273.229 436.607 274.8C433.464 276.371 435.035 243.378 420.896 197.816Z" fill="#F16562"/>
<path d="M111.58 261.373C77.808 243.598 79.7337 302.847 84.918 334.694C74.0866 233.322 129.633 286.646 135.187 291.09C140.742 295.533 166.293 318.863 171.293 318.308C176.292 317.752 185.278 311.185 184.068 301.088C182.858 290.991 188.975 241.376 194.9 231.377L187.123 223.601C170.737 239.987 178.236 301.366 177.125 304.699C176.014 308.031 153.796 283.591 111.58 261.373Z" fill="#F16562"/>
<path d="M288.138 34.5635L294.261 46.3467H282.015L288.138 34.5635Z" fill="#F16562"/>
<path d="M292.882 119.168L297.645 128.595H288.12L292.882 119.168Z" fill="#F16562"/>
<path d="M329.018 48.4697L322.895 42.5781L335.141 42.5781L329.018 48.4697Z" fill="#F16562"/>
<path d="M267.067 99.9728L266.161 78.3821L278.647 81.7276L267.067 99.9728Z" fill="#F16562"/>
<path d="M378.741 54.7494L370.911 44.3976L385.87 43.903L378.741 54.7494Z" fill="#F16562"/>
<path d="M415.414 41.8138L423.585 49.1013L419.067 52.1351L415.414 41.8138Z" fill="#F16562"/>
<path d="M347.829 122.935L344.074 114.609L355.245 117.603L347.829 122.935Z" fill="#F16562"/>
<path d="M362.962 80.5804L360.482 67.4906L371.653 70.4838L362.962 80.5804Z" fill="#F16562"/>
<path d="M376.244 156.522L363.838 141.721L372.09 137.661L376.244 156.522Z" fill="#F16562"/>
<path d="M401.942 172.536L404.412 156.46L416.164 164.644L401.942 172.536Z" fill="#F16562"/>
<path d="M290.271 179.751L289.773 167.937L301.524 176.121L290.271 179.751Z" fill="#F16562"/>
<path d="M257.33 144.435L250.756 136.648L262.157 135.46L257.33 144.435Z" fill="#F16562"/>
<path d="M239.66 177.625L230.821 172.555L241.129 167.541L239.66 177.625Z" fill="#F16562"/>
<path d="M246.575 215.911L242.78 194.752L259.212 198.52L246.575 215.911Z" fill="#F16562"/>
<path d="M227.103 220.101L222.75 213.16L234.046 215.751L227.103 220.101Z" fill="#F16562"/>
<path d="M334.731 219.61L324.805 214.009L334.842 208.214L334.731 219.61Z" fill="#F16562"/>
<path d="M324.063 182.167L315.324 178.62L325.36 172.825L324.063 182.167Z" fill="#F16562"/>
<path d="M294.001 218.564L290.85 210.034L299.546 211.357L294.001 218.564Z" fill="#F16562"/>
</svg>
