<svg width="500" height="395" viewBox="0 0 500 395" fill="none" xmlns="http://www.w3.org/2000/svg">
<path d="M254.327 50.9138L215.97 42.1572L120.592 0L120.435 394.737L218.213 350.374L259.282 346.285L380.237 366.751V10.9965L254.327 50.9138Z" fill="#F4D7E8"/>
<path opacity="0.5" d="M215.091 42.2925L254.33 51.0468L259.398 346.34L217.386 350.429L215.091 42.2925Z" fill="#DDA6C8"/>
<path d="M271.48 118.18C271.458 118.171 271.436 118.162 271.416 118.155C264.759 115.541 258.597 114.734 253.357 114.801V326.237C263.259 326.564 269.94 323.719 271.482 322.995V308.942C267.908 208.55 270.492 143.714 271.482 124.387V118.18H271.48Z" fill="#AFBBDF"/>
<path d="M253.357 106.741V115.908L263.426 116.811C263.047 107.142 260.016 106.741 260.016 106.741C260.016 106.741 256.724 106.741 253.357 106.741Z" fill="#AFD8F3"/>
<path d="M258.21 90.6323C258.21 90.6323 255.72 90.6323 253.357 90.6323V106.742H259.398C259.398 106.742 259.398 95.2606 259.398 92.8614C259.396 90.4668 258.21 90.6323 258.21 90.6323Z" fill="#969696"/>
<path d="M235.231 118.18C235.255 118.171 235.277 118.162 235.297 118.155C241.952 115.541 248.119 114.734 253.357 114.801V326.237C243.448 326.564 236.771 323.719 235.231 322.995V308.942C238.808 208.55 236.226 143.714 235.231 124.387V118.18Z" fill="#DDE4F3"/>
<path d="M253.357 106.741V115.908L243.287 116.811C243.664 107.142 246.694 106.741 246.694 106.741C246.694 106.741 249.99 106.741 253.357 106.741Z" fill="#D9E9F7"/>
<path d="M250.116 90.6323C250.116 90.6323 251.779 90.6323 253.356 90.6323V106.742H249.328C249.328 106.742 249.328 95.2606 249.328 92.8614C249.328 90.4668 250.116 90.6323 250.116 90.6323Z" fill="#C1C1C0"/>
<path d="M270.051 120.84C270.051 120.84 266.615 298.53 271.482 320.222C271.482 320.222 263.466 234.563 270.051 120.84Z" fill="#7AA0D4"/>
<path d="M236.699 269.873C236.699 269.873 235.231 318.258 235.231 320.605C235.231 322.957 263.384 327.473 269.468 320.605C269.468 320.605 251.523 325.565 237.914 317.934C237.914 317.934 236.973 312.982 236.699 269.873Z" fill="#7AA0D4"/>
<path opacity="0.25" d="M267.455 136.709C267.455 136.709 259.987 265.596 261.717 288.391C263.446 311.177 254.577 316.402 248.663 313.411C242.743 310.43 242.979 263.355 243.581 246.917C244.182 230.48 249.049 169.588 247.187 153.521C245.333 137.456 263.85 117.651 267.455 136.709Z" fill="#AABCD6"/>
<path d="M237.245 120.839C237.245 120.839 256.079 113.418 261.412 118.722C261.412 118.722 254.3 117.307 237.245 120.839Z" fill="#BAC5DD"/>
<path d="M237.245 124.868C237.245 124.868 241.724 197.604 239.506 221.538C239.506 221.538 244.714 189.314 237.245 124.868Z" fill="#CDD4EC"/>
<path d="M267.159 183.271C267.159 183.271 265.46 291.989 267.159 303.984C268.846 315.983 262.557 277.746 267.159 183.271Z" fill="#CDD4EC"/>
<path d="M249.329 106.972C249.329 106.972 247.031 105.915 245.334 108.322C243.643 110.729 243.287 114.797 243.287 114.797C243.287 114.797 244.537 105.876 249.329 106.972Z" fill="#07B3CD"/>
<path d="M261.412 108.755C261.412 108.755 263.559 112.181 263.419 114.797C263.419 114.799 263.664 114.458 261.412 108.755Z" fill="#07B3CD"/>
<path d="M259.398 106.741C259.398 106.741 263.22 113.202 263.426 114.797C263.429 114.797 262.359 110.772 259.398 106.741Z" fill="#07B3CD"/>
<path d="M257.385 106.741C257.36 106.662 259.202 113.438 259.398 114.797C259.396 114.797 259.165 112.169 257.385 106.741Z" fill="#07B3CD"/>
<path d="M253.357 106.741C253.357 106.741 251.254 113.754 251.346 114.797C251.346 114.799 252.21 108.917 253.357 106.741Z" fill="#07B3CD"/>
<path d="M251.342 106.741C251.342 106.741 249.417 112.84 249.328 114.797C249.328 114.797 250.197 108.574 251.342 106.741Z" fill="#07B3CD"/>
<path d="M249.329 106.741C249.329 106.741 246.155 108.495 245.301 114.797C245.301 114.797 246.353 109.254 249.329 106.741Z" fill="#07B3CD"/>
<path d="M249.329 106.741C249.329 106.741 247.484 111.972 247.315 114.797C247.316 114.797 247.801 109.928 249.329 106.741Z" fill="#07B3CD"/>
<path d="M255.371 106.741C255.371 106.741 257.909 112.664 257.286 114.797C257.286 114.797 258.021 111.074 255.371 106.741Z" fill="#07B3CD"/>
<path d="M257.385 106.741C257.385 106.741 261.013 111.65 261.412 114.797C261.412 114.797 260.899 110.902 257.385 106.741Z" fill="#07B3CD"/>
<path opacity="0.52" d="M259.398 92.644H249.328V94.658H259.398V92.644Z" fill="white"/>
<path opacity="0.56" d="M259.398 104.727H249.328V106.741H259.398V104.727Z" fill="#434343"/>
<path opacity="0.48" d="M246.308 153.063C249.088 153.063 251.343 146.301 251.343 137.959C251.343 129.617 249.088 122.854 246.308 122.854C243.527 122.854 241.273 129.617 241.273 137.959C241.273 146.301 243.527 153.063 246.308 153.063Z" fill="white"/>
<path opacity="0.48" d="M261.412 316.194C264.749 316.194 267.454 311.686 267.454 306.125C267.454 300.563 264.749 296.055 261.412 296.055C258.076 296.055 255.371 300.563 255.371 306.125C255.371 311.686 258.076 316.194 261.412 316.194Z" fill="white"/>
<path opacity="0.48" d="M249.329 110.769C251.554 110.769 253.357 109.867 253.357 108.755C253.357 107.642 251.554 106.741 249.329 106.741C247.105 106.741 245.301 107.642 245.301 108.755C245.301 109.867 247.105 110.769 249.329 110.769Z" fill="white"/>
<path opacity="0.25" d="M251.342 100.7C252.455 100.7 253.356 99.7986 253.356 98.6863C253.356 97.574 252.455 96.6724 251.342 96.6724C250.23 96.6724 249.328 97.574 249.328 98.6863C249.328 99.7986 250.23 100.7 251.342 100.7Z" fill="white"/>
<path opacity="0.29" d="M217.105 349.716L214.864 42.1572L118.577 0L118.421 394.737L217.105 350.374L217.05 342.631L217.105 349.716Z" fill="white"/>
<path d="M233.217 324.44L257.208 328.276L275.51 324.44V298.067L256.549 304.787L233.217 298.067V324.44Z" fill="#EEC5DD"/>
<path d="M233.217 69.2413V92.2599L253.876 87.9415L275.51 94.6553V69.2413L253.26 64.4458L233.217 69.2413Z" fill="#EEC5DD"/>
<path d="M275.51 69.2413V94.6553L253.97 87.9415L253.357 64.4458L275.51 69.2413Z" fill="#DDA6C8"/>
<path d="M275.51 298.067V324.44L258.015 328.276L257.385 304.787L275.51 298.067Z" fill="#DDA6C8"/>
<path d="M233.217 91.4994C233.217 91.4994 252.652 86.0982 254.242 86.6386C255.832 87.1762 274.695 93.4735 275.488 94.5571C276.281 95.6379 255.868 87.5347 253.682 88.0751C251.492 88.621 251.193 87.5402 233.217 91.4994Z" fill="#96758B"/>
<path d="M233.217 298.067L256.548 306.123L275.51 298.067C275.51 298.067 260.165 303.398 256.2 304.016C252.224 304.637 233.217 298.067 233.217 298.067Z" fill="#96758B"/>
<path opacity="0.21" d="M126.477 16.1108V350.429L205.021 261.805V55.7551L126.477 16.1108Z" fill="white"/>
<path opacity="0.25" d="M364.125 64.4458L325.859 345.414L344.992 354.457L364.125 103.833V64.4458Z" fill="white"/>
<path opacity="0.43" d="M235.231 71.7424L235.808 86.5998L237.061 72.9304L251.343 68.4741L235.231 71.7424Z" fill="white"/>
<path d="M233.217 308.136V323.091L255.371 326.262C255.371 326.262 234.259 324.045 234.259 319.687C234.259 315.333 233.217 308.136 233.217 308.136Z" fill="#F9DEEB"/>
<path opacity="0.3" d="M233.217 117.1C233.217 117.1 233.461 295.648 234.598 299.172L236.391 300.08L237.539 206.815L235.863 118.863L243.972 116.054C243.972 116.054 243.543 106.086 248.847 106.647L248.519 92.4528C248.519 92.4528 249.205 90.6274 249.324 90.6274C249.442 90.6274 247.483 90.81 247.483 92.4528C247.483 94.098 247.8 105.076 247.8 105.076C247.8 105.076 243.223 106.622 243.241 115.238L233.217 117.1Z" fill="#96758B"/>
<path d="M215.091 159.104H254.482H293.636V195.355H255.116H215.365" fill="#EEC5DD"/>
<path d="M293.636 159.104H255.371V195.355H293.636V159.104Z" fill="#DDA6C8"/>
<path opacity="0.56" d="M215.091 159.104H255.117H293.636C293.636 159.104 257.908 161.118 255.248 161.118C252.356 161.118 224.697 159.439 215.091 159.104Z" fill="#96758B"/>
<path opacity="0.51" d="M217.105 165.144V195.353H251.343C251.343 195.353 221.073 195.353 219.092 191.168C217.105 186.98 217.105 165.144 217.105 165.144Z" fill="#DDA6C8"/>
<path d="M120.964 393.566L217.762 350.383L258.834 346.402L380.237 366.324L258.834 357.648L217.762 360.646L120.435 394.737" fill="#96758B"/>
</svg>
