<svg width="500" height="395" viewBox="0 0 500 395" fill="none" xmlns="http://www.w3.org/2000/svg">
<path d="M102.632 357.64C104.029 356.699 131.119 287.385 130.634 272.816C130.156 258.24 122.177 182.689 143.322 148.308C143.322 148.308 152.25 125.692 154.609 114.401C156.961 103.132 172.443 68.3418 174.357 63.1706C176.228 57.9994 179.988 25.1012 179.04 19.93C179.04 19.93 196.443 15.2257 203.493 29.8055V91.8492C203.493 91.8492 197.847 100.299 196.44 102.658C196.44 102.658 202.552 128.511 194.073 153.422C194.073 153.422 202.067 150.653 203.493 149.923C204.901 149.192 360.491 13.8215 368.941 12.4067C377.427 11.006 390.574 13.818 389.167 27.4498C387.762 41.0852 362.383 59.4143 362.383 59.4143L325.699 109.237L318.186 153.422V210.298L326.643 277.039C326.643 277.039 305.498 315.586 292.34 334.389C279.167 353.189 237.796 375.763 237.796 375.763L193.888 394.737L153.098 383.842L123.403 370.26L102.632 357.64Z" fill="#FFCFD3"/>
<path d="M204.541 27.9671C204.541 12.5213 217.062 0 232.508 0H339.637C355.083 0 367.604 12.5213 367.604 27.9671V302.232C367.604 317.678 355.083 330.199 339.637 330.199H232.508C217.062 330.199 204.541 317.678 204.541 302.232V27.9671Z" fill="#EAF7FF"/>
<path d="M208.103 200.56L353.447 9.26172C365.131 11.5416 366.153 20.4237 365.203 24.5798C365.44 110.789 365.773 287.053 365.203 302.443C364.633 317.832 349.766 325.954 342.404 328.091H229.834C219.574 328.091 211.072 316.217 208.103 310.28V200.56Z" fill="white" fill-opacity="0.64"/>
<path fill-rule="evenodd" clip-rule="evenodd" d="M339.741 4.46533H232.612C219.632 4.46533 209.11 14.9874 209.11 27.9671V302.232C209.11 315.212 219.632 325.734 232.612 325.734H339.741C352.72 325.734 363.242 315.212 363.242 302.232V27.9671C363.242 14.9874 352.72 4.46533 339.741 4.46533ZM232.612 0C217.166 0 204.645 12.5213 204.645 27.9671V302.232C204.645 317.678 217.166 330.199 232.612 330.199H339.741C355.186 330.199 367.708 317.678 367.708 302.232V27.9671C367.708 12.5213 355.186 0 339.741 0H232.612Z" fill="#010088"/>
<path d="M258.606 0.984375H313.748V1.13049C313.748 7.36072 308.697 12.4113 302.467 12.4113H269.887C263.657 12.4113 258.606 7.36072 258.606 1.13049V0.984375Z" fill="#010088"/>
<path d="M201.691 64.2265C201.691 62.595 203.014 61.2725 204.645 61.2725V77.4278C203.014 77.4278 201.691 76.1052 201.691 74.4738V64.2265Z" fill="#010088"/>
<path d="M201.691 84.3212C201.691 82.6898 203.014 81.3672 204.645 81.3672V97.5225C203.014 97.5225 201.691 96.2 201.691 94.5685V84.3212Z" fill="#010088"/>
<path d="M371.843 88.461C371.843 90.7451 369.991 92.5967 367.707 92.5967L367.707 62.2562C369.991 62.2562 371.843 64.1078 371.843 66.3918L371.843 88.461Z" fill="#010088"/>
<path d="M362.821 108.779C362.821 108.779 350.134 90.432 357.668 80.0861C365.694 69.0737 365.694 69.0737 375.545 70.2212C381.219 70.8841 389.17 77.2742 391.508 93.7144C391.508 93.7144 389.644 106.89 364.244 119.107L362.821 108.779Z" fill="#FFCFD3"/>
<path d="M363.777 136.12V140.472C363.777 140.472 339.346 156.712 342.157 168.466C344.969 180.22 352.023 186.788 363.777 183.509C375.541 180.223 395.261 168.466 395.742 160.24C396.209 152.011 387.752 135.511 376.964 135.307C366.122 135.09 363.777 136.12 363.777 136.12Z" fill="#FFCFD3"/>
<path d="M351.574 201.356C351.574 201.356 337.471 215.006 351.574 227.209C365.662 239.433 387.513 227.209 389.267 223.463C391.038 219.675 394.32 208.413 387.264 201.356C380.218 194.311 375.05 190.087 351.574 201.356Z" fill="#FFCFD3"/>
<path d="M277.207 161.386C232.061 161.386 206.319 130.496 205.263 79.0133H227.968C228.694 116.767 245.327 132.74 258.528 136.04V79.0133H279.847V111.553C292.85 110.167 306.579 95.3162 311.199 78.9473H332.452C330.719 87.4206 327.258 95.4455 322.284 102.521C317.309 109.596 310.93 115.569 303.543 120.068C311.786 124.171 319.066 129.974 324.903 137.096C330.739 144.219 334.999 152.497 337.403 161.386H313.971C308.955 145.743 296.414 133.598 279.847 131.948V161.386H277.273H277.207Z" fill="#0077FF"/>
<path d="M262.039 173.532C298.772 157.191 323.267 146.419 335.522 141.214C370.516 126.353 377.787 123.772 382.526 123.685C383.568 123.668 385.899 123.931 387.409 125.182C388.684 126.238 389.034 127.665 389.202 128.666C389.37 129.668 389.579 131.949 389.413 133.731C387.517 154.074 379.311 203.442 375.137 226.227C373.371 235.868 369.893 239.1 366.526 239.417C359.208 240.104 353.652 234.479 346.565 229.736C335.474 222.313 329.209 217.693 318.444 210.45C306.004 202.079 314.068 197.479 321.158 189.96C323.014 187.992 355.254 158.051 355.878 155.334C355.956 154.995 356.029 153.728 355.292 153.06C354.555 152.391 353.468 152.62 352.683 152.802C351.571 153.059 333.854 165.016 299.533 188.67C294.504 192.196 289.95 193.914 285.868 193.824C281.369 193.725 272.715 191.226 266.281 189.091C258.39 186.472 252.119 185.087 252.665 180.64C252.949 178.323 256.074 175.954 262.039 173.532Z" fill="#0088CC"/>
<path d="M268.352 148.913C263.753 144.462 257.748 142.853 251.539 144.408C241.084 147.399 202.254 169.817 202.254 169.817C202.254 169.817 164.185 191.796 155.606 199.795C151.156 204.395 149.546 210.399 151.101 216.608C155.293 227.385 166.722 247.181 166.722 247.181C166.722 247.181 178.151 266.977 186.149 275.556C190.749 280.006 196.754 281.615 202.963 280.061C213.418 277.07 252.248 254.651 252.248 254.651C252.248 254.651 290.317 232.673 298.896 224.674C303.346 220.074 304.955 214.069 303.401 207.86C299.971 196.644 288.541 176.848 288.541 176.848C288.541 176.848 277.112 157.052 268.352 148.913Z" fill="white"/>
<path d="M268.352 148.913C263.753 144.462 257.748 142.853 251.539 144.408C241.084 147.399 202.254 169.817 202.254 169.817C202.254 169.817 164.185 191.796 155.606 199.795C151.156 204.395 149.546 210.399 151.101 216.608C155.293 227.385 166.722 247.181 166.722 247.181C166.722 247.181 178.151 266.977 186.149 275.556C190.749 280.006 196.754 281.615 202.963 280.061C213.418 277.07 252.248 254.651 252.248 254.651C252.248 254.651 290.317 232.673 298.896 224.674C303.346 220.074 304.955 214.069 303.401 207.86C299.971 196.644 288.541 176.848 288.541 176.848C288.541 176.848 277.112 157.052 268.352 148.913ZM225.999 237.321L204.9 200.775L247.427 200.585L225.999 237.321Z" fill="#FF0000"/>
</svg>
