<svg width="30" height="30" viewBox="0 0 30 30" fill="none" xmlns="http://www.w3.org/2000/svg">
<path d="M15 0C6.72818 0 0 6.72818 0 15C0 23.2718 6.72818 30 15 30C23.2718 30 30 23.2718 30 15C30 6.72818 23.2718 0 15 0ZM15 1.03448C22.7 1.03448 28.9655 7.29997 28.9655 15C28.9655 22.7 22.7 28.9655 15 28.9655C7.29997 28.9655 1.03448 22.7 1.03448 15C1.03448 7.29997 7.29997 1.03448 15 1.03448ZM15 3.10345C8.43952 3.10345 3.10345 8.43952 3.10345 15C3.10345 21.5605 8.43952 26.8966 15 26.8966C21.5605 26.8966 26.8966 21.5605 26.8966 15C26.8966 11.3248 25.2377 7.9142 22.3444 5.64116C22.1201 5.46538 21.7969 5.50377 21.6191 5.72804C21.4433 5.95232 21.4817 6.27761 21.706 6.45541C24.3467 8.53044 25.8621 11.646 25.8621 15C25.8621 20.9887 20.9887 25.8621 15 25.8621C9.01131 25.8621 4.13793 20.9887 4.13793 15C4.13793 9.01131 9.01131 4.13793 15 4.13793C15.5314 4.13793 16.0648 4.17632 16.5841 4.2531C16.8689 4.29553 17.1316 4.09954 17.172 3.81668C17.2124 3.53381 17.0185 3.27115 16.7356 3.22872C16.1658 3.14588 15.5819 3.10345 15 3.10345ZM18.8955 3.79849C18.6954 3.80859 18.5096 3.93588 18.4348 4.13793C18.3378 4.40463 18.4752 4.70164 18.7439 4.80065C19.148 4.94814 19.5501 5.12594 19.938 5.32395C20.0148 5.36234 20.0956 5.38052 20.1744 5.38052C20.3623 5.38052 20.5442 5.27748 20.6351 5.09766C20.7644 4.84308 20.6634 4.53192 20.4088 4.40261C19.9845 4.1844 19.544 3.99246 19.0995 3.8288C19.0329 3.80455 18.9642 3.79445 18.8955 3.79849ZM15 6.2069C14.7151 6.2069 14.4828 6.43925 14.4828 6.72414V7.75862C14.4828 8.04351 14.7151 8.27586 15 8.27586C15.2849 8.27586 15.5172 8.04351 15.5172 7.75862V6.72414C15.5172 6.43925 15.2849 6.2069 15 6.2069ZM18.0933 6.81102C17.8913 6.81304 17.7014 6.93427 17.6206 7.13429L17.2326 8.092C17.1255 8.35668 17.2528 8.65975 17.5195 8.76684C17.5822 8.79108 17.6488 8.80321 17.7135 8.80321C17.9176 8.80321 18.1115 8.68198 18.1923 8.47993L18.5803 7.5202C18.6874 7.25552 18.5581 6.95447 18.2934 6.84739C18.2267 6.82112 18.16 6.809 18.0933 6.81102ZM20.7402 8.52842C20.6068 8.53246 20.4775 8.58499 20.3765 8.68804L19.6572 9.43157C19.4592 9.63766 19.4652 9.96498 19.6713 10.163C19.7703 10.26 19.8996 10.3085 20.029 10.3085C20.1664 10.3085 20.2997 10.2539 20.4007 10.1509L21.12 9.40733C21.32 9.20124 21.314 8.87392 21.1099 8.67389C21.0069 8.57489 20.8735 8.5264 20.7402 8.52842ZM15 9.31034C14.7151 9.31034 14.4828 9.5427 14.4828 9.82759V14.109C14.1756 14.2888 13.9655 14.6181 13.9655 15C13.9655 15.5698 14.4302 16.0345 15 16.0345C15.0929 16.0345 15.1798 16.0183 15.2647 15.9961L18.5136 19.245C18.6146 19.346 18.746 19.3966 18.8793 19.3966C19.0127 19.3966 19.144 19.346 19.245 19.245C19.4471 19.043 19.4471 18.7157 19.245 18.5136L15.9961 15.2647C16.0183 15.1798 16.0345 15.0929 16.0345 15C16.0345 14.6181 15.8244 14.2888 15.5172 14.109V9.82759C15.5172 9.5427 15.2849 9.31034 15 9.31034ZM22.5505 11.1166C22.4838 11.1187 22.4151 11.1328 22.3505 11.1611L21.4049 11.5814C21.1443 11.6985 21.0271 12.0036 21.1422 12.2663C21.2291 12.4582 21.417 12.5734 21.615 12.5734C21.6857 12.5734 21.7565 12.5572 21.8252 12.5269L22.7707 12.1067C23.0314 11.9895 23.1486 11.6844 23.0334 11.4238C22.9445 11.2278 22.7526 11.1126 22.5505 11.1166ZM6.72414 14.4828C6.43925 14.4828 6.2069 14.7151 6.2069 15C6.2069 15.2849 6.43925 15.5172 6.72414 15.5172H7.75862C8.04351 15.5172 8.27586 15.2849 8.27586 15C8.27586 14.7151 8.04351 14.4828 7.75862 14.4828H6.72414ZM22.2414 14.4828C21.9565 14.4828 21.7241 14.7151 21.7241 15C21.7241 15.2849 21.9565 15.5172 22.2414 15.5172H23.2759C23.5607 15.5172 23.7931 15.2849 23.7931 15C23.7931 14.7151 23.5607 14.4828 23.2759 14.4828H22.2414ZM21.706 17.1963C21.5039 17.1983 21.314 17.3195 21.2332 17.5195C21.1281 17.7842 21.2554 18.0853 21.5201 18.1923L22.4798 18.5803C22.5424 18.6065 22.6091 18.6187 22.6717 18.6187C22.8778 18.6187 23.0718 18.4954 23.1526 18.2934C23.2597 18.0287 23.1324 17.7276 22.8657 17.6206L21.908 17.2326C21.8413 17.2064 21.7726 17.1942 21.706 17.1963ZM20.2007 19.5117C20.0694 19.5158 19.936 19.5683 19.837 19.6713C19.7582 19.7522 19.7218 19.8552 19.7057 19.9582C19.6188 20.1482 19.6491 20.3805 19.8067 20.5381L20.4856 21.217C20.5866 21.318 20.7179 21.3685 20.8513 21.3685C20.9846 21.3685 21.116 21.318 21.217 21.217C21.2352 21.1988 21.2453 21.1725 21.2614 21.1523C21.2817 21.1362 21.3059 21.1281 21.3261 21.1079C21.5241 20.9018 21.518 20.5745 21.312 20.3765L20.5684 19.6572C20.4654 19.5582 20.332 19.5097 20.2007 19.5117ZM15 21.7241C14.7151 21.7241 14.4828 21.9565 14.4828 22.2414V23.2759C14.4828 23.5607 14.7151 23.7931 15 23.7931C15.2849 23.7931 15.5172 23.5607 15.5172 23.2759V22.2414C15.5172 21.9565 15.2849 21.7241 15 21.7241Z" fill="#D44848"/>
</svg>
