<svg width="110" height="110" viewBox="0 0 110 110" fill="none" xmlns="http://www.w3.org/2000/svg">
<path d="M34.2715 35.6757H73.4569V38.2624H75.4389V33.6937H32.2895V38.2624H34.2715V35.6757Z" fill="#BF5C7A"/>
<path d="M34.2715 59.9632H32.2895V77.0955H75.4389V59.9632H73.4569V75.1135H34.2715V59.9632Z" fill="#BF5C7A"/>
<path d="M56.1352 59.9632V64.5318H70.8969V59.9632H68.9149V62.5498H58.1172V59.9632H56.1352Z" fill="#BF5C7A"/>
<path d="M36.8322 59.9632V72.5268H53.8649V59.9632H51.8829V70.5449H38.8142V59.9632H36.8322Z" fill="#BF5C7A"/>
<path d="M27.7478 57.6789V39.4045H29.7298L29.7298 57.6789H27.7478Z" fill="#BF5C7A"/>
<path d="M32.2895 39.4045L32.2895 57.6789H34.2715L34.2715 39.4045H32.2895Z" fill="#BF5C7A"/>
<path d="M36.8322 57.6789L36.8322 39.4045H38.8142L38.8142 57.6789H36.8322Z" fill="#BF5C7A"/>
<path d="M41.3739 39.4045L41.3739 57.6789H43.3559L43.3559 39.4045H41.3739Z" fill="#BF5C7A"/>
<path d="M45.9156 57.6789V39.4045H47.8976V57.6789H45.9156Z" fill="#BF5C7A"/>
<path d="M50.4583 39.4045V57.6789H52.4403V39.4045H50.4583Z" fill="#BF5C7A"/>
<path d="M55.0001 57.6789V39.4045H56.982V57.6789H55.0001Z" fill="#BF5C7A"/>
<path d="M59.5418 39.4045V57.6789H61.5238V39.4045H59.5418Z" fill="#BF5C7A"/>
<path d="M64.0845 57.6789V39.4045H66.0664V57.6789H64.0845Z" fill="#BF5C7A"/>
<path d="M68.6262 39.4045V57.6789H70.6082V39.4045H68.6262Z" fill="#BF5C7A"/>
<path d="M73.1679 57.6789V39.4045H75.1499V57.6789H73.1679Z" fill="#BF5C7A"/>
<path d="M77.7106 39.4045V57.6789H79.6926V39.4045H77.7106Z" fill="#BF5C7A"/>
</svg>
