<svg width="110" height="110" viewBox="0 0 110 110" fill="none" xmlns="http://www.w3.org/2000/svg">
<path d="M62.0346 72.551L68.0516 81.4237C68.2642 81.7373 68.6426 81.9025 69.0209 81.8469C69.3991 81.7913 69.7083 81.5251 69.8127 81.1649L72.2591 72.7315L81.1644 73.8222C81.5447 73.8688 81.9163 73.6947 82.1163 73.3763C82.3163 73.0578 82.3082 72.6531 82.0955 72.3396L74.5456 61.2064L74.5817 61.4277C74.7224 62.291 74.4622 63.1346 73.9297 63.7627L79.2815 71.6545L71.6574 70.7207C71.1786 70.662 70.7298 70.9524 70.5982 71.4058L68.5038 78.626L63.7666 71.6406C63.3133 72.1321 62.6996 72.4545 62.0346 72.551Z" fill="#BF5C7A"/>
<path d="M34.645 63.2847L27.79 72.9296C27.5705 73.2385 27.5536 73.643 27.7467 73.9656C27.9398 74.2883 28.3077 74.4703 28.689 74.4318L37.6157 73.531L39.8731 82.0138C39.9696 82.3762 40.2728 82.6492 40.6499 82.713C41.0269 82.7769 41.409 82.62 41.6285 82.3111L47.8212 73.5981C47.305 73.3637 46.8531 72.9777 46.5395 72.4603L46.4037 72.2362L41.2384 79.5037L39.3059 72.2419C39.1845 71.7854 38.7417 71.4852 38.2613 71.5337L30.6195 72.3049L34.962 66.1951C34.9363 66.0819 34.9173 65.966 34.9053 65.8478L34.645 63.2847Z" fill="#BF5C7A"/>
<path fill-rule="evenodd" clip-rule="evenodd" d="M68.4517 48.8823C68.4517 57.1992 61.6178 63.9414 53.1877 63.9414C44.7576 63.9414 37.9236 57.1992 37.9236 48.8823C37.9236 40.5654 44.7576 33.8232 53.1877 33.8232C61.6178 33.8232 68.4517 40.5654 68.4517 48.8823ZM65.5318 48.8823C65.5318 55.5619 60.0347 61.0297 53.1877 61.0297C46.3407 61.0297 40.8435 55.5619 40.8435 48.8823C40.8435 42.2027 46.3407 36.7348 53.1877 36.7348C60.0347 36.7348 65.5318 42.2027 65.5318 48.8823Z" fill="#BF5C7A"/>
<path fill-rule="evenodd" clip-rule="evenodd" d="M50.3955 73.5261C49.0257 74.2417 47.3363 73.7748 46.5395 72.4603L43.9457 68.1812L37.952 68.4522C36.3981 68.5224 35.0608 67.3792 34.9053 65.8478L34.2829 59.7196L29.0902 55.9015C27.8339 54.9777 27.5252 53.2353 28.389 51.9435L31.2045 47.7331L28.9677 41.2127C28.4654 39.7484 29.2098 38.1461 30.6599 37.57L35.9919 35.4519L36.7182 30.4989C36.9414 28.9765 38.327 27.8935 39.8754 28.0312L45.8833 28.5653L49.7149 24.7631C50.8078 23.6786 52.5584 23.6289 53.7123 24.6497L57.4694 27.9733L63.5757 26.7002C65.0951 26.3834 66.5963 27.2952 66.9987 28.7791L68.4657 34.1887L74 35.763C75.5004 36.1898 76.4039 37.7063 76.055 39.212L74.8788 44.2869L77.8703 48.1413C78.8239 49.37 78.6396 51.1303 77.4516 52.1394L73.6009 55.4107L74.5817 61.4277C74.8224 62.9044 73.8899 64.3236 72.4283 64.7049L65.8172 66.4298L64.3728 70.6244C63.8723 72.0777 62.3152 72.8882 60.8214 72.4729L55.3324 70.9467L50.3955 73.5261ZM46.9788 31.5859L39.6161 30.9313C39.6108 30.9308 39.6074 30.9312 39.6074 30.9312L39.606 30.9314L38.6373 37.5352L31.7405 40.2749L31.7363 40.2768L31.7338 40.2781L34.4341 48.1516L30.8204 53.5558L30.8231 53.558L37.0575 58.1422L37.8091 65.5428L37.8109 65.5433L37.8135 65.5435C37.8135 65.5435 37.8172 65.5436 37.8197 65.5435L45.547 65.1942L49.1598 70.8552L55.0022 67.8322L61.6056 69.6682L61.6103 69.6693L61.6132 69.6698L61.6143 69.6697L63.5639 64.008L71.6892 61.8881C71.6915 61.8875 71.6945 61.8864 71.6945 61.8864L71.6966 61.8856L71.6978 61.8849L70.4548 54.2583L75.5581 49.923L75.5598 49.9216L71.7221 44.9768L73.2077 38.5664L73.2066 38.5657C73.2066 38.5657 73.204 38.5644 73.199 38.5629L66.0778 36.5372L64.1828 29.5492L64.1814 29.5491C64.1814 29.5491 64.1784 29.5491 64.1733 29.5502L56.6299 31.123L51.7746 26.8277L46.9788 31.5859Z" fill="#BF5C7A"/>
</svg>
