<svg width="110" height="110" viewBox="0 0 110 110" fill="none" xmlns="http://www.w3.org/2000/svg">
<path d="M89.0001 44.8179C88.9985 43.8007 88.6993 42.7691 88.0379 41.9188L82.7291 35.1262C81.84 33.9971 80.487 33.4222 79.135 33.42C78.3303 33.42 77.511 33.6262 76.7871 34.0777L71.6108 37.2982C71.0664 37.6453 70.1331 37.8836 69.2316 37.8775C68.5313 37.8805 67.8545 37.7403 67.4076 37.5196L62.3386 35.0643C61.521 34.6706 60.6096 34.5093 59.693 34.5077C58.3767 34.5139 57.0437 34.8374 55.9724 35.5797L55.381 35.9947C54.9082 35.7587 54.1857 35.3993 53.3673 34.992C52.3858 34.5109 51.2318 34.3168 50.0661 34.313C49.0131 34.316 47.9603 34.4783 47.0359 34.8688L43.5833 36.342C43.0214 36.5856 42.1276 36.7448 41.2399 36.7408C40.3521 36.7446 39.4599 36.5855 38.898 36.342L35.4423 34.868C34.8119 34.5992 34.1381 34.4843 33.4704 34.4835C32.7014 34.4843 31.9371 34.6358 31.2266 34.9236C30.5171 35.2129 29.8585 35.64 29.334 36.2262L23.0423 43.2724C22.345 44.0512 21.9986 45.0318 22 45.9972C21.9986 47.1483 22.4911 48.3032 23.4412 49.1125L29.3102 54.1197L26.526 57.0242C25.7586 57.8252 25.3764 58.8637 25.3764 59.8905C25.375 60.9831 25.8089 62.0862 26.6684 62.8984L27.2332 63.4351C27.7654 63.94 28.4049 64.2611 29.0741 64.4324C28.7385 65.0498 28.555 65.7267 28.5565 66.405C28.555 67.4983 28.9889 68.6006 29.8469 69.4138L29.8454 69.413L30.4119 69.952C31.2183 70.7164 32.2636 71.097 33.2934 71.0964C33.847 71.0972 34.4012 70.9859 34.922 70.7682C35.1048 71.5098 35.4823 72.2147 36.0762 72.7781L36.6427 73.3171C37.449 74.0814 38.4926 74.4621 39.5242 74.4614C40.3305 74.4622 41.1406 74.2246 41.8379 73.7633C42.0419 74.4196 42.3914 75.0415 42.9235 75.5471L43.49 76.0861C44.2947 76.8504 45.34 77.2311 46.3701 77.2304C47.4671 77.2312 48.5749 76.8003 49.3932 75.946L51.8539 73.3765L55.197 76.4705C55.9972 77.2128 57.0243 77.582 58.0382 77.5798C59.1521 77.5822 60.2757 77.1359 61.0957 76.2581L61.6294 75.6864C62.09 75.1916 62.3907 74.606 62.5651 73.9948L63.8601 75.1901C64.6618 75.9293 65.6874 76.297 66.6999 76.2962C67.8152 76.297 68.9421 75.8508 69.7628 74.9723L70.2934 74.4012C70.9063 73.7466 71.2512 72.9356 71.3577 72.1074C71.6995 72.195 72.0459 72.2544 72.3953 72.2544C73.5106 72.2544 74.6343 71.8089 75.4558 70.9312L75.9881 70.3602C76.7319 69.563 77.1019 68.5406 77.1004 67.5326C77.1004 67.2197 77.0555 66.9084 76.9861 66.6007C77.9112 66.4781 78.8081 66.0655 79.4901 65.3331L80.0238 64.7614C80.7676 63.9642 81.1361 62.9418 81.1361 61.933C81.1375 60.823 80.69 59.703 79.8068 58.8869L78.8087 57.965L87.8168 48.0053C88.6255 47.1087 88.9986 45.9545 89.0001 44.8179ZM30.1151 62.3131C29.6379 62.3117 29.1711 62.141 28.8064 61.7954L28.2407 61.2588C27.8493 60.8887 27.656 60.3963 27.6544 59.8906C27.656 59.4164 27.8257 58.9534 28.1753 58.5887L33.8776 52.6382C34.2491 52.2505 34.7448 52.0565 35.2533 52.0558C35.7291 52.0566 36.1943 52.2279 36.562 52.5743L37.1254 53.1117C37.1254 53.1117 37.7086 53.9742 37.7101 54.4805C37.7086 54.8596 37.5944 55.2289 37.3729 55.5487C37.3539 55.5677 31.2183 61.9621 31.2183 61.9621C30.8924 62.1927 30.5072 62.3114 30.1151 62.3131ZM34.6693 68.2485C34.2986 68.6345 33.8037 68.8278 33.2951 68.8294C32.8179 68.8286 32.3526 68.6573 31.9864 68.3117L31.4199 67.7733L31.4185 67.7726C31.0302 67.4041 30.8352 66.9101 30.8352 66.4044C30.8352 65.9302 31.0065 65.4672 31.3544 65.1025C31.3544 65.1025 38.9555 57.1901 39.0195 57.1138C39.3827 56.7644 39.8508 56.584 40.3342 56.5832C40.8114 56.584 41.2768 56.7545 41.6429 57.1009L42.2094 57.6399C42.5991 58.0084 42.7927 58.5017 42.7941 59.008C42.7925 59.4822 42.6214 59.9459 42.2733 60.3106L34.6693 68.2485ZM40.8991 71.6126C40.5292 71.9996 40.0344 72.1931 39.5258 72.1946C39.0485 72.1938 38.5832 72.0225 38.217 71.6761L37.649 71.1377C37.2593 70.7685 37.0643 70.2752 37.0643 69.7696C37.0643 69.3464 37.2082 68.9359 37.4837 68.5941L42.7772 63.0691C43.1343 62.747 43.5819 62.5773 44.0456 62.5773C44.5229 62.5781 44.9882 62.7486 45.3544 63.095L45.9224 63.634C46.3107 64.0025 46.5057 64.4958 46.5071 65.0014C46.5055 65.4765 46.3328 65.9401 45.9863 66.3039L40.8991 71.6126ZM50.9572 71.0295L47.7452 74.3819C47.3751 74.7686 46.8795 74.9621 46.371 74.9635C45.8938 74.9628 45.4284 74.7915 45.0623 74.4451L44.4958 73.9067C44.1075 73.5382 43.9126 73.0442 43.9111 72.5386C43.9126 72.0634 44.0839 71.5998 44.4319 71.2367L47.6426 67.8844C48.0141 67.4978 48.5098 67.3036 49.0183 67.3028C49.4941 67.3036 49.9609 67.4741 50.327 67.8212L50.8951 68.3596C51.2833 68.7281 51.4768 69.2214 51.4783 69.7269C51.4765 70.202 51.3052 70.6656 50.9572 71.0295ZM78.8615 61.936C78.8608 62.4016 78.694 62.8576 78.356 63.22L77.8237 63.791C77.4522 64.1885 76.9482 64.3895 76.4321 64.3902C75.9638 64.3895 75.5054 64.225 75.1417 63.8887L66.1732 55.5947L64.6224 57.2551L74.222 66.1482C74.6217 66.5183 74.8226 67.0208 74.8256 67.5339C74.8226 68.0013 74.6573 68.4566 74.3201 68.819L73.7895 69.3901C73.418 69.7875 72.9139 69.9878 72.3978 69.9893C71.9296 69.9879 71.4697 69.8226 71.1088 69.4884L62.138 61.1945L60.5888 62.855L68.55 70.2171C68.9337 70.5849 69.1302 71.0744 69.1302 71.5768C69.1302 72.0428 68.965 72.4987 68.6277 72.8604L68.0955 73.4314C67.7255 73.8289 67.2199 74.0299 66.7024 74.0313C66.2326 74.0299 65.7743 73.8646 65.412 73.5304L57.4667 66.1949H57.4653L57.4638 66.1935L55.9176 67.857L55.9192 67.8584L55.9489 67.8865L59.9283 71.5592C60.2809 71.9216 60.4635 72.386 60.465 72.8664C60.4635 73.33 60.2997 73.7837 59.9625 74.1455L59.4303 74.7173C59.0588 75.1147 58.5563 75.3141 58.0416 75.3157C57.5734 75.3143 57.115 75.1498 56.7526 74.8141L53.2879 71.6058C53.5894 71.0143 53.7576 70.3725 53.7576 69.7284C53.7591 68.6358 53.3251 67.5343 52.4672 66.7205L51.8992 66.1814C51.0945 65.4177 50.0507 65.0364 49.0207 65.0379C48.9407 65.0379 48.8601 65.0562 48.7817 65.0608C48.7817 65.0418 48.7862 65.0219 48.7862 65.0029C48.7876 63.9104 47.4958 61.9934 47.4958 61.9934L46.9293 61.456C46.327 60.8849 45.5923 60.5287 44.8281 60.3856C44.9856 59.9395 45.0747 59.475 45.0747 59.0098C45.0747 57.9173 44.6422 56.8148 43.7843 56.0019L43.2178 55.4629C42.4115 54.6985 41.3679 54.3171 40.3377 54.3179C40.2175 54.3179 40.0988 54.3422 39.9792 54.3529C39.9465 53.3038 39.5239 52.2555 38.7017 51.4744V51.4736L38.1368 50.937C37.3305 50.1718 36.2869 49.7904 35.2567 49.7912C34.158 49.7904 33.0519 50.2213 32.2336 51.0756L30.8876 52.4802L24.9248 47.3945C24.4963 47.0276 24.2823 46.5205 24.2808 45.9998C24.2822 45.5635 24.4307 45.1364 24.7474 44.7817L31.039 37.7356C31.2887 37.4555 31.658 37.202 32.0904 37.026C32.5229 36.8501 33.0139 36.7535 33.473 36.7542C33.8728 36.7542 34.2479 36.8265 34.548 36.956L38.0022 38.4298C38.9759 38.8402 40.1064 39.0085 41.2425 39.0122C42.3799 39.0084 43.509 38.8401 44.4828 38.4298L47.9354 36.9566C48.4676 36.7245 49.2707 36.5805 50.0694 36.5835C50.9525 36.5782 51.8371 36.761 52.3502 37.0228C52.6761 37.185 52.9852 37.3389 53.2722 37.4827L49.751 39.9579C48.6196 40.7535 48.0098 42.0188 48.0113 43.2956C48.0099 44.1407 48.2778 45.0009 48.8229 45.731L48.8215 45.7294L49.2866 46.3544C50.1697 47.5285 51.5469 48.1321 52.9234 48.1352C53.7007 48.1352 54.4925 47.9387 55.1983 47.5154L57.3041 46.2508C57.7335 45.9881 58.3821 45.8222 59.0527 45.8252C59.8408 45.8206 60.6348 46.0537 61.1122 46.4045L66.9379 50.5812C68.2345 51.51 70.3463 53.2329 71.5166 54.3171L78.2596 60.5516C78.6589 60.9218 78.8599 61.4221 78.8615 61.936ZM86.1261 46.4897L77.1431 56.4227L73.0647 52.6527C71.7872 51.4734 69.6806 49.7536 68.2676 48.7387L62.4434 44.562C61.456 43.8625 60.247 43.56 59.0517 43.5556C58.0345 43.5586 57.0098 43.7803 56.1252 44.307L54.0209 45.5716C53.6981 45.7657 53.3176 45.8647 52.9222 45.8655C52.2156 45.8679 51.5084 45.5381 51.1141 45.0013L50.6505 44.3771L50.6489 44.3756C50.4023 44.0429 50.2874 43.6698 50.2857 43.2922C50.2887 42.7211 50.5521 42.1669 51.0623 41.8068L57.2885 37.4322C57.8268 37.0425 58.7846 36.7691 59.6943 36.7759C60.3263 36.7729 60.9299 36.9 61.3433 37.1041L66.4121 39.5594C67.2763 39.9744 68.2516 40.1441 69.2328 40.1464C70.4935 40.1403 71.768 39.8663 72.818 39.2214L77.9958 36.0003C78.3262 35.7941 78.7229 35.6874 79.1364 35.6874C79.8353 35.686 80.5357 36.0027 80.9323 36.5195L86.241 43.3122C86.5471 43.7012 86.7244 44.2501 86.7244 44.8189C86.7253 45.455 86.5006 46.0809 86.1261 46.4897Z" fill="#BF5C7A" stroke="#BF5C7A"/>
</svg>
