<svg width="110" height="110" viewBox="0 0 110 110" fill="none" xmlns="http://www.w3.org/2000/svg">
<path fill-rule="evenodd" clip-rule="evenodd" d="M76.5152 57.665C76.5152 60.8601 73.9466 63.4502 70.7779 63.4502C67.6093 63.4502 65.0406 60.8601 65.0406 57.665C65.0406 54.4699 67.6093 51.8797 70.7779 51.8797C73.9466 51.8797 76.5152 54.4699 76.5152 57.665ZM74.5333 57.665C74.5333 59.781 72.8364 61.4682 70.7779 61.4682C68.7194 61.4682 67.0226 59.781 67.0226 57.665C67.0226 55.5489 68.7194 53.8617 70.7779 53.8617C72.8364 53.8617 74.5333 55.5489 74.5333 57.665Z" fill="#BF5C7A"/>
<path fill-rule="evenodd" clip-rule="evenodd" d="M42.0135 28.1473C42.309 27.75 42.8524 27.6318 43.2863 27.8704L54.2333 33.8914L66.7616 27.8462C67.1375 27.6648 67.5867 27.7384 67.8851 28.0302L75.7739 35.7438C75.844 35.8124 75.9018 35.8888 75.9472 35.9703H78.2883C80.4776 35.9703 82.2523 37.745 82.2523 39.9343V78.2883C82.2523 80.4775 80.4776 82.2523 78.2883 82.2523H31.7118C29.5225 82.2523 27.7478 80.4775 27.7478 78.2883V39.9343C27.7478 37.745 29.5225 35.9703 31.7118 35.9703H36.1949L42.0135 28.1473ZM66.9966 29.9334L73.1706 35.9703H58.013L56.3646 35.0637L66.9966 29.9334ZM43.0882 30.0234L53.9004 35.9703H38.665L43.0882 30.0234ZM78.2883 38.9433H31.7118C31.1645 38.9433 30.7208 39.387 30.7208 39.9343V78.2883C30.7208 78.8356 31.1645 79.2793 31.7118 79.2793H78.2883C78.8357 79.2793 79.2793 78.8356 79.2793 78.2883V67.3338H61.1812V48.7193H79.2793V39.9343C79.2793 39.387 78.8356 38.9433 78.2883 38.9433ZM63.1631 50.7013V65.3518H79.1103V50.7013H63.1631Z" fill="#BF5C7A"/>
</svg>
