<svg width="110" height="110" viewBox="0 0 110 110" fill="none" xmlns="http://www.w3.org/2000/svg">
<path d="M68.4769 68.9422C69.6625 68.9422 70.6236 67.9849 70.6236 66.8039C70.6236 65.623 69.6625 64.6657 68.4769 64.6657C67.2913 64.6657 66.3302 65.623 66.3302 66.8039C66.3302 67.9849 67.2913 68.9422 68.4769 68.9422Z" fill="#BF5C7A"/>
<path d="M44.8635 66.8039C44.8635 67.9849 43.9024 68.9422 42.7168 68.9422C41.5312 68.9422 40.5701 67.9849 40.5701 66.8039C40.5701 65.623 41.5312 64.6657 42.7168 64.6657C43.9024 64.6657 44.8635 65.623 44.8635 66.8039Z" fill="#BF5C7A"/>
<path fill-rule="evenodd" clip-rule="evenodd" d="M64.7389 34.6847H27.7478L27.7702 36.5342C27.8093 39.7658 27.8226 40.868 27.823 41.9702C27.8233 42.5782 27.8199 43.1717 27.8146 44.0755C27.7997 46.6672 27.77 51.81 27.77 67.1604L27.77 68.988H35.5084C35.7253 69.8943 36.1191 70.8824 36.773 71.7871C37.972 73.4457 39.9581 74.69 42.8556 74.69C45.753 74.69 47.7392 73.4457 48.9381 71.7871C49.592 70.8824 49.9858 69.8943 50.2027 68.988H61.2881C61.5111 69.8487 61.9051 70.7819 62.5423 71.6481C63.7239 73.254 65.6595 74.5095 68.4998 74.6863C71.4512 74.8701 73.4905 73.6389 74.7071 71.9264C75.3765 70.9841 75.7696 69.9404 75.9804 68.988H81.5546V55.966L74.3168 43.9504H64.7389V34.6847ZM64.7389 55.5554V47.6057H72.2172L77.0058 55.5554H64.7389ZM64.7389 57.383V67.1604C64.7389 67.7335 64.9391 68.6938 65.5301 69.4972C66.0659 70.2254 66.9925 70.93 68.7319 71.0383C70.3603 71.1396 71.1832 70.5293 71.6838 69.8247C72.2669 69.0039 72.4927 67.9055 72.4927 67.1604L72.4927 65.3327H77.8594V57.383H64.7389ZM61.0437 38.34V65.3327H46.7325V67.1604C46.7325 67.8206 46.5185 68.8499 45.9322 69.661C45.4139 70.3781 44.5379 71.0347 42.8556 71.0347C41.1733 71.0347 40.2972 70.3781 39.7789 69.661C39.1926 68.8499 38.9787 67.8206 38.9787 67.1604V65.3327H31.4653C31.4676 51.4292 31.4956 46.5457 31.5099 44.0528C31.5228 41.8149 31.5245 41.4831 31.4874 38.34H61.0437Z" fill="#BF5C7A"/>
</svg>
