<svg width="35" height="35" viewBox="0 0 35 35" fill="none" xmlns="http://www.w3.org/2000/svg">
<path d="M4.23024 15.0857L2.77596 25.9928C2.69602 26.5923 3.16239 27.125 3.76718 27.125H24.1945C24.8125 27.125 25.2825 26.5701 25.1809 25.9606L23.3636 15.0565C23.2684 14.4851 22.7091 14.1139 22.1456 14.2481L20.1115 14.7324C16.0909 15.6897 11.9041 15.7112 7.87393 14.7952L5.44309 14.2427C4.86958 14.1124 4.30797 14.5027 4.23024 15.0857Z" fill="#F0ACB8"/>
<path fill-rule="evenodd" clip-rule="evenodd" d="M34.7551 18.6429C35.0904 18.9909 35.0801 19.5448 34.7321 19.8801L25.0439 29.2151L19.5179 23.8905C19.1699 23.5552 19.1596 23.0013 19.4949 22.6533C19.8302 22.3053 20.3841 22.295 20.7321 22.6303L25.0439 26.7849L33.5179 18.6199C33.8659 18.2846 34.4198 18.2949 34.7551 18.6429Z" fill="#931E3F"/>
<path fill-rule="evenodd" clip-rule="evenodd" d="M20.6047 10.2083V10.7917H22.3971C23.1146 10.7916 23.7359 10.7916 24.2376 10.8567C24.7768 10.9267 25.2944 11.0841 25.7301 11.485C26.1658 11.8859 26.3656 12.3887 26.4801 12.9202C26.5867 13.4147 26.6383 14.0339 26.6978 14.7489L26.8804 16.9398C26.9187 17.3997 26.5488 17.7921 26.0898 17.8407C25.6155 17.8909 25.176 17.5594 25.1364 17.0841L24.9584 14.9487C24.893 14.1635 24.8492 13.6591 24.7694 13.2889C24.6949 12.9432 24.6118 12.8341 24.5452 12.7728C24.4785 12.7114 24.3629 12.6377 24.0122 12.5922C23.6367 12.5434 23.1304 12.5417 22.3425 12.5417H20.6047V16.0417C20.6047 16.5249 20.2129 16.9167 19.7297 16.9167C19.2464 16.9167 18.8547 16.5249 18.8547 16.0417V12.5417H8.93799L8.93799 16.0417C8.93799 16.5249 8.54624 16.9167 8.06299 16.9167C7.57974 16.9167 7.18799 16.5249 7.18799 16.0417L7.18799 12.5417H5.45007C4.66217 12.5417 4.15585 12.5434 3.78032 12.5922C3.42966 12.6377 3.31401 12.7114 3.24737 12.7728C3.18072 12.8341 3.09762 12.9432 3.02312 13.2889C2.94334 13.6591 2.89957 14.1635 2.83414 14.9487L1.80119 27.344C1.7621 27.8131 1.74232 28.0743 1.75227 28.2567L1.75267 28.2636L1.75956 28.2646C1.9405 28.2897 2.20243 28.2917 2.67317 28.2917H17.8059C18.1787 28.2917 18.4974 28.5605 18.5985 28.9193C18.7518 29.4633 18.3669 30.0417 17.8017 30.0417H2.62283C2.22161 30.0417 1.83529 30.0418 1.51947 29.9981C1.16546 29.949 0.758453 29.8288 0.434427 29.4766C0.110402 29.1245 0.0243327 28.7089 0.00486804 28.352C-0.012498 28.0336 0.0196588 27.6486 0.0530562 27.2488L1.09472 14.7489C1.15426 14.0338 1.20582 13.4147 1.3124 12.9202C1.42695 12.3887 1.62674 11.8859 2.06242 11.485C2.4981 11.0841 3.01576 10.9267 3.55497 10.8567C4.05661 10.7916 4.67791 10.7916 5.39544 10.7917L7.18799 10.7917V10.2083C7.18799 6.50342 10.1914 3.5 13.8963 3.5C17.6012 3.5 20.6047 6.50343 20.6047 10.2083ZM18.8547 10.7917L8.93799 10.7917V10.2083C8.93799 7.46992 11.1579 5.25 13.8963 5.25C16.6347 5.25 18.8547 7.46992 18.8547 10.2083V10.7917Z" fill="#931E3F"/>
</svg>
