<svg width="50" height="50" viewBox="0 0 50 50" fill="none" xmlns="http://www.w3.org/2000/svg">
<path fill-rule="evenodd" clip-rule="evenodd" d="M14.8279 7.98736C14.8279 6.64693 15.9719 5.625 17.3007 5.625C18.6296 5.625 19.7735 6.64693 19.7735 7.98736C19.7735 8.42333 19.6525 8.8256 19.4435 9.16998L24.2841 14.5244C24.5988 14.3874 24.9465 14.3118 25.3079 14.3118C25.933 14.3118 26.5172 14.5379 26.9606 14.917L30.8867 13.0713C30.8576 12.9259 30.8423 12.7753 30.8423 12.6203C30.8423 11.2799 31.9863 10.258 33.3151 10.258C34.0513 10.258 34.7308 10.5716 35.1904 11.0794L38.9329 9.75984C38.8786 9.5651 38.8495 9.3594 38.8495 9.1456C38.8495 7.80517 39.9935 6.78324 41.3223 6.78324C42.6512 6.78324 43.7951 7.80517 43.7951 9.1456C43.7951 10.486 42.6512 11.508 41.3223 11.508C40.6674 11.508 40.0574 11.2598 39.6071 10.8475L35.7508 12.2072C35.7752 12.3408 35.7879 12.4788 35.7879 12.6203C35.7879 13.9608 34.644 14.9827 33.3151 14.9827C32.5895 14.9827 31.919 14.678 31.4598 14.1831L27.6687 15.9653C27.7413 16.1876 27.7807 16.4254 27.7807 16.6742C27.7807 18.0146 26.6368 19.0365 25.3079 19.0365C23.9791 19.0365 22.8351 18.0146 22.8351 16.6742C22.8351 16.1531 23.0079 15.6802 23.2973 15.2968L18.5378 10.0321C18.1702 10.2351 17.7458 10.3497 17.3007 10.3497C16.7768 10.3497 16.2816 10.1909 15.874 9.91629L11.4424 14.3434C11.6477 14.6855 11.7663 15.0842 11.7663 15.5159C11.7663 16.8564 10.6224 17.8783 9.2935 17.8783C7.96465 17.8783 6.82068 16.8564 6.82068 15.5159C6.82068 14.1755 7.96465 13.1536 9.2935 13.1536C9.74285 13.1536 10.1711 13.2704 10.541 13.4769L15.0506 8.97193C14.9081 8.67477 14.8279 8.34223 14.8279 7.98736ZM17.3007 6.875C16.5885 6.875 16.0779 7.40876 16.0779 7.98736C16.0779 8.56597 16.5885 9.09973 17.3007 9.09973C18.0129 9.09973 18.5235 8.56597 18.5235 7.98736C18.5235 7.40876 18.0129 6.875 17.3007 6.875ZM8.07068 15.5159C8.07068 14.9373 8.5813 14.4036 9.2935 14.4036C10.0057 14.4036 10.5163 14.9373 10.5163 15.5159C10.5163 16.0945 10.0057 16.6283 9.2935 16.6283C8.5813 16.6283 8.07068 16.0945 8.07068 15.5159ZM25.3079 15.5618C24.5957 15.5618 24.0851 16.0956 24.0851 16.6742C24.0851 17.2528 24.5957 17.7865 25.3079 17.7865C26.0201 17.7865 26.5307 17.2528 26.5307 16.6742C26.5307 16.0956 26.0201 15.5618 25.3079 15.5618ZM32.0923 12.6203C32.0923 12.0417 32.6029 11.508 33.3151 11.508C34.0273 11.508 34.5379 12.0417 34.5379 12.6203C34.5379 13.1989 34.0273 13.7327 33.3151 13.7327C32.6029 13.7327 32.0923 13.1989 32.0923 12.6203ZM41.3223 8.03324C40.6101 8.03324 40.0995 8.56699 40.0995 9.1456C40.0995 9.72421 40.6101 10.258 41.3223 10.258C42.0345 10.258 42.5451 9.72421 42.5451 9.1456C42.5451 8.56699 42.0345 8.03324 41.3223 8.03324Z" fill="#931E3F"/>
<path fill-rule="evenodd" clip-rule="evenodd" d="M14.2212 42.6888V18.4115H19.7647V42.6888H22.2284V29.4148H27.7719V42.6888H30.2356V24.7819H35.7791V42.6888H38.2428V19.5698H43.7863V42.6888H46.25V43.9388H3.75V42.6888H6.21399V23.0445H11.7575V42.6888H14.2212ZM15.4712 19.6615H18.5147V42.6429H15.4712V19.6615ZM10.5075 24.2945H7.46399V42.6429H10.5075V24.2945ZM26.5219 30.6648H23.4784V42.6428H26.5219V30.6648ZM31.4856 26.0319H34.5291V42.6428H31.4856V26.0319ZM42.5363 20.8198H39.4928V42.6429H42.5363V20.8198Z" fill="#931E3F"/>
</svg>
