<svg width="111" height="111" viewBox="0 0 111 111" fill="none" xmlns="http://www.w3.org/2000/svg">
<circle cx="55.5" cy="55.5" r="55.5" fill="#FFF1F6"/>
<path d="M20 64.688H33.7428C32.8293 65.9095 32.2775 67.404 32.2775 69.0541H25.5077L20 67.6592V64.688ZM90 56.9052V69.055H84.1667C84.1667 68.8816 84.1438 68.718 84.1297 68.5446C84.0663 67.5509 83.7926 66.6031 83.3596 65.7458C82.1521 63.3854 79.7054 61.7713 76.875 61.7713C72.8468 61.7713 69.5789 65.0347 69.5789 69.0541H46.8564C46.8564 67.404 46.3072 65.9095 45.3866 64.688H67.1138V39.4025H79.3006V42.3183L83.188 53.985L90 56.9052ZM80.2696 53.9859L77.3617 45.2359H70.5541V53.9859H80.2696ZM44.9105 69.0541C44.9105 72.0069 42.5184 74.4043 39.5718 74.4043C36.6137 74.4043 34.2234 71.9981 34.2234 69.0541C34.2234 66.1146 36.6181 63.7137 39.5718 63.7137C42.5175 63.7137 44.9105 66.1102 44.9105 69.0541ZM42.4832 69.0541C42.4832 67.4506 41.1727 66.1375 39.5709 66.1375C37.9533 66.1375 36.6401 67.4506 36.6401 69.0541C36.6401 70.6771 37.9524 71.9699 39.5709 71.9699C41.1736 71.9708 42.4832 70.6771 42.4832 69.0541ZM82.2208 69.0541C82.2208 72.0069 79.819 74.4043 76.875 74.4043C73.9038 74.4043 71.5248 71.9981 71.5248 69.0541C71.5248 66.1146 73.9222 63.7137 76.875 63.7137C79.819 63.7137 82.2208 66.1102 82.2208 69.0541ZM79.7925 69.0541C79.7925 67.4506 78.4847 66.1375 76.8759 66.1375C75.2486 66.1375 73.9601 67.4506 73.9601 69.0541C73.9601 70.6771 75.2494 71.9699 76.8759 71.9699C78.4838 71.9708 79.7925 70.6771 79.7925 69.0541ZM64.6072 35.5952H20V63.0114H64.6072V35.5952Z" fill="#BF5C7A"/>
</svg>
