<svg width="20" height="24" viewBox="0 0 20 24" fill="none" xmlns="http://www.w3.org/2000/svg">
<path d="M3.46754 7.75003C0.904088 10.1347 7.29954e-06 12.5789 0 14.9039C-7.29941e-06 17.2289 0.635815 21.8193 6.98486 23.6078C13.3339 25.3963 17.3182 20.627 18.0734 18.1828C18.0734 18.1828 17.1195 19.3155 16.5234 18.6001C15.9272 17.8847 18.7291 15.6789 19.2657 12.6981C19.8022 9.71735 17.2984 7.57119 17.2984 7.75003C18.133 9.83658 17.1791 11.6847 16.2849 11.2674C15.3907 10.85 15.6291 8.46542 15.7484 8.16734C16.0107 7.51157 16.3445 5.24618 15.2118 2.86155C14.3057 0.95385 12.2112 0.158975 11.2772 0C11.2772 0 12.9464 1.1327 12.5291 3.51732C12.1118 5.90195 9.30987 6.61734 8.77333 5.90195C8.23679 5.18656 9.07142 4.76925 9.30987 4.23271C9.54833 3.69617 9.13102 2.96091 8.77333 2.62309C9.01179 4.76925 6.03099 5.36541 3.46754 7.75003Z" fill="#EB5400"/>
<path d="M14.3668 18.958H7.41815V17.4307L10.6189 14.015C11.4077 13.1033 11.8021 12.3789 11.8021 11.8421C11.8021 11.407 11.7087 11.0761 11.5217 10.8493C11.3348 10.6225 11.0635 10.5091 10.7078 10.5091C10.3568 10.5091 10.0718 10.6619 9.85293 10.9673C9.63407 11.2682 9.52465 11.6454 9.52465 12.0989H7.21297C7.21297 11.4787 7.36572 10.9071 7.6712 10.3842C7.97669 9.85654 8.40073 9.44462 8.94331 9.14841C9.48589 8.85221 10.0923 8.7041 10.7626 8.7041C11.8386 8.7041 12.6662 8.95634 13.2452 9.46082C13.8288 9.9653 14.1206 10.6896 14.1206 11.6338C14.1206 12.0318 14.0477 12.4206 13.9018 12.8001C13.7559 13.175 13.5279 13.5707 13.2179 13.9873C12.9124 14.3992 12.4177 14.9522 11.7337 15.6465L10.4479 17.153H14.3668V18.958Z" fill="white"/>
<path d="M4.11502 14.0922L4.76113 12.8772H6.20151L5.02863 15.0259L6.25912 17.2888H4.81051L4.1109 15.984L3.42364 17.2888H1.9668L3.20141 15.0259L2.03264 12.8772H3.48948L4.11502 14.0922Z" fill="white"/>
</svg>
