<svg width="112" height="111" viewBox="0 0 112 111" fill="none" xmlns="http://www.w3.org/2000/svg">
<circle cx="56" cy="55.5" r="55.5" fill="#FFF1F6"/>
<path d="M69.3832 40.6984C64.079 40.6984 59.064 39.7751 55.2622 38.0985C54.1244 37.5967 53.124 37.0376 52.2665 36.4316V40.1832C52.2665 41.6078 53.9346 43.1939 56.7287 44.426C60.0788 45.9034 64.5729 46.717 69.3833 46.717C74.1936 46.717 78.6877 45.9034 82.0378 44.426C84.8319 43.1939 86.5 41.6078 86.5 40.1832V36.4316C85.6425 37.0376 84.6421 37.5967 83.5043 38.0985C79.7022 39.7751 74.6874 40.6984 69.3832 40.6984Z" fill="#BF5C7A"/>
<path d="M69.3832 75.6655C74.1936 75.6655 78.6876 74.8519 82.0377 73.3745C84.8318 72.1424 86.4999 70.5563 86.4999 69.1318V65.3801C85.6424 65.9861 84.642 66.5452 83.5042 67.047C79.7023 68.7236 74.6874 69.6468 69.3832 69.6468C67.2261 69.6468 65.1308 69.4954 63.1251 69.1995C63.0597 71.2147 62.7104 73.1592 62.1163 74.9948C64.3893 75.4353 66.8641 75.6655 69.3832 75.6655Z" fill="#BF5C7A"/>
<path d="M57.824 54.5167C61.0249 55.7101 65.1077 56.3663 69.3832 56.3663C74.1936 56.3663 78.6876 55.5527 82.0377 54.0754C84.8318 52.8432 86.4999 51.2572 86.4999 49.8327V46.081C85.6424 46.687 84.642 47.2462 83.5042 47.7479C79.7023 49.4245 74.6874 50.3477 69.3832 50.3477C64.0791 50.3477 59.0641 49.4245 55.2622 47.7479C54.1244 47.2461 53.124 46.687 52.2665 46.081V50.0459C54.3639 51.2157 56.2423 52.7318 57.824 54.5167Z" fill="#BF5C7A"/>
<path d="M69.3832 66.0159C74.1936 66.0159 78.6876 65.2023 82.0377 63.7249C84.8318 62.4928 86.4999 60.9068 86.4999 59.4823V55.7306C85.6424 56.3366 84.642 56.8956 83.5042 57.3975C79.7023 59.074 74.6874 59.9973 69.3832 59.9973C66.4465 59.9973 63.5758 59.7077 60.9549 59.1643C61.9246 61.1217 62.5995 63.2496 62.9214 65.4902C64.9698 65.8375 67.1362 66.0159 69.3832 66.0159Z" fill="#BF5C7A"/>
<path d="M56.7287 34.7764C60.0788 36.2538 64.5729 37.0674 69.3833 37.0674C74.1937 37.0674 78.6877 36.2538 82.0378 34.7764C84.8319 33.5443 86.5 31.9582 86.5 30.5337C86.5 29.1093 84.8319 27.5231 82.0378 26.291C78.6877 24.8136 74.1935 24 69.3833 24C64.573 24 60.0788 24.8136 56.7287 26.291C53.9346 27.5231 52.2665 29.1092 52.2665 30.5337C52.2665 31.9583 53.9346 33.5443 56.7287 34.7764Z" fill="#BF5C7A"/>
<path d="M44.9833 61.2181H41.2799V67.1518H44.9833C46.6222 67.1518 47.9556 65.8208 47.9556 64.185C47.9556 62.5491 46.6222 61.2181 44.9833 61.2181Z" fill="#BF5C7A"/>
<path fill-rule="evenodd" clip-rule="evenodd" d="M59.5047 68.5065C59.5047 58.8606 51.6532 51.013 42.0024 51.013C32.3516 51.013 24.5 58.8606 24.5 68.5065C24.5 78.1524 32.3516 86 42.0024 86C51.6532 86 59.5047 78.1524 59.5047 68.5065ZM52.2445 64.185C52.2445 68.1875 49.0004 71.4324 44.9833 71.4324H41.2799V72.9885H45.7143C45.9116 72.9885 46.0891 73.0718 46.2134 73.2051C46.3272 73.3268 46.3968 73.4901 46.3968 73.6697V76.588C46.3968 76.9641 46.0914 77.2692 45.7143 77.2692H41.2799V79.5064C41.2799 79.7235 41.178 79.917 41.0193 80.0417C40.9032 80.1331 40.7567 80.1875 40.5973 80.1875H37.6735C37.2968 80.1875 36.9913 79.8825 36.9913 79.5064V77.2692H35.4807C35.1037 77.2692 34.7982 76.9642 34.7982 76.588V73.6697C34.7982 73.2935 35.1037 72.9885 35.4807 72.9885H36.9913V71.4324H35.4807C35.1037 71.4324 34.7982 71.1275 34.7982 70.7514V67.8328C34.7982 67.4567 35.1037 67.1518 35.4807 67.1518H36.9913V57.6187C36.9913 57.2426 37.2968 56.9375 37.6735 56.9375H44.9833C48.9872 56.9375 52.2445 60.1888 52.2445 64.185Z" fill="#BF5C7A"/>
</svg>
