<svg width="111" height="111" viewBox="0 0 111 111" fill="none" xmlns="http://www.w3.org/2000/svg">
<circle cx="55.5" cy="55.5" r="55.5" fill="#FFF1F6"/>
<path d="M80.4084 38.02H76.3274C76.8657 37.1564 77.2209 36.187 77.3222 35.1618C77.6458 31.8854 75.9436 28.9483 73.0456 27.6461C70.3819 26.4492 67.3885 26.9385 65.2329 28.9203L60.0798 33.6545C59.0762 32.5419 57.6335 31.8426 56.0324 31.8426C54.4284 31.8426 52.9834 32.5441 51.9796 33.6602L46.8199 28.9198C44.6609 26.938 41.6686 26.4505 39.0061 27.6468C36.1089 28.9491 34.4064 31.8872 34.7309 35.1635C34.8325 36.1879 35.1875 37.1569 35.7257 38.02H31.6564C29.6369 38.02 28 39.6795 28 41.7265V47.2862C28 48.3096 28.8185 49.1395 29.8282 49.1395H82.2366C83.2462 49.1395 84.0649 48.3097 84.0649 47.2862V41.7265C84.0648 39.6795 82.4278 38.02 80.4084 38.02ZM50.5478 37.4023V38.02H41.9472C39.6748 38.02 37.8865 35.8726 38.454 33.4743C38.704 32.4181 39.456 31.5178 40.4287 31.062C41.7644 30.4362 43.244 30.6371 44.3659 31.6664L50.5493 37.3477C50.549 37.366 50.5478 37.384 50.5478 37.4023ZM73.6943 34.6698C73.5581 36.596 71.8417 38.0202 69.9367 38.0202H61.517V37.4025C61.517 37.3806 61.5157 37.359 61.5154 37.3371C62.9162 36.05 65.955 33.2581 67.6031 31.7437C68.5397 30.8831 69.8504 30.4813 71.0619 30.8477C72.8004 31.3734 73.8214 32.8721 73.6943 34.6698Z" fill="#BF5C7A"/>
<path d="M31.6564 52.8459V80.0269C31.6564 82.074 33.2933 83.7333 35.3127 83.7333H52.3759V52.8459H31.6564Z" fill="#BF5C7A"/>
<path d="M59.6887 52.8459V83.7333H76.7519C78.7713 83.7333 80.4083 82.074 80.4083 80.0269V52.8459H59.6887Z" fill="#BF5C7A"/>
<path d="M80.4084 38.02H76.3274C76.8657 37.1564 77.2209 36.187 77.3222 35.1618C77.6458 31.8854 75.9436 28.9483 73.0456 27.6461C70.3819 26.4492 67.3885 26.9385 65.2329 28.9203L60.0798 33.6545C59.0762 32.5419 57.6335 31.8426 56.0324 31.8426C54.4284 31.8426 52.9834 32.5441 51.9796 33.6602L46.8199 28.9198C44.6609 26.938 41.6686 26.4505 39.0061 27.6468C36.1089 28.9491 34.4064 31.8872 34.7309 35.1635C34.8325 36.1879 35.1875 37.1569 35.7257 38.02H31.6564C29.6369 38.02 28 39.6795 28 41.7265V47.2862C28 48.3096 28.8185 49.1395 29.8282 49.1395H82.2366C83.2462 49.1395 84.0649 48.3097 84.0649 47.2862V41.7265C84.0648 39.6795 82.4278 38.02 80.4084 38.02ZM50.5478 37.4023V38.02H41.9472C39.6748 38.02 37.8865 35.8726 38.454 33.4743C38.704 32.4181 39.456 31.5178 40.4287 31.062C41.7644 30.4362 43.244 30.6371 44.3659 31.6664L50.5493 37.3477C50.549 37.366 50.5478 37.384 50.5478 37.4023ZM73.6943 34.6698C73.5581 36.596 71.8417 38.0202 69.9367 38.0202H61.517V37.4025C61.517 37.3806 61.5157 37.359 61.5154 37.3371C62.9162 36.05 65.955 33.2581 67.6031 31.7437C68.5397 30.8831 69.8504 30.4813 71.0619 30.8477C72.8004 31.3734 73.8214 32.8721 73.6943 34.6698Z" fill="#BF5C7A"/>
<path d="M31.6564 52.8459V80.0269C31.6564 82.074 33.2933 83.7333 35.3127 83.7333H52.3759V52.8459H31.6564Z" fill="#BF5C7A"/>
<path d="M59.6887 52.8459V83.7333H76.7519C78.7713 83.7333 80.4083 82.074 80.4083 80.0269V52.8459H59.6887Z" fill="#BF5C7A"/>
</svg>
