<svg width="23" height="23" viewBox="0 0 23 23" fill="none" xmlns="http://www.w3.org/2000/svg">
<path fill-rule="evenodd" clip-rule="evenodd" d="M3.36538 2.875H0V7.1875H22.1154V2.875H20.1923V1.67708C20.1923 0.750856 19.4389 0 18.5096 0C17.5803 0 16.8269 0.750856 16.8269 1.67708V2.875H6.73077V1.67708C6.73077 0.750856 5.9774 0 5.04808 0C4.11875 0 3.36538 0.750856 3.36538 1.67708V2.875ZM5.76923 2.875V1.67708C5.76923 1.28013 5.44636 0.958333 5.04808 0.958333C4.6498 0.958333 4.32692 1.28013 4.32692 1.67708V2.875H5.76923ZM19.2308 1.67708V2.875H17.7885V1.67708C17.7885 1.28013 18.1113 0.958333 18.5096 0.958333C18.9079 0.958333 19.2308 1.28013 19.2308 1.67708Z" fill="#931E3F"/>
<path fill-rule="evenodd" clip-rule="evenodd" d="M22.1154 8.625H0V23H22.1154V8.625ZM6.52681 11.0208H3.84615V13.6926H6.52681V11.0208ZM3.84615 14.3605H6.52681V17.0322H3.84615V14.3605ZM6.52681 17.7001H3.84615V20.3718H6.52681V17.7001ZM7.86713 11.0208H10.5478V13.6926H7.86713V11.0208ZM10.5478 14.3605H7.86713V17.0322H10.5478V14.3605ZM7.86713 17.7001H10.5478V20.3718H7.86713V17.7001ZM14.5688 11.0208H11.8881V13.6926H14.5688V11.0208ZM11.8881 14.3605H14.5688V17.0322H11.8881V14.3605ZM14.5688 17.7001H11.8881V20.3718H14.5688V17.7001ZM15.9091 11.0208H18.5897V13.6926H15.9091V11.0208ZM18.5897 14.3605H15.9091V17.0322H18.5897V14.3605ZM15.9091 17.7001H18.5897V20.3718H15.9091V17.7001Z" fill="#931E3F"/>
</svg>
