<svg width="30" height="30" viewBox="0 0 30 30" fill="none" xmlns="http://www.w3.org/2000/svg">
<path fill-rule="evenodd" clip-rule="evenodd" d="M23.1792 4.0935L19.8503 2.12027L18.7352 4.00147L22.0642 5.9747L23.1792 4.0935ZM22.9244 6.4846L24.0395 4.6034C24.3211 4.1283 24.1642 3.51487 23.6891 3.23326L20.3602 1.26004C19.8851 0.97843 19.2717 1.13528 18.99 1.61037L6.68274 22.3736L6.79547 27.5246L6.82158 28.7174L7.8071 28.0449L11.7322 25.3666L12.0372 24.8519C12.0152 24.9445 11.9829 25.028 11.9401 25.1001L22.9614 6.50653L22.9244 6.4846ZM11.7559 23.3653C11.4864 22.8431 11.0429 22.3248 10.4195 21.9553C9.73923 21.5521 9.05081 21.3468 8.45231 21.3493L7.68875 22.6375L7.72944 24.4968C8.21014 24.8845 8.86412 25.395 9.25178 25.6271L9.42476 25.7305L10.9851 24.6657L11.7559 23.3653Z" fill="#23A104"/>
</svg>
