<svg width="27" height="27" viewBox="0 0 27 27" fill="none" xmlns="http://www.w3.org/2000/svg">
<ellipse cx="13.5" cy="13.3937" rx="13.5" ry="13.3937" fill="#931E3F"/>
<path d="M13.8364 17.2226H11.6908C11.6985 16.4902 11.7639 15.8912 11.8869 15.4258C12.0176 14.9527 12.2291 14.5217 12.5214 14.1325C12.8136 13.7434 13.202 13.3009 13.6865 12.8049C14.0402 12.4463 14.3632 12.1106 14.6555 11.7978C14.9554 11.4773 15.1976 11.134 15.3822 10.7678C15.5668 10.3939 15.6591 9.94755 15.6591 9.42871C15.6591 8.90225 15.5629 8.44828 15.3707 8.06678C15.1861 7.68529 14.9092 7.39154 14.5401 7.18553C14.1787 6.97952 13.7288 6.87652 13.1904 6.87652C12.7444 6.87652 12.3214 6.95663 11.9215 7.11686C11.5216 7.27709 11.1986 7.52506 10.9525 7.86077C10.7064 8.18886 10.5795 8.61995 10.5718 9.15404H8.43774C8.45313 8.29186 8.66846 7.55176 9.08374 6.93374C9.50671 6.31572 10.0758 5.84267 10.791 5.51459C11.5062 5.1865 12.306 5.02246 13.1904 5.02246C14.1671 5.02246 14.9977 5.19795 15.6821 5.54892C16.3743 5.8999 16.9011 6.40347 17.2625 7.05964C17.624 7.70818 17.8047 8.47879 17.8047 9.37149C17.8047 10.0582 17.6624 10.6915 17.3779 11.2713C17.101 11.8436 16.7434 12.3815 16.3051 12.885C15.8667 13.3886 15.4014 13.8693 14.9092 14.3271C14.4863 14.7162 14.2017 15.1549 14.0556 15.6432C13.9095 16.1316 13.8364 16.658 13.8364 17.2226ZM11.5985 20.8506C11.5985 20.5073 11.7062 20.2174 11.9215 19.9808C12.1368 19.7443 12.4483 19.626 12.8559 19.626C13.2712 19.626 13.5865 19.7443 13.8018 19.9808C14.0172 20.2174 14.1248 20.5073 14.1248 20.8506C14.1248 21.1787 14.0172 21.461 13.8018 21.6976C13.5865 21.9341 13.2712 22.0523 12.8559 22.0523C12.4483 22.0523 12.1368 21.9341 11.9215 21.6976C11.7062 21.461 11.5985 21.1787 11.5985 20.8506Z" fill="white"/>
</svg>
