<svg width="80" height="80" viewBox="0 0 80 80" fill="none" xmlns="http://www.w3.org/2000/svg">
<rect x="0.5" y="0.5" width="79" height="79" fill="white" stroke="#B9B9B9"/>
<path d="M62.5952 24.8549H52.1697L49.5974 19.8141C49.3415 19.3165 48.8281 19 48.2646 19H31.8259C31.2642 19 30.7508 19.3156 30.4949 19.8141L27.9209 24.8549H17.4954C16.6699 24.8549 16 25.5231 16 26.3486V59.2453C16 60.0708 16.6699 60.7389 17.4954 60.7389H62.5952C63.2893 60.7389 64.0888 60 64.0888 59.2453V26.3477C64.0888 25.5231 63.4215 24.8549 62.5952 24.8549ZM32.7411 21.9899H47.3495L48.8123 24.8558H31.2782L32.7411 21.9899ZM61.0998 57.5L18.9899 57.7517V27.8431H28.8369H51.2545H61.0998V57.5Z" fill="#7F203B"/>
<path d="M40.0466 29.7812C32.8712 29.7812 27.0312 35.6212 27.0312 42.7966C27.0312 49.9738 32.8712 55.812 40.0466 55.812C47.2238 55.812 53.062 49.9738 53.062 42.7966C53.0611 35.6212 47.2238 29.7812 40.0466 29.7812ZM40.0466 52.8221C34.5178 52.8221 30.0211 48.3254 30.0211 42.7966C30.0211 37.2696 34.5178 32.7711 40.0466 32.7711C45.5754 32.7711 50.0739 37.2696 50.0739 42.7966C50.0739 48.3254 45.5754 52.8221 40.0466 52.8221Z" fill="#7F203B"/>
<path d="M40.0458 35.3242C35.9262 35.3242 32.5732 38.6763 32.5732 42.7967C32.5732 46.9172 35.9262 50.2693 40.0458 50.2693C44.1671 50.2693 47.5183 46.9172 47.5183 42.7967C47.5183 38.6763 44.1662 35.3242 40.0458 35.3242ZM40.0458 47.2811C37.5728 47.2811 35.5623 45.2688 35.5623 42.7959C35.5623 40.3247 37.5728 38.3106 40.0458 38.3106C42.5187 38.3106 44.5293 40.3247 44.5293 42.7959C44.5284 45.2688 42.5179 47.2811 40.0458 47.2811Z" fill="#7F203B"/>
<path d="M55.8694 33.2175C56.2571 33.2175 56.6457 33.054 56.9147 32.7691C57.1978 32.501 57.363 32.1133 57.363 31.7239C57.363 31.3204 57.1978 30.9458 56.9147 30.6628C56.3617 30.1098 55.3604 30.1098 54.8083 30.6628C54.5235 30.9458 54.374 31.3362 54.374 31.7239C54.374 32.1133 54.5235 32.5019 54.8083 32.785C55.0756 33.0549 55.4641 33.2175 55.8694 33.2175Z" fill="#7F203B"/>
</svg>
