<svg width="40" height="40" viewBox="0 0 40 40" fill="none" xmlns="http://www.w3.org/2000/svg">
<ellipse cx="16.4322" cy="24.1379" rx="15.3794" ry="15.2941" fill="url(#paint0_linear_3368_144996)"/>
<ellipse cx="16.4322" cy="24.1379" rx="15.3794" ry="15.2941" fill="url(#paint1_radial_3368_144996)"/>
<ellipse cx="16.4322" cy="24.1379" rx="15.3794" ry="15.2941" fill="url(#paint2_radial_3368_144996)" fill-opacity="0.35"/>
<path fill-rule="evenodd" clip-rule="evenodd" d="M18.2352 4.02939C19.4417 3.66583 20.2604 2.95817 20.2604 2.14473C20.2604 0.960228 18.5244 0 16.3829 0C14.2415 0 12.5055 0.960228 12.5055 2.14473C12.5055 2.96697 13.342 3.68113 14.5699 4.04106C14.6185 4.14985 14.6605 4.26076 14.6961 4.37324C13.0023 4.5244 12.8328 4.85756 12.8328 4.85756C14.0051 6.0998 14.0191 8.03659 12.8648 9.29564L12.8328 9.33063C12.8328 9.33063 14.3946 8.84382 16.4322 8.84382C17.0153 8.84382 17.5661 8.88368 18.0554 8.9406C25.3383 10.0501 30.9116 16.2137 30.9116 23.6511C30.9116 31.8738 24.0993 38.5396 15.6958 38.5396C11.2592 38.5396 7.26615 36.6816 4.48486 33.7175C7.41586 37.5311 12.0976 40 17.3728 40C26.2507 40 33.4476 33.0073 33.4476 24.3813C33.4476 17.5286 28.9054 11.7066 22.5867 9.60256L22.5053 9.57014C22.115 9.41463 21.661 9.23376 20.9723 9.00608C19.829 8.62808 19.3355 7.81958 19.3297 6.79945C19.3874 6.10662 19.6489 5.42755 20.1134 4.85756C20.1134 4.85756 20.1134 4.47538 18.1269 4.34396C18.1579 4.23784 18.194 4.13286 18.2352 4.02939ZM37.6055 9.84001C36.5794 11.677 33.1268 11.7261 29.8939 9.9497C26.6609 8.17334 24.8719 5.24417 25.8979 3.40722C26.924 1.57027 30.3766 1.52116 33.6095 3.29752C36.8425 5.07389 38.6315 8.00306 37.6055 9.84001Z" fill="#7F203B"/>
<defs>
<linearGradient id="paint0_linear_3368_144996" x1="16.5975" y1="10.4883" x2="16.5975" y2="38.1164" gradientUnits="userSpaceOnUse">
<stop stop-color="#FFEEE7"/>
<stop offset="0.644966" stop-color="#F18D8B"/>
<stop offset="1" stop-color="#D76C80"/>
</linearGradient>
<radialGradient id="paint1_radial_3368_144996" cx="0" cy="0" r="1" gradientUnits="userSpaceOnUse" gradientTransform="translate(12.1067 13.0947) rotate(41.433) scale(6.86548 7.46533)">
<stop stop-color="white"/>
<stop offset="1" stop-color="white" stop-opacity="0"/>
</radialGradient>
<radialGradient id="paint2_radial_3368_144996" cx="0" cy="0" r="1" gradientUnits="userSpaceOnUse" gradientTransform="translate(26.4894 35.2261) rotate(-134.66) scale(15.5889 13.2202)">
<stop stop-color="#B43346"/>
<stop offset="1" stop-color="#C2475A" stop-opacity="0"/>
</radialGradient>
</defs>
</svg>
