<svg width="110" height="110" viewBox="0 0 110 110" fill="none" xmlns="http://www.w3.org/2000/svg">
<path d="M32.2058 90.0003V21.458H39.3861C39.3861 21.458 39.6105 25.1299 42.9763 25.1299C46.3421 25.1299 46.5665 21.458 46.5665 21.458H52.4005C52.4005 21.458 52.4005 25.1299 55.9907 25.1299C59.5808 25.1299 59.3565 21.458 59.3565 21.458H64.9661C64.9661 21.458 64.7417 25.1299 68.5563 25.1299C72.3708 25.1299 71.6977 21.458 71.6977 21.458H79.9999V90.0003H32.2058Z" fill="#6DABCC"/>
<path d="M30 88.5423V20H37.1803C37.1803 20 37.4047 23.6719 40.7705 23.6719C44.1363 23.6719 44.3607 20 44.3607 20H50.1947C50.1947 20 50.1947 23.6719 53.7849 23.6719C57.375 23.6719 57.1507 20 57.1507 20H62.7603C62.7603 20 62.5359 23.6719 66.3505 23.6719C70.165 23.6719 69.4919 20 69.4919 20H77.7941V88.5423H30Z" fill="#EEF9FF"/>
<path d="M77.7941 25.1055H30V88.5436H77.7941V25.1055Z" fill="#EEF9FF"/>
<path d="M74.188 30.5381H33.6074V31.9926H74.188V30.5381Z" fill="#2E78A0"/>
<path d="M74.188 34.291H33.6074V35.7456H74.188V34.291Z" fill="#2E78A0"/>
<path d="M74.188 38.0439H33.6074V39.4985H74.188V38.0439Z" fill="#2E78A0"/>
<path d="M74.188 41.7969H33.6074V43.2493H74.188V41.7969Z" fill="#2E78A0"/>
<path d="M74.188 45.5479H33.6074V47.0066H74.188V45.5479Z" fill="#2E78A0"/>
<path d="M59.7355 49.3047H33.6074V50.7634H59.7355V49.3047Z" fill="#2E78A0"/>
<path d="M59.7355 53.0596H33.6074V54.5183H59.7355V53.0596Z" fill="#2E78A0"/>
<path d="M70.8044 60.5684H33.6074V62.0229H70.8044V60.5684Z" fill="#2E78A0"/>
<path d="M70.8044 68.0742H33.6074V69.5309H70.8044V68.0742Z" fill="#2E78A0"/>
<path d="M70.8044 75.582H33.6074V77.0408H70.8044V75.582Z" fill="#2E78A0"/>
<path d="M70.8044 83.0898H33.6074V84.5486H70.8044V83.0898Z" fill="#2E78A0"/>
<path d="M70.8044 79.3389H33.6074V80.7913H70.8044V79.3389Z" fill="#2E78A0"/>
<path d="M70.8044 71.8271H33.6074V73.2859H70.8044V71.8271Z" fill="#2E78A0"/>
<path d="M70.8044 64.3213H33.6074V65.7779H70.8044V64.3213Z" fill="#2E78A0"/>
<path d="M70.8044 56.8125H33.6074V58.2712H70.8044V56.8125Z" fill="#2E78A0"/>
</svg>
