<svg width="110" height="110" viewBox="0 0 110 110" fill="none" xmlns="http://www.w3.org/2000/svg">
<path d="M30.3486 48.3261C30.3486 45.5237 32.5595 43.252 35.2868 43.252H93.3479C96.0751 43.252 98.2861 45.5237 98.2861 48.3261V84.8312C98.2861 87.6336 96.0751 89.9053 93.3479 89.9053H35.2868C32.5595 89.9053 30.3486 87.6336 30.3486 84.8312V48.3261Z" fill="#FAD323"/>
<path d="M30.3486 69.209H98.3437V80.5281H30.3486V69.209Z" fill="#363947"/>
<mask id="mask0_3318_139293" style="mask-type:alpha" maskUnits="userSpaceOnUse" x="30" y="43" width="69" height="47">
<path d="M30.3486 48.3261C30.3486 45.5237 32.5595 43.252 35.2868 43.252H93.3479C96.0751 43.252 98.2861 45.5237 98.2861 48.3261V84.8312C98.2861 87.6336 96.0751 89.9053 93.3479 89.9053H35.2868C32.5595 89.9053 30.3486 87.6336 30.3486 84.8312V48.3261Z" fill="#FAD323"/>
<path d="M30.3486 69.209H98.3437V80.5281H30.3486V69.209Z" fill="#363947"/>
</mask>
<g mask="url(#mask0_3318_139293)">
<path d="M17.1213 46.0371C16.4972 43.3469 18.1517 40.6091 20.8168 39.922L77.5535 25.2959C80.2186 24.6089 82.8851 26.2328 83.5092 28.923L91.6397 63.9677C92.2638 66.6579 90.6093 69.3957 87.9442 70.0828L31.2075 84.7089C28.5424 85.3959 25.8759 83.772 25.2518 81.0818L17.1213 46.0371Z" fill="black" fill-opacity="0.62"/>
</g>
<path d="M12.4807 42.9844C11.8566 40.2941 13.5111 37.5563 16.1761 36.8693L72.9129 22.2432C75.578 21.5561 78.2444 23.18 78.8686 25.8703L86.999 60.915C87.6232 63.6052 85.9687 66.343 83.3036 67.03L26.5668 81.6562C23.9017 82.3432 21.2353 80.7193 20.6112 78.0291L12.4807 42.9844Z" fill="#236CFA"/>
<path d="M64.334 28.9785L74.2181 26.4286L76.5329 36.4134L66.6488 38.9633L64.334 28.9785Z" fill="#508BFF"/>
<path d="M20.7109 58.0664L32.177 55.126L32.9443 58.4157L21.4782 61.3561L20.7109 58.0664Z" fill="#0E50CF"/>
<path d="M23.5869 70.1445L35.047 67.2112L35.6604 69.8366L24.2004 72.77L23.5869 70.1445Z" fill="#93B7FF"/>
<path d="M37.9619 66.5312L49.422 63.5979L50.0354 66.2233L38.5754 69.1567L37.9619 66.5312Z" fill="#93B7FF"/>
<path d="M24.8652 75.5332L47.7603 69.708L48.3731 72.3148L25.478 78.1401L24.8652 75.5332Z" fill="#93B7FF"/>
<path d="M36.0654 54.209L47.5315 51.2685L48.2988 54.5583L36.8327 57.4987L36.0654 54.209Z" fill="#0E50CF"/>
<path d="M51.4199 50.3496L62.886 47.4092L63.6532 50.6989L52.1871 53.6393L51.4199 50.3496Z" fill="#0E50CF"/>
<path d="M66.7754 46.4902L78.2415 43.5498L79.0087 46.8395L67.5426 49.78L66.7754 46.4902Z" fill="#0E50CF"/>
<g clip-path="url(#clip0_3318_139293)">
<path d="M77.7493 55.1029C77.1201 55.2645 76.5263 55.5501 76.0017 55.9434C75.4772 56.3366 75.0322 56.8298 74.6922 57.3947C74.3521 57.9596 74.1237 58.5853 74.02 59.2359C73.9162 59.8865 73.9392 60.5494 74.0875 61.1866C74.2359 61.8239 74.5067 62.4231 74.8845 62.95C75.2623 63.4768 75.7398 63.9211 76.2895 64.2574C76.8393 64.5937 77.4507 64.8154 78.0888 64.9099C78.7269 65.0044 79.3791 64.9698 80.0083 64.8082C80.6375 64.6465 81.2314 64.3609 81.7559 63.9677C82.2805 63.5744 82.7254 63.0813 83.0655 62.5163C83.4055 61.9514 83.6339 61.3258 83.7377 60.6751C83.8414 60.0245 83.8185 59.3617 83.6701 58.7244C83.5218 58.0871 83.251 57.488 82.8732 56.9611C82.4953 56.4342 82.0179 55.9899 81.4681 55.6536C80.9183 55.3174 80.3069 55.0956 79.6688 55.0011C79.0308 54.9066 78.3785 54.9412 77.7493 55.1029Z" fill="#FF96BD"/>
<path d="M72.2737 56.5091C71.6445 56.6708 71.0507 56.9564 70.5262 57.3496C70.0016 57.7429 69.5566 58.236 69.2166 58.801C68.8766 59.3659 68.6482 59.9915 68.5444 60.6421C68.4407 61.2928 68.4636 61.9556 68.6119 62.5929C68.7603 63.2302 69.0311 63.8293 69.4089 64.3562C69.7867 64.8831 70.2642 65.3274 70.814 65.6636C71.3638 65.9999 71.9751 66.2217 72.6132 66.3162C73.2513 66.4107 73.9035 66.3761 74.5328 66.2144C75.162 66.0528 75.7558 65.7671 76.2803 65.3739C76.8049 64.9807 77.2499 64.4875 77.5899 63.9226C77.9299 63.3577 78.1583 62.732 78.2621 62.0814C78.3658 61.4308 78.3429 60.7679 78.1945 60.1307C78.0462 59.4934 77.7754 58.8942 77.3976 58.3673C77.0198 57.8405 76.5423 57.3962 75.9925 57.0599C75.4427 56.7236 74.8313 56.5019 74.1933 56.4074C73.5552 56.3129 72.9029 56.3474 72.2737 56.5091Z" fill="#FF4B8E"/>
<path d="M74.0873 61.1862C74.471 62.8344 75.6226 64.0795 77.067 64.6378C78.1031 63.4421 78.5778 61.7791 78.1942 60.131C77.8105 58.4828 76.6589 57.2377 75.2145 56.6794C74.1784 57.875 73.7037 59.538 74.0873 61.1862Z" fill="#FF6CA3"/>
</g>
<defs>
<clipPath id="clip0_3318_139293">
<rect width="15.5448" height="15.6562" fill="white" transform="matrix(0.968615 -0.248884 0.226719 0.974036 66.8438 54.9961)"/>
</clipPath>
</defs>
</svg>
