<svg width="110" height="110" viewBox="0 0 110 110" fill="none" xmlns="http://www.w3.org/2000/svg">
<path d="M33.3402 43.1999C28.0385 65.5649 44.0808 71.4592 52.7647 71.6107V65.2467C59.6204 74.3381 65.3335 77.2929 72.6462 77.9747C78.4964 78.5202 84.9865 84.7176 87.5002 87.748C89.8769 90.2937 88.4905 90.1724 87.5002 89.7936C79.8219 82.1568 70.8942 81.0052 67.3902 81.384C56.0555 83.3841 46.5184 82.2174 43.1667 81.384C25.4333 76.2928 21 59.1099 21 51.1549C21.7313 30.2445 37.606 22.138 45.452 20.6985C61.9056 17.2438 73.7888 27.4413 77.6737 32.972C88.46 46.9728 82.7774 61.6859 78.5878 67.2923C78.5878 58.9281 70.361 54.3369 65.3335 53.4278H72.6462C73.1947 42.6999 66.7808 35.9267 63.5053 33.8812C45.9547 24.9715 36.0825 36.3813 33.3402 43.1999Z" fill="#FE8C00"/>
<path d="M67.3902 69.1105C68.9899 68.4287 73.7888 71.6107 71.0466 74.3381C68.3043 75.9291 63.7764 70.6509 67.3902 69.1105Z" fill="#FE8C00"/>
<path d="M74.2456 64.1094C72.4174 64.1094 74.4741 69.337 76.0738 69.1097C77.4449 68.2005 76.4166 64.1094 74.2456 64.1094Z" fill="#FE8C00"/>
</svg>
