<svg width="110" height="110" viewBox="0 0 110 110" fill="none" xmlns="http://www.w3.org/2000/svg">
<mask id="mask0_3318_138242" style="mask-type:alpha" maskUnits="userSpaceOnUse" x="20" y="30" width="69" height="50">
<path d="M20 31.0396C20 30.4654 20.4654 30 21.0396 30H79.6032C84.3878 30 88.2665 33.8787 88.2665 38.6633V70.5441C88.2665 75.3287 84.3878 79.2073 79.6032 79.2073H28.6633C23.8787 79.2073 20 75.3287 20 70.5441V31.0396Z" fill="#A5450B"/>
</mask>
<g mask="url(#mask0_3318_138242)">
<path d="M20 31.0396C20 30.4654 20.4654 30 21.0396 30H79.6032C84.3878 30 88.2665 33.8787 88.2665 38.6633V70.5441C88.2665 75.3287 84.3878 79.2073 79.6032 79.2073H28.6633C23.8787 79.2073 20 75.3287 20 70.5441V31.0396Z" fill="#A5450B"/>
<path d="M80.2967 53.5629C80.2967 32.9442 74.0592 30.9806 71.2869 28.7859C75.2143 26.4179 85.2175 22.8602 88.2669 24.8007C92.0787 27.2265 93.6381 38.662 94.851 40.9144C96.0639 43.1669 95.7173 79.0328 95.8906 81.1119C96.0639 83.1911 85.3214 91.3346 84.4551 91.8544C83.5888 92.3742 58.8118 82.4981 68.688 81.1119C78.5641 79.7258 80.2967 72.7952 80.2967 53.5629Z" fill="#823102"/>
<path d="M5.27368 42.4746L93.6374 79.2043L74.7503 124.643L-13.6134 87.9129L5.27368 42.4746Z" fill="#7B2E00" fill-opacity="0.46"/>
</g>
<mask id="mask1_3318_138242" style="mask-type:alpha" maskUnits="userSpaceOnUse" x="60" y="48" width="30" height="13">
<path d="M60.1985 54.4295C60.1985 51.0803 62.9136 48.3652 66.2628 48.3652H90.0001V60.4938H66.2628C62.9136 60.4938 60.1985 57.7787 60.1985 54.4295Z" fill="#BC581A"/>
</mask>
<g mask="url(#mask1_3318_138242)">
<path d="M60.1985 54.4295C60.1985 51.0803 62.9136 48.3652 66.2628 48.3652H90.0001V60.4938H66.2628C62.9136 60.4938 60.1985 57.7787 60.1985 54.4295Z" fill="#BC581A"/>
<path d="M79.2574 53.5629C79.2574 32.9442 73.0199 30.9806 70.2476 28.7859C74.175 26.4179 84.1782 22.8602 87.2276 24.8007C91.0394 27.2265 92.5988 38.662 93.8117 40.9144C95.0245 43.1669 94.678 79.0328 94.8513 81.1119C95.0245 83.1911 84.2821 91.3346 83.4158 91.8544C82.5495 92.3742 57.7725 82.4981 67.6487 81.1119C77.5248 79.7258 79.2574 72.7952 79.2574 53.5629Z" fill="#A5450B"/>
</g>
<circle cx="66.6077" cy="54.4294" r="3.9851" fill="#511E00"/>
</svg>
