<svg width="110" height="110" viewBox="0 0 110 110" fill="none" xmlns="http://www.w3.org/2000/svg">
<path fill-rule="evenodd" clip-rule="evenodd" d="M77.1072 82.1205C71.0793 87.0458 63.3788 90 54.9886 90C35.6649 90 20 74.33 20 55C20 35.67 35.6649 20 54.9886 20C61.0521 20 66.7553 21.5429 71.7274 24.2576L68.5179 27.4682L63.8527 22.8016L56.3885 29.8016L51.2568 24.6682L36.7949 38.2016L45.6587 48.4682L41.9265 51.7349L51.2568 62.0016L47.9912 65.7349L61.0536 80.6682L68.9844 73.6682L76.4486 82.0682C76.6625 82.0853 76.8822 82.1028 77.1072 82.1205Z" fill="#3368B9"/>
<rect width="11.8794" height="11.8798" transform="matrix(0.743036 -0.669251 0.66901 0.743253 41.9365 38.1875)" fill="#3368B9"/>
<rect width="11.9096" height="11.91" transform="matrix(0.743036 -0.669251 0.66901 0.743253 53.0605 66.2383)" fill="#3368B9"/>
<rect width="11.9096" height="11.91" transform="matrix(0.743036 -0.669251 0.66901 0.743254 47.4619 52.2383)" fill="#3368B9"/>
<rect width="9.21308" height="9.21339" transform="matrix(0.743036 -0.669251 0.66901 0.743254 56.7373 34.2656)" fill="#3368B9"/>
<rect width="9.32408" height="9.3244" transform="matrix(0.743036 -0.669251 0.66901 0.743253 62.373 46.7734)" fill="#3368B9"/>
<rect width="9.32408" height="9.32439" transform="matrix(0.743036 -0.669251 0.66901 0.743253 67.9707 59.8398)" fill="#3368B9"/>
<rect width="9.32407" height="9.32439" transform="matrix(0.743036 -0.669251 0.66901 0.743254 72.6367 71.9727)" fill="#3368B9"/>
<rect width="6.68003" height="6.68026" transform="matrix(0.743036 -0.669251 0.66901 0.743253 70.2109 31.3555)" fill="#3368B9"/>
<rect width="5.89598" height="5.89618" transform="matrix(0.743036 -0.669252 0.669009 0.743254 75.9814 43.5469)" fill="#3368B9"/>
<rect width="6.39891" height="6.39913" transform="matrix(0.743036 -0.669251 0.66901 0.743253 80.9639 55.6484)" fill="#3368B9"/>
</svg>
