<svg width="40" height="40" viewBox="0 0 40 40" fill="none" xmlns="http://www.w3.org/2000/svg">
<path fill-rule="evenodd" clip-rule="evenodd" d="M5.78858 6.21142C6.20021 5.79979 6.86761 5.79978 7.27924 6.21142L19.5772 18.5093L31.8751 6.21142C32.2867 5.79978 32.9541 5.79978 33.3658 6.21142C33.7774 6.62305 33.7774 7.29044 33.3657 7.70207L21.0678 20L33.3657 32.2979C33.7774 32.7096 33.7774 33.3769 33.3657 33.7886C32.9541 34.2002 32.2867 34.2002 31.8751 33.7886L19.5772 21.4907L7.27924 33.7886C6.8676 34.2002 6.20021 34.2002 5.78858 33.7886C5.37695 33.3769 5.37695 32.7096 5.78858 32.2979L18.0865 20L5.78858 7.70208C5.37695 7.29044 5.37695 6.62305 5.78858 6.21142Z" fill="#931E3F"/>
</svg>
