<svg width="40" height="40" viewBox="0 0 40 40" fill="none" xmlns="http://www.w3.org/2000/svg">
<path fill-rule="evenodd" clip-rule="evenodd" d="M13 7C9.68629 7 7 9.68629 7 13C7 16.3137 9.68629 19 13 19C16.3137 19 19 16.3137 19 13C19 9.68629 16.3137 7 13 7ZM9 13C9 10.7909 10.7909 9 13 9C15.2091 9 17 10.7909 17 13C17 15.2091 15.2091 17 13 17C10.7909 17 9 15.2091 9 13Z" fill="#931E3F"/>
<path fill-rule="evenodd" clip-rule="evenodd" d="M28 7C24.6863 7 22 9.68629 22 13C22 16.3137 24.6863 19 28 19C31.3137 19 34 16.3137 34 13C34 9.68629 31.3137 7 28 7ZM24 13C24 10.7909 25.7909 9 28 9C30.2091 9 32 10.7909 32 13C32 15.2091 30.2091 17 28 17C25.7909 17 24 15.2091 24 13Z" fill="#931E3F"/>
<path fill-rule="evenodd" clip-rule="evenodd" d="M7 28C7 24.6863 9.68629 22 13 22C16.3137 22 19 24.6863 19 28C19 31.3137 16.3137 34 13 34C9.68629 34 7 31.3137 7 28ZM13 24C10.7909 24 9 25.7909 9 28C9 30.2091 10.7909 32 13 32C15.2091 32 17 30.2091 17 28C17 25.7909 15.2091 24 13 24Z" fill="#931E3F"/>
<path d="M28 31C29.6569 31 31 29.6569 31 28C31 26.3431 29.6569 25 28 25C26.3431 25 25 26.3431 25 28C25 29.6569 26.3431 31 28 31Z" fill="#931E3F"/>
<path d="M4 8C4 5.79086 5.79086 4 8 4H17C17.5523 4 18 3.55228 18 3C18 2.44772 17.5523 2 17 2H8C4.68629 2 2 4.68629 2 8V17C2 17.5523 2.44772 18 3 18C3.55228 18 4 17.5523 4 17V8Z" fill="#931E3F"/>
<path d="M33 4C35.2091 4 37 5.79086 37 8V17C37 17.5523 37.4477 18 38 18C38.5523 18 39 17.5523 39 17V8C39 4.68629 36.3137 2 33 2H24C23.4477 2 23 2.44772 23 3C23 3.55228 23.4477 4 24 4H33Z" fill="#931E3F"/>
<path d="M4 33C4 35.2091 5.79086 37 8 37H17C17.5523 37 18 37.4477 18 38C18 38.5523 17.5523 39 17 39H8C4.68629 39 2 36.3137 2 33V24C2 23.4477 2.44772 23 3 23C3.55228 23 4 23.4477 4 24V33Z" fill="#931E3F"/>
<path d="M37 33C37 35.2091 35.2091 37 33 37H24C23.4477 37 23 37.4477 23 38C23 38.5523 23.4477 39 24 39H33C36.3137 39 39 36.3137 39 33V24C39 23.4477 38.5523 23 38 23C37.4477 23 37 23.4477 37 24V33Z" fill="#931E3F"/>
</svg>
