<svg width="23" height="23" viewBox="0 0 23 23" fill="none" xmlns="http://www.w3.org/2000/svg">
<path fill-rule="evenodd" clip-rule="evenodd" d="M1.06267 21.7557C0.535911 21.2333 0.535911 20.3863 1.06267 19.8639L20.1384 0.945894C20.6652 0.423487 21.5192 0.423487 22.046 0.945893C22.5727 1.4683 22.5727 2.31529 22.046 2.8377L2.97025 21.7557C2.44348 22.2781 1.58943 22.2781 1.06267 21.7557Z" fill="#666666"/>
<path fill-rule="evenodd" clip-rule="evenodd" d="M0.953928 1.24424C1.48069 0.721834 2.33474 0.721834 2.8615 1.24424L21.9372 20.1623C22.464 20.6847 22.464 21.5317 21.9372 22.0541C21.4105 22.5765 20.5564 22.5765 20.0297 22.0541L0.953928 3.13604C0.427167 2.61364 0.427167 1.76665 0.953928 1.24424Z" fill="#666666"/>
</svg>
