<svg width="17" height="16" viewBox="0 0 17 16" fill="none" xmlns="http://www.w3.org/2000/svg">
<circle cx="8.22217" cy="8" r="8" fill="#931E3F"/>
<path d="M8.42139 10.2871H7.1499C7.15446 9.84961 7.1932 9.49186 7.26611 9.21387C7.34359 8.93131 7.46891 8.67383 7.64209 8.44141C7.81527 8.20898 8.04541 7.94466 8.33252 7.64844C8.54216 7.43424 8.73356 7.23372 8.90674 7.04688C9.08448 6.85547 9.22803 6.65039 9.3374 6.43164C9.44678 6.20833 9.50147 5.94173 9.50147 5.63184C9.50147 5.31738 9.4445 5.04622 9.33057 4.81836C9.22119 4.59049 9.05713 4.41504 8.83838 4.29199C8.62419 4.16895 8.35759 4.10742 8.03858 4.10742C7.77425 4.10742 7.5236 4.15527 7.28662 4.25098C7.04964 4.34668 6.85824 4.49479 6.7124 4.69531C6.56657 4.89128 6.49137 5.14876 6.48682 5.46777H5.22217C5.23128 4.9528 5.35889 4.51074 5.60498 4.1416C5.85563 3.77246 6.19287 3.48991 6.6167 3.29395C7.04053 3.09798 7.51449 3 8.03858 3C8.61735 3 9.10954 3.10482 9.51514 3.31445C9.9253 3.52409 10.2375 3.82487 10.4517 4.2168C10.6659 4.60417 10.773 5.06445 10.773 5.59766C10.773 6.00781 10.6886 6.38607 10.52 6.73242C10.356 7.07422 10.144 7.39551 9.88428 7.69629C9.62451 7.99707 9.3488 8.28418 9.05713 8.55762C8.80648 8.79004 8.63786 9.05208 8.55127 9.34375C8.46468 9.63542 8.42139 9.94987 8.42139 10.2871ZM7.09522 12.4541C7.09522 12.249 7.15902 12.0758 7.28662 11.9346C7.41423 11.7933 7.5988 11.7227 7.84033 11.7227C8.08643 11.7227 8.27328 11.7933 8.40088 11.9346C8.52849 12.0758 8.59229 12.249 8.59229 12.4541C8.59229 12.6501 8.52849 12.8187 8.40088 12.96C8.27328 13.1012 8.08643 13.1719 7.84033 13.1719C7.5988 13.1719 7.41423 13.1012 7.28662 12.96C7.15902 12.8187 7.09522 12.6501 7.09522 12.4541Z" fill="white"/>
</svg>
