<svg width="56" height="45" viewBox="0 0 56 45" fill="none" xmlns="http://www.w3.org/2000/svg">
<path d="M7.34945 2.83538H46.5349V5.42203H48.5169V0.853394H5.36746V5.42203H7.34945V2.83538Z" fill="#BF5C7A"/>
<path d="M7.34945 27.1229H5.36746V44.2551H48.5169V27.1229H46.5349V42.2731H7.34945V27.1229Z" fill="#BF5C7A"/>
<path d="M29.2132 27.1229V31.6915H43.9748V27.1229H41.9928V29.7095H31.1952V27.1229H29.2132Z" fill="#BF5C7A"/>
<path d="M9.91015 27.1229V39.6865H26.9428V27.1229H24.9608V37.7045H11.8921V27.1229H9.91015Z" fill="#BF5C7A"/>
<path d="M0.825745 24.8386V6.56417H2.80773L2.80773 24.8386H0.825745Z" fill="#BF5C7A"/>
<path d="M5.36746 6.56417L5.36746 24.8386H7.34945L7.34945 6.56417H5.36746Z" fill="#BF5C7A"/>
<path d="M9.91015 24.8386L9.91015 6.56417H11.8921L11.8921 24.8386H9.91015Z" fill="#BF5C7A"/>
<path d="M14.4519 6.56417L14.4519 24.8386H16.4339L16.4339 6.56417H14.4519Z" fill="#BF5C7A"/>
<path d="M18.9936 24.8386V6.56417H20.9756V24.8386H18.9936Z" fill="#BF5C7A"/>
<path d="M23.5363 6.56417V24.8386H25.5183V6.56417H23.5363Z" fill="#BF5C7A"/>
<path d="M28.078 24.8386V6.56417H30.06V24.8386H28.078Z" fill="#BF5C7A"/>
<path d="M32.6197 6.56417V24.8386H34.6017V6.56417H32.6197Z" fill="#BF5C7A"/>
<path d="M37.1624 24.8386V6.56417H39.1444V24.8386H37.1624Z" fill="#BF5C7A"/>
<path d="M41.7041 6.56417V24.8386H43.6861V6.56417H41.7041Z" fill="#BF5C7A"/>
<path d="M46.2458 24.8386V6.56417H48.2278V24.8386H46.2458Z" fill="#BF5C7A"/>
<path d="M50.7885 6.56417V24.8386H52.7705V6.56417H50.7885Z" fill="#BF5C7A"/>
</svg>
