<svg width="56" height="56" viewBox="0 0 56 56" fill="none" xmlns="http://www.w3.org/2000/svg">
<path fill-rule="evenodd" clip-rule="evenodd" d="M49.5932 30.8246C49.5932 34.0197 47.0245 36.6098 43.8559 36.6098C40.6872 36.6098 38.1186 34.0197 38.1186 30.8246C38.1186 27.6295 40.6872 25.0393 43.8559 25.0393C47.0245 25.0393 49.5932 27.6295 49.5932 30.8246ZM47.6112 30.8246C47.6112 32.9407 45.9144 34.6278 43.8559 34.6278C41.7974 34.6278 40.1005 32.9407 40.1005 30.8246C40.1005 28.7085 41.7974 27.0213 43.8559 27.0213C45.9144 27.0213 47.6112 28.7085 47.6112 30.8246Z" fill="#BF5C7A"/>
<path fill-rule="evenodd" clip-rule="evenodd" d="M15.0915 1.30693C15.387 0.909639 15.9304 0.791421 16.3642 1.03004L27.3113 7.05105L39.8396 1.00584C40.2154 0.824471 40.6646 0.898027 40.963 1.1898L48.8518 8.90346C48.922 8.97201 48.9797 9.04843 49.0251 9.12993H51.3663C53.5555 9.12993 55.3302 10.9047 55.3302 13.0939V51.4479C55.3302 53.6372 53.5555 55.4119 51.3663 55.4119H4.78971C2.60047 55.4119 0.825745 53.6372 0.825745 51.4479V13.0939C0.825745 10.9047 2.60047 9.12993 4.78971 9.12993H9.27282L15.0915 1.30693ZM40.0746 3.09308L46.2485 9.12993H31.091L29.4426 8.22329L40.0746 3.09308ZM16.1661 3.18308L26.9783 9.12993H11.7429L16.1661 3.18308ZM51.3663 12.1029H4.78971C4.2424 12.1029 3.79872 12.5466 3.79872 13.0939V51.4479C3.79872 51.9952 4.2424 52.4389 4.78971 52.4389H51.3663C51.9136 52.4389 52.3573 51.9952 52.3573 51.4479V40.4935H34.2591V21.8789H52.3573V13.0939C52.3573 12.5466 51.9136 12.1029 51.3663 12.1029ZM36.2411 23.8609V38.5115H52.1882V23.8609H36.2411Z" fill="#BF5C7A"/>
</svg>
