<svg width="43" height="52" viewBox="0 0 43 52" fill="none" xmlns="http://www.w3.org/2000/svg">
<path d="M23.5555 36.5651L19.096 42.0155H23.06L23.5555 45.484L28.0149 39.538" stroke="#BF5C7A" stroke-width="1.5"/>
<path d="M32.9699 36.5651L37.4293 42.0155H33.4654L32.9699 45.484L28.5104 39.538" stroke="#BF5C7A" stroke-width="1.5"/>
<path d="M6.70862 13.7722H20.087" stroke="#BF5C7A" stroke-width="2"/>
<path d="M6.70862 22.1957H30.4924" stroke="#BF5C7A" stroke-width="2"/>
<path d="M6.70862 30.6191H15.6275" stroke="#BF5C7A" stroke-width="2"/>
<path d="M26.5284 1.88037H4.75366C3.09681 1.88037 1.75366 3.22351 1.75366 4.88037V46.9434C1.75366 48.6003 3.09681 49.9434 4.75366 49.9434H37.8978C39.5547 49.9434 40.8978 48.6003 40.8978 46.9434V15.7542L26.5284 1.88037Z" stroke="#BF5C7A" stroke-width="3"/>
<path d="M27.0239 2.87134V15.7542H40.8978" stroke="#BF5C7A" stroke-width="2"/>
<ellipse cx="28.5104" cy="33.5921" rx="5.94595" ry="5.94594" stroke="#BF5C7A" stroke-width="2"/>
</svg>
