<svg width="56" height="61" viewBox="0 0 56 61" fill="none" xmlns="http://www.w3.org/2000/svg">
<path d="M35.1126 49.7107L41.1296 58.5834C41.3422 58.897 41.7206 59.0622 42.0989 59.0066C42.4771 58.951 42.7862 58.6848 42.8907 58.3246L45.3371 49.8911L54.2424 50.9819C54.6227 51.0285 54.9943 50.8544 55.1943 50.536C55.3943 50.2175 55.3862 49.8128 55.1735 49.4992L47.6236 38.3661L47.6597 38.5874C47.8004 39.4507 47.5402 40.2943 47.0077 40.9224L52.3595 48.8142L44.7354 47.8803C44.2566 47.8217 43.8078 48.112 43.6762 48.5655L41.5818 55.7857L36.8446 48.8003C36.3913 49.2918 35.7776 49.6142 35.1126 49.7107Z" fill="#BF5C7A"/>
<path d="M7.72297 40.4444L0.86802 50.0893C0.648486 50.3982 0.631564 50.8026 0.824673 51.1253C1.01778 51.448 1.38567 51.63 1.76702 51.5915L10.6937 50.6907L12.9511 59.1735C13.0476 59.5359 13.3508 59.8088 13.7279 59.8727C14.1049 59.9365 14.487 59.7796 14.7065 59.4707L20.8992 50.7577C20.383 50.5234 19.9311 50.1373 19.6175 49.62L19.4817 49.3959L14.3164 56.6634L12.3839 49.4015C12.2624 48.9451 11.8197 48.6449 11.3393 48.6934L3.69747 49.4646L8.03995 43.3547C8.01431 43.2415 7.99527 43.1256 7.98326 43.0074L7.72297 40.4444Z" fill="#BF5C7A"/>
<path fill-rule="evenodd" clip-rule="evenodd" d="M41.5297 26.0419C41.5297 34.3589 34.6958 41.101 26.2657 41.101C17.8356 41.101 11.0016 34.3589 11.0016 26.0419C11.0016 17.725 17.8356 10.9828 26.2657 10.9828C34.6958 10.9828 41.5297 17.725 41.5297 26.0419ZM38.6098 26.0419C38.6098 32.7215 33.1127 38.1894 26.2657 38.1894C19.4187 38.1894 13.9215 32.7215 13.9215 26.0419C13.9215 19.3623 19.4187 13.8945 26.2657 13.8945C33.1127 13.8945 38.6098 19.3623 38.6098 26.0419Z" fill="#BF5C7A"/>
<path fill-rule="evenodd" clip-rule="evenodd" d="M23.4735 50.6857C22.1037 51.4014 20.4143 50.9345 19.6175 49.62L17.0237 45.3408L11.0299 45.6118C9.47612 45.6821 8.13879 44.5389 7.98326 43.0074L7.36092 36.8793L2.16819 33.0611C0.911882 32.1374 0.603195 30.395 1.46699 29.1032L4.28251 24.8927L2.04566 18.3723C1.54335 16.9081 2.28775 15.3058 3.73791 14.7297L9.06986 12.6116L9.79617 7.65861C10.0194 6.13615 11.4049 5.0532 12.9534 5.19086L18.9613 5.72497L22.7929 1.92274C23.8858 0.838235 25.6364 0.788572 26.7903 1.80934L30.5474 5.13301L36.6537 3.85986C38.173 3.54308 39.6743 4.45487 40.0767 5.9388L41.5437 11.3483L47.078 12.9227C48.5783 13.3495 49.4819 14.866 49.1329 16.3717L47.9568 21.4465L50.9483 25.301C51.9019 26.5297 51.7175 28.29 50.5296 29.2991L46.6789 32.5703L47.6597 38.5874C47.9004 40.0641 46.9679 41.4832 45.5063 41.8646L38.8952 43.5895L37.4508 47.784C36.9503 49.2374 35.3932 50.0479 33.8994 49.6325L28.4104 48.1064L23.4735 50.6857ZM20.0568 8.74554L12.6941 8.09099C12.6888 8.09051 12.6854 8.09083 12.6854 8.09083L12.6839 8.0911L11.7153 14.6949L4.81851 17.4346L4.81428 17.4364L4.81181 17.4378L7.5121 25.3113L3.89835 30.7155L3.90106 30.7177L10.1355 35.3018L10.8871 42.7025L10.8889 42.703L10.8915 42.7032C10.8915 42.7032 10.8951 42.7033 10.8977 42.7032L18.6249 42.3538L22.2378 48.0148L28.0802 44.9919L34.6836 46.8279L34.6883 46.829L34.6912 46.8294L34.6923 46.8294L36.6419 41.1677L44.7672 39.0478C44.7695 39.0472 44.7725 39.0461 44.7725 39.0461L44.7746 39.0453L44.7758 39.0446L43.5328 31.418L48.6361 27.0827L48.6377 27.0812L44.8001 22.1364L46.2857 15.7261L46.2846 15.7254C46.2846 15.7254 46.282 15.724 46.277 15.7226L39.1558 13.6969L37.2608 6.70888L37.2594 6.70875C37.2594 6.70875 37.2564 6.7088 37.2513 6.70986L29.7079 8.28263L24.8526 3.98741L20.0568 8.74554Z" fill="#BF5C7A"/>
</svg>
