<svg width="56" height="42" viewBox="0 0 56 42" fill="none" xmlns="http://www.w3.org/2000/svg">
<path d="M41.5548 35.1018C42.7404 35.1018 43.7015 34.1445 43.7015 32.9636C43.7015 31.7827 42.7404 30.8254 41.5548 30.8254C40.3692 30.8254 39.4081 31.7827 39.4081 32.9636C39.4081 34.1445 40.3692 35.1018 41.5548 35.1018Z" fill="#BF5C7A"/>
<path d="M17.9414 32.9636C17.9414 34.1445 16.9803 35.1018 15.7947 35.1018C14.6092 35.1018 13.6481 34.1445 13.6481 32.9636C13.6481 31.7827 14.6092 30.8254 15.7947 30.8254C16.9803 30.8254 17.9414 31.7827 17.9414 32.9636Z" fill="#BF5C7A"/>
<path fill-rule="evenodd" clip-rule="evenodd" d="M37.8169 0.84436H0.825752L0.848124 2.69387C0.887212 5.92546 0.900535 7.0277 0.900984 8.12989C0.901231 8.73787 0.897804 9.33141 0.892586 10.2352C0.877623 12.8269 0.847931 17.9697 0.847926 33.32L0.847925 35.1477H8.58638C8.80327 36.054 9.19704 37.0421 9.85098 37.9468C11.0499 39.6054 13.0361 40.8496 15.9335 40.8496C18.8309 40.8496 20.8171 39.6054 22.016 37.9468C22.67 37.0421 23.0637 36.054 23.2806 35.1477H34.3661C34.5891 36.0084 34.9831 36.9416 35.6203 37.8077C36.8018 39.4137 38.7375 40.6692 41.5777 40.846C44.5292 41.0298 46.5684 39.7986 47.7851 38.086C48.4545 37.1437 48.8475 36.1 49.0584 35.1477H54.6326V22.1256L47.3947 10.11H37.8169V0.84436ZM37.8169 21.715V13.7653H45.2951L50.0838 21.715H37.8169ZM37.8169 23.5427V33.32C37.8169 33.8932 38.017 34.8535 38.608 35.6568C39.1438 36.3851 40.0705 37.0897 41.8098 37.1979C43.4383 37.2993 44.2612 36.689 44.7617 35.9844C45.3448 35.1636 45.5707 34.0652 45.5707 33.32L45.5706 31.4924H50.9374V23.5427H37.8169ZM34.1217 4.49966V31.4924H19.8104V33.32C19.8104 33.9802 19.5965 35.0096 19.0102 35.8207C18.4918 36.5378 17.6158 37.1943 15.9335 37.1943C14.2512 37.1943 13.3752 36.5378 12.8568 35.8207C12.2705 35.0096 12.0566 33.9802 12.0566 33.32V31.4924H4.54329C4.54556 17.5888 4.57357 12.7053 4.58787 10.2125C4.6007 7.97452 4.60248 7.64272 4.56531 4.49966H34.1217Z" fill="#BF5C7A"/>
</svg>
