<svg width="67" height="66" viewBox="0 0 67 66" fill="none" xmlns="http://www.w3.org/2000/svg">
<path d="M62.4573 26.7517H59.4309C56.9292 26.7517 54.894 24.767 54.894 22.3189V20.8413C54.894 9.4167 45.409 0.159668 33.7123 0.159668H21.6069C9.90751 0.159668 0.43042 9.41927 0.43042 20.8413V44.4807C0.43042 55.9052 9.91015 65.1597 21.6069 65.1597H45.8124C57.5144 65.1597 66.9941 55.9026 66.9941 44.4807V31.182C66.9941 28.7365 64.9616 26.7517 62.4573 26.7517ZM21.6069 17.8886H36.7386C38.4073 17.8886 39.7597 19.2143 39.7597 20.8413C39.7597 22.4682 38.4047 23.7939 36.7386 23.7939H21.6069C19.9382 23.7939 18.5858 22.4682 18.5858 20.8413C18.5858 19.2143 19.9382 17.8886 21.6069 17.8886ZM45.8124 47.4308H21.6069C19.9382 47.4308 18.5858 46.1076 18.5858 44.4807C18.5858 42.8537 19.9408 41.5254 21.6069 41.5254H45.8124C47.4864 41.5254 48.8387 42.8537 48.8387 44.4807C48.8387 46.1076 47.4864 47.4308 45.8124 47.4308Z" fill="#EAAB51"/>
</svg>
