<svg width="73" height="78" viewBox="0 0 73 78" fill="none" xmlns="http://www.w3.org/2000/svg">
<ellipse cx="30.634" cy="47.061" rx="29.6769" ry="29.7172" fill="url(#paint0_linear_98_8620)"/>
<ellipse cx="30.634" cy="47.061" rx="29.6769" ry="29.7172" fill="url(#paint1_radial_98_8620)"/>
<ellipse cx="30.634" cy="47.061" rx="29.6769" ry="29.7172" fill="url(#paint2_radial_98_8620)" fill-opacity="0.35"/>
<path fill-rule="evenodd" clip-rule="evenodd" d="M34.1127 7.98907C36.4411 7.28271 38.021 5.90761 38.021 4.32698C38.021 2.02544 34.6712 0.159668 30.5389 0.159668C26.4066 0.159668 23.0568 2.02544 23.0568 4.32698C23.0568 5.92468 24.671 7.31239 27.0407 8.01172C27.1345 8.2231 27.2157 8.43856 27.2844 8.65702C24.0154 8.9507 23.6882 9.59815 23.6882 9.59815C25.9547 12.0163 25.9818 15.7704 23.7505 18.2211L23.6882 18.2895C23.6882 18.2895 26.7019 17.3436 30.6339 17.3436C31.7586 17.3436 32.8212 17.421 33.7651 17.5316C47.8192 19.6868 58.5743 31.6634 58.5743 46.1149C58.5743 62.092 45.4288 75.0439 29.2131 75.0439C20.652 75.0439 12.9467 71.4338 7.57977 65.6744C13.2356 73.0843 22.2697 77.8816 32.4491 77.8816C49.5803 77.8816 63.4678 64.2944 63.4678 47.5338C63.4678 34.2186 54.703 22.9062 42.5101 18.818L42.3529 18.7549C41.5998 18.4528 40.7238 18.1013 39.3949 17.6589C37.1784 16.9211 36.2276 15.3389 36.2252 13.3438C36.3412 12.0081 36.8457 10.6997 37.7374 9.59815C37.7374 9.59815 37.7374 8.85549 33.9036 8.60017C33.9634 8.39405 34.0331 8.19011 34.1127 7.98907ZM71.491 19.2793C69.5111 22.8486 62.8487 22.944 56.6103 19.4924C50.3718 16.0409 46.9196 10.3493 48.8995 6.78007C50.8794 3.21079 57.5417 3.11536 63.7802 6.56692C70.0187 10.0185 73.4709 15.71 71.491 19.2793Z" fill="#7F203B"/>
<path fill-rule="evenodd" clip-rule="evenodd" d="M34.1127 7.98907C36.4411 7.28271 38.021 5.90761 38.021 4.32698C38.021 2.02544 34.6712 0.159668 30.5389 0.159668C26.4066 0.159668 23.0568 2.02544 23.0568 4.32698C23.0568 5.92468 24.671 7.31239 27.0407 8.01172C27.1345 8.2231 27.2157 8.43856 27.2844 8.65702C24.0154 8.9507 23.6882 9.59815 23.6882 9.59815C25.9547 12.0163 25.9818 15.7704 23.7505 18.2211L23.6882 18.2895C23.6882 18.2895 26.7019 17.3436 30.6339 17.3436C31.7586 17.3436 32.8212 17.421 33.7651 17.5316C47.8192 19.6868 58.5743 31.6634 58.5743 46.1149C58.5743 62.092 45.4288 75.0439 29.2131 75.0439C20.652 75.0439 12.9467 71.4338 7.57977 65.6744C13.2356 73.0843 22.2697 77.8816 32.4491 77.8816C49.5803 77.8816 63.4678 64.2944 63.4678 47.5338C63.4678 34.2186 54.703 22.9062 42.5101 18.818L42.3529 18.7549C41.5998 18.4528 40.7238 18.1013 39.3949 17.6589C37.1784 16.9211 36.2276 15.3389 36.2252 13.3438C36.3412 12.0081 36.8457 10.6997 37.7374 9.59815C37.7374 9.59815 37.7374 8.85549 33.9036 8.60017C33.9634 8.39405 34.0331 8.19011 34.1127 7.98907ZM71.491 19.2793C69.5111 22.8486 62.8487 22.944 56.6103 19.4924C50.3718 16.0409 46.9196 10.3493 48.8995 6.78007C50.8794 3.21079 57.5417 3.11536 63.7802 6.56692C70.0187 10.0185 73.4709 15.71 71.491 19.2793Z" fill="url(#paint3_linear_98_8620)"/>
<defs>
<linearGradient id="paint0_linear_98_8620" x1="30.9531" y1="20.5391" x2="30.9531" y2="74.2219" gradientUnits="userSpaceOnUse">
<stop stop-color="#FFEEE7"/>
<stop offset="0.644966" stop-color="#F18D8B"/>
<stop offset="1" stop-color="#D76C80"/>
</linearGradient>
<radialGradient id="paint1_radial_98_8620" cx="0" cy="0" r="1" gradientUnits="userSpaceOnUse" gradientTransform="translate(22.2874 25.6035) rotate(41.6297) scale(13.2883 14.4615)">
<stop stop-color="white"/>
<stop offset="1" stop-color="white" stop-opacity="0"/>
</radialGradient>
<radialGradient id="paint2_radial_98_8620" cx="0" cy="0" r="1" gradientUnits="userSpaceOnUse" gradientTransform="translate(50.0411 68.606) rotate(-134.462) scale(30.1869 25.5973)">
<stop stop-color="#B43346"/>
<stop offset="1" stop-color="#C2475A" stop-opacity="0"/>
</radialGradient>
<linearGradient id="paint3_linear_98_8620" x1="62.7843" y1="8.82389" x2="-2.76371" y2="44.6273" gradientUnits="userSpaceOnUse">
<stop stop-color="#A72A4D"/>
<stop offset="1" stop-color="#7F203B" stop-opacity="0"/>
</linearGradient>
</defs>
</svg>
