<svg width="66" height="66" viewBox="0 0 66 66" fill="none" xmlns="http://www.w3.org/2000/svg">
<path d="M33.2907 65.1597C51.2636 65.1597 65.8336 50.6089 65.8336 32.6597C65.8336 14.7104 51.2636 0.159668 33.2907 0.159668C15.3177 0.159668 0.747803 14.7104 0.747803 32.6597C0.747803 50.6089 15.3177 65.1597 33.2907 65.1597Z" fill="#AF4F4A"/>
<path d="M33.2907 54.1905C45.1976 54.1905 54.85 44.5508 54.85 32.6596C54.85 20.7684 45.1976 11.1287 33.2907 11.1287C21.3838 11.1287 11.7314 20.7684 11.7314 32.6596C11.7314 44.5508 21.3838 54.1905 33.2907 54.1905Z" fill="white"/>
<path d="M33.2907 42.5126C38.7395 42.5126 43.1567 38.1012 43.1567 32.6596C43.1567 27.2179 38.7395 22.8066 33.2907 22.8066C27.8418 22.8066 23.4247 27.2179 23.4247 32.6596C23.4247 38.1012 27.8418 42.5126 33.2907 42.5126Z" fill="#AF4F4A"/>
<path d="M33.2907 10.1203C35.7185 10.1203 37.6865 8.15481 37.6865 5.73029C37.6865 3.30577 35.7185 1.3403 33.2907 1.3403C30.863 1.3403 28.895 3.30577 28.895 5.73029C28.895 8.15481 30.863 10.1203 33.2907 10.1203Z" fill="white"/>
<path d="M34.8671 10.1203H31.7124V26.0668H34.8671V10.1203Z" fill="#AF4F4A"/>
</svg>
