<svg width="113" height="66" viewBox="0 0 113 66" fill="none" xmlns="http://www.w3.org/2000/svg">
<path d="M100.374 45.0499C109.408 53.4967 111.285 57.6252 111.593 58.1323C115.32 64.3937 107.456 64.8845 107.456 64.8845L92.3908 65.1004C92.3908 65.1004 89.1348 65.7448 84.883 62.7842C79.2358 58.8912 71.5282 48.7368 67.391 50.0552C63.1916 51.3932 64.5281 62.0383 64.5281 62.0383C64.5281 62.0383 64.5641 63.3404 63.6142 64.3905C62.5659 65.493 60.5318 65.0677 60.5318 65.0677H56.1915C56.1915 65.0677 40.1113 65.1364 26.9955 51.3605C12.7104 36.348 0.760773 8.26949 0.760773 8.26949C0.760773 8.26949 0.0335751 6.49311 0.813183 5.5444C1.71071 4.47792 4.1347 4.49429 4.1347 4.49429H20.2542C20.2542 4.49429 21.761 4.69711 22.8453 5.5117C23.7592 6.17252 24.2538 7.4222 24.2538 7.4222C24.2538 7.4222 26.2028 12.6532 29.6587 18.6758C36.3869 30.4235 39.5217 32.9948 41.8081 31.7255C45.1329 29.8804 44.1305 15.1231 44.1305 15.1231C44.1305 15.1231 44.1993 9.75471 42.4501 7.36985C41.094 5.50842 38.5685 4.96864 37.4547 4.81488C36.5375 4.71347 38.028 2.58051 39.9639 1.6318C42.8629 0.208742 47.9958 0.107329 54.046 0.176028C58.7564 0.2251 60.535 0.159668 60.535 0.159668C66.0938 1.51403 64.2103 6.76137 64.2103 19.2843C64.2103 23.3081 63.4831 28.9644 66.3624 30.8258C67.6006 31.6568 72.0392 31.7745 79.5797 18.823C83.1731 12.6826 86.0033 6.90859 86.0033 6.90859C86.0033 6.90859 86.6159 5.60656 87.5134 5.06678C88.4601 4.49101 89.7146 4.49102 89.7146 4.49102L106.683 4.57607C106.683 4.57607 111.783 3.9316 112.598 6.26739C113.463 8.70459 110.512 12.9705 103.6 22.294C92.2074 37.6238 90.9332 36.1975 100.374 45.0499Z" fill="#4A85BA"/>
</svg>
