<svg width="85" height="66" viewBox="0 0 85 66" fill="none" xmlns="http://www.w3.org/2000/svg">
<path d="M11.0062 29.1077V18.2921H7.35758L3.71862 29.1077H0.208069L4.41879 16.8016C2.22379 15.2095 1.12629 12.6085 1.12629 8.98877C1.12629 6.21591 1.71744 4.06247 2.90458 2.51635C4.09172 0.975069 5.74888 0.188703 7.87362 0.159668H14.2842V29.1077H11.0062ZM4.38972 9.20895C4.38972 10.8398 4.68772 12.11 5.28371 13.0247C5.87971 13.9393 6.76885 14.3966 7.96084 14.3966H11.0038V4.21733H7.96327C6.75674 4.21733 5.8579 4.66011 5.2716 5.54811C4.6853 6.4361 4.38972 7.65557 4.38972 9.20895Z" fill="#D24A45"/>
<path d="M29.0484 29.1462H26.1096V21.2245H21.0219V29.1462H18.0879V9.52817H21.0219V17.704H26.1096V9.52817H29.0484V29.1462Z" fill="black"/>
<path d="M31.2822 24.6848C32.0914 23.3201 32.6413 22.0208 32.9151 20.7989C33.1937 19.5697 33.3609 18.0018 33.4166 16.0904L33.5862 8.58478H42.6618V24.6848H44.474V32.2315L41.5498 32.246V28.2004H33.1647L33.1598 32.246H30.1919L30.2065 24.6848H31.2822ZM34.7225 24.6848H39.7375V12.3714H36.4402L36.3554 16.1267C36.2415 19.727 35.6964 22.5797 34.7225 24.6848Z" fill="black"/>
<path d="M52.3237 29.0349C50.463 29.0349 48.9537 28.159 47.8004 26.3976C46.6448 24.6385 46.0682 22.2988 46.0682 19.3735V18.8267C46.0682 16.8692 46.3201 15.1198 46.8265 13.581C47.328 12.0373 48.033 10.8372 48.9415 9.98062C49.8549 9.12408 50.8676 8.69339 51.9894 8.69339C53.7677 8.69339 55.1413 9.54751 56.1153 11.2509C57.0844 12.9567 57.5738 15.3666 57.5738 18.4855V20.2615H49.0288C49.1184 21.8802 49.4794 23.1602 50.1117 24.1062C50.7416 25.0474 51.5363 25.5193 52.4957 25.5193C53.8452 25.5193 54.9378 24.7014 55.7834 23.0706L57.363 25.3378C56.8373 26.5089 56.1419 27.4211 55.2673 28.0647C54.3976 28.7107 53.4115 29.0349 52.3237 29.0349ZM51.9797 12.2284C51.1705 12.2284 50.5212 12.6518 50.0245 13.4987C49.5278 14.3456 49.2153 15.5239 49.0772 17.0337H54.6665V16.7071C54.6059 15.2336 54.3443 14.1181 53.8864 13.3632C53.426 12.6083 52.7889 12.2284 51.9797 12.2284Z" fill="black"/>
<path d="M64.4955 20.9149H63.0055V28.6746H60.0716V9.05893H63.0055V16.8912H64.3017L67.9116 9.05893H71.536L66.8141 18.4494L71.9333 28.677H68.1199L64.4955 20.9149Z" fill="black"/>
<path d="M78.7243 25.5193C79.4584 25.5193 80.0689 25.1974 80.551 24.5587C81.0332 23.9199 81.29 23.1263 81.3215 22.1851H84.0907C84.0568 23.4069 83.8072 24.5466 83.3299 25.6015C82.8575 26.6613 82.213 27.4961 81.399 28.1131C80.585 28.7301 79.7055 29.0373 78.7631 29.0373C76.9315 29.0373 75.4827 28.1518 74.4142 26.3709C73.3458 24.5974 72.8055 22.1415 72.8055 19.0105V18.5557C72.8055 15.5723 73.3361 13.1817 74.3997 11.384C75.4633 9.59348 76.9121 8.69339 78.7534 8.69339C80.3063 8.69339 81.5686 9.3733 82.5474 10.7331C83.5262 12.0953 84.0374 13.881 84.0907 16.0925H81.3215C81.2876 14.9674 81.0332 14.0431 80.5559 13.3197C80.0738 12.5938 79.4681 12.2308 78.7243 12.2308C77.7722 12.2308 77.0405 12.7486 76.5293 13.7842C76.0133 14.8198 75.7492 16.3853 75.7395 18.4879V19.1944C75.7395 21.3213 75.9939 22.9085 76.5099 23.9562C77.0211 24.9966 77.7576 25.5193 78.7243 25.5193Z" fill="black"/>
<path d="M2.95056 30.8328L8.82329 54.3972L14.7202 30.8328H16.5131V57.5306H15.1684V45.9044L15.2775 33.9831L9.34902 57.5282H8.30724L2.4006 34.0774L2.50962 45.8318V57.5282H1.165V30.8328H2.95056Z" fill="black"/>
<path d="M30.2356 57.5307C30.0878 56.9112 29.9981 55.9845 29.9569 54.7602C29.4554 55.7619 28.811 56.5411 28.0357 57.0855C27.2556 57.625 26.4367 57.8984 25.5645 57.8984C24.3144 57.8984 23.3065 57.3685 22.5361 56.3063C21.7657 55.2441 21.3804 53.8964 21.3804 52.2705C21.3804 50.3372 21.9062 48.8104 22.9552 47.6853C24.0043 46.5602 25.4676 45.9989 27.3476 45.9989H29.9448V43.7414C29.9448 42.3284 29.6565 41.2081 29.0872 40.3951C28.5154 39.5869 27.682 39.1756 26.5893 39.1756C25.5912 39.1756 24.7626 39.5676 24.1109 40.3515C23.4543 41.1306 23.1321 42.0719 23.1321 43.1728L21.693 43.1534C21.693 41.5759 22.1702 40.2136 23.1321 39.0571C24.0891 37.9029 25.2665 37.3222 26.662 37.3222C28.1108 37.3222 29.2447 37.8787 30.0781 38.982C30.9163 40.0926 31.3452 41.6339 31.3694 43.6132V53.0036C31.3694 54.9223 31.5026 56.3596 31.7667 57.3129V57.5307H30.2356ZM25.7317 55.9579C26.6911 55.9579 27.5439 55.6047 28.3022 54.8957C29.0557 54.1819 29.6032 53.2359 29.9497 52.0503V47.6877H27.384C25.9546 47.7119 24.8377 48.1136 24.0333 48.8879C23.2241 49.6621 22.822 50.7316 22.822 52.0866C22.822 53.1972 23.0909 54.1239 23.6312 54.857C24.1642 55.5901 24.8692 55.9579 25.7317 55.9579Z" fill="black"/>
<path d="M45.6103 47.816C45.6103 50.9107 45.1645 53.3593 44.2705 55.1788C43.3765 56.9935 42.1797 57.9009 40.6751 57.9009C38.9065 57.9009 37.5474 56.9451 36.6049 55.0409V65.1596H35.1804V37.6924H36.5104L36.5807 40.4991C37.5135 38.382 38.8653 37.3222 40.6412 37.3222C42.1893 37.3222 43.4056 38.2199 44.285 40.0201C45.1693 41.8154 45.6103 44.31 45.6103 47.5014V47.816ZM44.1711 47.4313C44.1711 44.898 43.8344 42.8994 43.1536 41.4331C42.4777 39.9644 41.5304 39.2313 40.319 39.2313C39.4395 39.2313 38.6812 39.5579 38.0513 40.2039C37.4214 40.85 36.9393 41.7912 36.6025 43.0252V52.5439C36.9441 53.6835 37.4359 54.5473 38.0731 55.1474C38.7103 55.7474 39.4686 56.045 40.3408 56.045C41.5425 56.045 42.4849 55.3119 43.156 53.8335C43.8344 52.3672 44.1711 50.2307 44.1711 47.4313Z" fill="black"/>
<path d="M53.2807 48.4378H51.5678V57.5306H50.3177V37.6924H51.5678V46.4924H53.2613L57.363 37.6924H58.9257L54.3346 47.3199L59.432 57.5331H57.7991L53.2807 48.4378Z" fill="black"/>
<path d="M66.3223 57.9009C65.2151 57.9009 64.2218 57.4847 63.3326 56.6524C62.4435 55.8249 61.7482 54.6635 61.2563 53.173C60.7597 51.6946 60.5126 50.0251 60.5126 48.1814V47.395C60.5126 45.4859 60.7548 43.7656 61.237 42.2388C61.7191 40.7121 62.3926 39.512 63.2527 38.6385C64.1176 37.765 65.0503 37.3246 66.0582 37.3246C67.6281 37.3246 68.8783 38.1522 69.7965 39.7926C70.7244 41.438 71.1823 43.6809 71.1823 46.5312V47.7604H61.9371V48.1862C61.9371 50.4316 62.3587 52.3068 63.2042 53.8045C64.0425 55.3022 65.1012 56.0499 66.3804 56.0499C67.146 56.0499 67.8244 55.837 68.4107 55.4063C68.997 54.9804 69.5324 54.2957 70.0097 53.3545L70.9085 54.3997C69.8522 56.7322 68.3235 57.9009 66.3223 57.9009ZM66.0558 39.195C64.9777 39.195 64.0691 39.7999 63.3302 41.0097C62.5913 42.2243 62.1431 43.8503 61.9807 45.8924H69.7505V45.6505C69.7117 43.7414 69.358 42.1905 68.6869 40.9903C68.0206 39.7951 67.1388 39.195 66.0558 39.195Z" fill="black"/>
<path d="M84.0907 39.5651H79.3736V57.5331H77.9345V39.5651H73.3967V37.6924H84.0907V39.5651Z" fill="black"/>
</svg>
