<svg width="88" height="66" viewBox="0 0 88 66" fill="none" xmlns="http://www.w3.org/2000/svg">
<path d="M85.721 54.105C84.8564 58.6591 81.1724 62.1246 76.6095 62.7715C69.447 63.8544 57.5162 65.1597 44.0672 65.1597C30.8295 65.1597 18.8986 63.8544 11.525 62.7715C6.96496 62.1246 3.28098 58.6591 2.41349 54.105C1.54315 49.1291 0.681366 41.7536 0.681366 32.6568C0.681366 23.5629 1.546 16.1902 2.41349 11.2143C3.28383 6.65739 6.96781 3.19194 11.525 2.54502C18.6875 1.46206 30.6183 0.159668 44.0672 0.159668C57.5162 0.159668 69.2359 1.46206 76.6095 2.54502C81.1753 3.19194 84.8592 6.65739 85.721 11.2143C86.5971 16.1902 87.6786 23.5629 87.6786 32.6568C87.4588 41.7536 86.5942 49.1291 85.721 54.105Z" fill="#D45645"/>
<path d="M35.3866 47.8239V17.4927L61.4199 32.6569L35.3866 47.8239Z" fill="white"/>
</svg>
