<svg width="224" height="75" viewBox="0 0 224 75" fill="none" xmlns="http://www.w3.org/2000/svg">
<path d="M0 11.5705C0 5.70884 4.75181 0.957031 10.6135 0.957031H213.387C219.248 0.957031 224 5.70884 224 11.5705V63.5206C224 69.3823 219.248 74.1341 213.387 74.1341H10.6135C4.75181 74.1341 0 69.3823 0 63.5206V11.5705Z" fill="black"/>
<path d="M71.0373 22.2227V21.0497H71.3055C71.406 21.0497 71.5289 21.0497 71.6741 21.0497C71.8194 21.0497 71.9646 21.0441 72.1099 21.0329C72.2663 21.0217 72.4115 21.0161 72.5456 21.0161C72.6908 21.005 72.8081 20.9882 72.8975 20.9659C73.188 20.9212 73.4617 20.8486 73.7186 20.748C73.9756 20.6363 74.199 20.4966 74.389 20.3291C74.5789 20.1615 74.7297 19.966 74.8414 19.7425C74.9531 19.5191 75.009 19.2733 75.009 19.0052C75.009 18.6365 74.9476 18.3293 74.8247 18.0835C74.7018 17.8377 74.5286 17.6422 74.3052 17.4969C74.0929 17.3405 73.8415 17.2344 73.551 17.1785C73.2717 17.1115 72.9701 17.078 72.6461 17.078C72.0428 17.078 71.5289 17.1227 71.1044 17.2121C70.6798 17.2903 70.3391 17.3908 70.0821 17.5137L69.7134 16.4077C69.9369 16.2848 70.3391 16.1619 70.92 16.039C71.501 15.9049 72.1545 15.8379 72.8807 15.8379C73.3276 15.8379 73.7633 15.8882 74.1879 15.9887C74.6236 16.0781 75.009 16.2345 75.3442 16.4579C75.6905 16.6702 75.9642 16.9663 76.1653 17.3461C76.3776 17.7148 76.4837 18.1729 76.4837 18.7203C76.4837 19.2789 76.2994 19.8151 75.9307 20.3291C75.562 20.8318 75.009 21.1949 74.2716 21.4183V21.4854C75.0649 21.5971 75.6905 21.8932 76.1486 22.3736C76.6066 22.854 76.8356 23.4963 76.8356 24.3007C76.8356 24.9375 76.7072 25.4906 76.4502 25.9598C76.2044 26.4178 75.8748 26.7977 75.4615 27.0993C75.0593 27.401 74.5901 27.6244 74.0538 27.7697C73.5287 27.9037 72.9924 27.9708 72.445 27.9708C71.7077 27.9708 71.0988 27.9261 70.6184 27.8367C70.1492 27.7585 69.7581 27.6579 69.4453 27.535L69.7972 26.2782C70.0542 26.4011 70.4117 26.5072 70.8698 26.5966C71.339 26.686 71.9032 26.7307 72.5623 26.7307C72.9087 26.7307 73.2494 26.686 73.5846 26.5966C73.9197 26.496 74.2158 26.3508 74.4727 26.1609C74.7409 25.9598 74.9531 25.714 75.1096 25.4235C75.2771 25.1331 75.3609 24.7867 75.3609 24.3845C75.3609 23.6807 75.1151 23.1668 74.6236 22.8428C74.132 22.5076 73.4896 22.3121 72.6964 22.2562C72.5623 22.2451 72.4338 22.2395 72.3109 22.2395C72.1992 22.2283 72.0819 22.2227 71.959 22.2227H71.0373Z" fill="white"/>
<path d="M84.7792 24.5186H80.4557L79.2826 27.7697H77.9084L82.3493 15.8546H82.9861L87.4438 27.7697H85.9858L84.7792 24.5186ZM80.9081 23.312H84.3603L83.0532 19.7425L82.6342 17.9662H82.6174L82.1985 19.776L80.9081 23.312Z" fill="white"/>
<path d="M95.2859 17.2791H90.3926V27.7697H89.0016V16.039H95.2859V17.2791Z" fill="white"/>
<path d="M96.4151 16.1563C96.8397 16.0557 97.2977 15.9887 97.7893 15.9552C98.2809 15.9217 98.7668 15.9049 99.2472 15.9049C99.7612 15.9049 100.281 15.9552 100.806 16.0557C101.342 16.1563 101.828 16.3406 102.264 16.6088C102.699 16.8769 103.051 17.2456 103.319 17.7148C103.599 18.184 103.738 18.7817 103.738 19.5079C103.738 20.2229 103.61 20.8262 103.353 21.3178C103.096 21.8094 102.755 22.2116 102.331 22.5244C101.906 22.826 101.42 23.0439 100.873 23.1779C100.325 23.312 99.7612 23.379 99.1802 23.379C99.1244 23.379 99.0294 23.379 98.8953 23.379C98.7724 23.379 98.6384 23.379 98.4931 23.379C98.3591 23.3679 98.225 23.3567 98.0909 23.3455C97.9569 23.3344 97.8619 23.3232 97.8061 23.312V27.7697H96.4151V16.1563ZM99.2808 17.1115C98.9903 17.1115 98.711 17.1171 98.4429 17.1283C98.1747 17.1394 97.9625 17.1674 97.8061 17.2121V22.0719C97.8619 22.0942 97.9513 22.111 98.0742 22.1222C98.1971 22.1222 98.3256 22.1278 98.4596 22.1389C98.5937 22.1389 98.7222 22.1389 98.8451 22.1389C98.9679 22.1389 99.0573 22.1389 99.1132 22.1389C99.493 22.1389 99.8673 22.1054 100.236 22.0384C100.616 21.9602 100.957 21.8261 101.258 21.6362C101.56 21.4463 101.8 21.1781 101.979 20.8318C102.169 20.4855 102.264 20.0442 102.264 19.5079C102.264 19.0499 102.174 18.67 101.996 18.3684C101.828 18.0555 101.599 17.8098 101.308 17.631C101.029 17.4411 100.711 17.307 100.353 17.2288C99.9958 17.1506 99.6383 17.1115 99.2808 17.1115Z" fill="white"/>
<path d="M108.767 22.2227L109.202 23.7142H109.286L109.621 22.1725L111.867 16.039H113.291L110.325 23.6639C110.023 24.4571 109.755 25.1219 109.521 25.6581C109.297 26.1832 109.068 26.6134 108.834 26.9485C108.599 27.2725 108.348 27.5071 108.079 27.6524C107.811 27.7864 107.482 27.8535 107.091 27.8535C106.722 27.8535 106.426 27.8255 106.203 27.7697C105.99 27.7026 105.789 27.6077 105.599 27.4848L106.018 26.3285C106.242 26.4514 106.448 26.5296 106.638 26.5631C106.828 26.5966 107.001 26.6134 107.158 26.6134C107.471 26.6134 107.733 26.4569 107.945 26.1441C108.158 25.8201 108.342 25.3453 108.498 24.7197L104.158 16.039H105.767L108.767 22.2227Z" fill="white"/>
<path d="M115.633 22.2227V21.0497H115.901C116.002 21.0497 116.124 21.0497 116.27 21.0497C116.415 21.0497 116.56 21.0441 116.705 21.0329C116.862 21.0217 117.007 21.0161 117.141 21.0161C117.286 21.005 117.404 20.9882 117.493 20.9659C117.784 20.9212 118.057 20.8486 118.314 20.748C118.571 20.6363 118.795 20.4966 118.984 20.3291C119.174 20.1615 119.325 19.966 119.437 19.7425C119.549 19.5191 119.605 19.2733 119.605 19.0052C119.605 18.6365 119.543 18.3293 119.42 18.0835C119.297 17.8377 119.124 17.6422 118.901 17.4969C118.688 17.3405 118.437 17.2344 118.147 17.1785C117.867 17.1115 117.566 17.078 117.242 17.078C116.638 17.078 116.124 17.1227 115.7 17.2121C115.275 17.2903 114.935 17.3908 114.678 17.5137L114.309 16.4077C114.532 16.2848 114.935 16.1619 115.516 16.039C116.097 15.9049 116.75 15.8379 117.476 15.8379C117.923 15.8379 118.359 15.8882 118.783 15.9887C119.219 16.0781 119.605 16.2345 119.94 16.4579C120.286 16.6702 120.56 16.9663 120.761 17.3461C120.973 17.7148 121.079 18.1729 121.079 18.7203C121.079 19.2789 120.895 19.8151 120.526 20.3291C120.158 20.8318 119.605 21.1949 118.867 21.4183V21.4854C119.66 21.5971 120.286 21.8932 120.744 22.3736C121.202 22.854 121.431 23.4963 121.431 24.3007C121.431 24.9375 121.303 25.4906 121.046 25.9598C120.8 26.4178 120.47 26.7977 120.057 27.0993C119.655 27.401 119.186 27.6244 118.649 27.7697C118.124 27.9037 117.588 27.9708 117.041 27.9708C116.303 27.9708 115.694 27.9261 115.214 27.8367C114.745 27.7585 114.354 27.6579 114.041 27.535L114.393 26.2782C114.65 26.4011 115.007 26.5072 115.465 26.5966C115.935 26.686 116.499 26.7307 117.158 26.7307C117.504 26.7307 117.845 26.686 118.18 26.5966C118.515 26.496 118.811 26.3508 119.068 26.1609C119.336 25.9598 119.549 25.714 119.705 25.4235C119.873 25.1331 119.956 24.7867 119.956 24.3845C119.956 23.6807 119.711 23.1668 119.219 22.8428C118.728 22.5076 118.085 22.3121 117.292 22.2562C117.158 22.2451 117.029 22.2395 116.906 22.2395C116.795 22.2283 116.677 22.2227 116.555 22.2227H115.633Z" fill="white"/>
<path d="M130.967 19.8263L131.067 18.4857H131L130.28 19.8598L124.615 27.7697H123.794V16.039H125.185V24.0829L125.068 25.4068H125.135L125.872 24.0326L131.537 16.039H132.358V27.7697H130.967V19.8263Z" fill="white"/>
<path d="M142.776 17.2791H139.122V27.7697H137.731V17.2791H134.078V16.039H142.776V17.2791Z" fill="white"/>
<path d="M144.496 16.039H150.881V17.2791H145.887V21.1167H150.462V22.3568H145.887V26.5296H150.965V27.7697H144.496V16.039Z" fill="white"/>
<path d="M165.021 18.7203C165.021 18.9996 164.976 19.2845 164.887 19.5749C164.797 19.8654 164.663 20.1391 164.484 20.3961C164.306 20.6419 164.077 20.8597 163.797 21.0497C163.518 21.2396 163.188 21.3848 162.809 21.4854V21.5524C163.144 21.6083 163.462 21.7032 163.764 21.8373C164.077 21.9714 164.35 22.1557 164.585 22.3903C164.82 22.6249 165.01 22.9098 165.155 23.245C165.3 23.5801 165.373 23.9767 165.373 24.4348C165.373 25.0381 165.244 25.5632 164.987 26.0101C164.741 26.4458 164.412 26.8033 163.998 27.0826C163.596 27.3619 163.133 27.5686 162.608 27.7026C162.082 27.8367 161.546 27.9037 160.999 27.9037C160.809 27.9037 160.585 27.9037 160.328 27.9037C160.071 27.9037 159.803 27.8926 159.524 27.8702C159.245 27.859 158.965 27.8367 158.686 27.8032C158.407 27.7808 158.161 27.7417 157.949 27.6859V16.1395C158.362 16.0725 158.843 16.0166 159.39 15.972C159.937 15.9273 160.535 15.9049 161.183 15.9049C161.619 15.9049 162.06 15.944 162.507 16.0222C162.965 16.0893 163.378 16.2289 163.747 16.4412C164.116 16.6423 164.417 16.9272 164.652 17.2958C164.898 17.6645 165.021 18.1393 165.021 18.7203ZM161.133 26.6971C161.49 26.6971 161.837 26.658 162.172 26.5798C162.507 26.4905 162.803 26.3564 163.06 26.1776C163.317 25.9877 163.518 25.7587 163.663 25.4906C163.82 25.2224 163.898 24.904 163.898 24.5353C163.898 24.0773 163.803 23.7086 163.613 23.4293C163.434 23.15 163.194 22.9322 162.892 22.7757C162.602 22.6193 162.272 22.5132 161.904 22.4573C161.535 22.4015 161.166 22.3736 160.798 22.3736H159.34V26.5798C159.418 26.6022 159.53 26.6189 159.675 26.6301C159.82 26.6413 159.977 26.6525 160.144 26.6636C160.312 26.6748 160.485 26.686 160.664 26.6971C160.842 26.6971 160.999 26.6971 161.133 26.6971ZM160.211 21.2005C160.401 21.2005 160.63 21.1949 160.898 21.1837C161.166 21.1726 161.39 21.1558 161.569 21.1335C161.837 21.0441 162.088 20.9379 162.323 20.815C162.557 20.681 162.764 20.5302 162.943 20.3626C163.133 20.1838 163.278 19.9827 163.378 19.7593C163.49 19.5247 163.546 19.2733 163.546 19.0052C163.546 18.6365 163.473 18.3348 163.328 18.1002C163.194 17.8544 163.01 17.6589 162.775 17.5137C162.541 17.3685 162.272 17.2679 161.971 17.2121C161.669 17.145 161.362 17.1115 161.049 17.1115C160.68 17.1115 160.34 17.1227 160.027 17.145C159.725 17.1562 159.496 17.1785 159.34 17.2121V21.2005H160.211Z" fill="white"/>
<path d="M79.7455 52.6712H70.8319V49.5794H79.7455V52.6712ZM74.8287 40.2434H75.7638L69.5197 57.935H66.0508L73.5768 36.8198H77.0005L84.5417 57.935H81.0577L74.8287 40.2434Z" fill="white"/>
<path d="M86.7314 65.2348V42.9582H89.4161L90.0646 45.7786L89.0692 45.3413C89.7429 44.5369 90.502 43.8984 91.3466 43.4258C92.2013 42.9432 93.242 42.7018 94.4687 42.7018C95.9065 42.7018 97.1181 43.0538 98.1035 43.7576C99.0989 44.4615 99.853 45.4016 100.366 46.578C100.879 47.7544 101.135 49.0515 101.135 50.4692C101.135 51.887 100.884 53.184 100.381 54.3605C99.8782 55.5369 99.1341 56.477 98.1487 57.1809C97.1634 57.8847 95.9367 58.2366 94.4687 58.2366C93.2922 58.2366 92.2968 58.0456 91.4824 57.6635C90.678 57.2814 89.959 56.6882 89.3256 55.8838L90.0948 55.2051V65.2348H86.7314ZM93.9257 55.4011C95.1122 55.4011 96.0372 54.9537 96.7008 54.0588C97.3645 53.1539 97.6963 51.9574 97.6963 50.4692C97.6963 48.9711 97.3645 47.7745 96.7008 46.8796C96.0372 45.9848 95.1122 45.5373 93.9257 45.5373C93.0811 45.5373 92.3571 45.7384 91.7538 46.1406C91.1606 46.5328 90.7081 47.0958 90.3964 47.8298C90.0847 48.5638 89.9289 49.4436 89.9289 50.4692C89.9289 51.5149 90.0847 52.4048 90.3964 53.1388C90.7081 53.8728 91.1606 54.4359 91.7538 54.828C92.3571 55.2101 93.0811 55.4011 93.9257 55.4011Z" fill="white"/>
<path d="M104.118 65.2348V42.9582H106.803L107.452 45.7786L106.456 45.3413C107.13 44.5369 107.889 43.8984 108.734 43.4258C109.588 42.9432 110.629 42.7018 111.856 42.7018C113.294 42.7018 114.505 43.0538 115.491 43.7576C116.486 44.4615 117.24 45.4016 117.753 46.578C118.266 47.7544 118.522 49.0515 118.522 50.4692C118.522 51.887 118.271 53.184 117.768 54.3605C117.265 55.5369 116.521 56.477 115.536 57.1809C114.55 57.8847 113.324 58.2366 111.856 58.2366C110.679 58.2366 109.684 58.0456 108.869 57.6635C108.065 57.2814 107.346 56.6882 106.713 55.8838L107.482 55.2051V65.2348H104.118ZM111.313 55.4011C112.499 55.4011 113.424 54.9537 114.088 54.0588C114.752 53.1539 115.083 51.9574 115.083 50.4692C115.083 48.9711 114.752 47.7745 114.088 46.8796C113.424 45.9848 112.499 45.5373 111.313 45.5373C110.468 45.5373 109.744 45.7384 109.141 46.1406C108.548 46.5328 108.095 47.0958 107.783 47.8298C107.472 48.5638 107.316 49.4436 107.316 50.4692C107.316 51.5149 107.472 52.4048 107.783 53.1388C108.095 53.8728 108.548 54.4359 109.141 54.828C109.744 55.2101 110.468 55.4011 111.313 55.4011Z" fill="white"/>
<path d="M131.075 58.3573C128.943 58.3573 127.088 57.9048 125.509 56.9999C123.931 56.0949 122.704 54.818 121.829 53.169C120.965 51.52 120.532 49.5794 120.532 47.3472C120.532 45.1351 121 43.2096 121.935 41.5707C122.88 39.9317 124.177 38.6598 125.826 37.7549C127.485 36.8499 129.386 36.3974 131.527 36.3974C132.653 36.3974 133.724 36.5131 134.74 36.7443C135.765 36.9756 136.65 37.2672 137.394 37.6191L137.032 40.8769C136.248 40.535 135.398 40.2535 134.483 40.0323C133.568 39.8111 132.593 39.7005 131.557 39.7005C129.908 39.7005 128.551 40.0373 127.485 40.711C126.429 41.3847 125.645 42.2946 125.132 43.4409C124.62 44.5871 124.363 45.8792 124.363 47.317C124.363 48.8152 124.62 50.1475 125.132 51.3138C125.655 52.4802 126.44 53.3952 127.485 54.0588C128.541 54.7224 129.868 55.0542 131.467 55.0542C131.909 55.0542 132.407 55.0191 132.96 54.9487C133.513 54.8783 134.056 54.7727 134.589 54.6319V50.3184H131.542V47.3472H138.088V56.7586C137.324 57.201 136.333 57.578 135.117 57.8897C133.9 58.2014 132.553 58.3573 131.075 58.3573Z" fill="white"/>
<path d="M144.965 58.2366C144.121 58.2366 143.362 58.0556 142.688 57.6937C142.014 57.3317 141.481 56.8189 141.089 56.1553C140.707 55.4916 140.516 54.7074 140.516 53.8024C140.516 52.9578 140.707 52.2339 141.089 51.6306C141.481 51.0172 141.994 50.5095 142.628 50.1073C143.271 49.7051 143.97 49.3883 144.724 49.1571C145.488 48.9158 146.252 48.7398 147.017 48.6292C147.791 48.5186 148.495 48.4583 149.128 48.4482C149.098 47.3824 148.852 46.6484 148.389 46.2462C147.937 45.8339 147.218 45.6278 146.232 45.6278C145.599 45.6278 144.965 45.7183 144.332 45.8993C143.698 46.0803 142.98 46.397 142.175 46.8495L141.828 44.1045C142.623 43.6621 143.467 43.3202 144.362 43.0789C145.267 42.8275 146.192 42.7018 147.137 42.7018C148.314 42.7018 149.299 42.908 150.093 43.3202C150.888 43.7325 151.486 44.4112 151.888 45.3563C152.3 46.3015 152.507 47.5634 152.507 49.142V52.8221C152.507 53.5561 152.542 54.1141 152.612 54.4962C152.682 54.8783 152.818 55.1397 153.019 55.2805C153.23 55.4213 153.547 55.4916 153.969 55.4916H154.377L154.015 58.2366H153.08C152.396 58.2366 151.828 58.1562 151.375 57.9953C150.923 57.8445 150.551 57.6283 150.259 57.3468C149.978 57.0652 149.736 56.7284 149.535 56.3362C149.022 56.9194 148.359 57.382 147.544 57.7238C146.74 58.0657 145.88 58.2366 144.965 58.2366ZM146.142 55.6274C146.614 55.6274 147.132 55.5067 147.695 55.2654C148.258 55.014 148.741 54.6621 149.143 54.2096V50.7407C148.178 50.7709 147.308 50.8966 146.534 51.1178C145.76 51.3289 145.146 51.6457 144.694 52.068C144.251 52.4802 144.03 53.0081 144.03 53.6516C144.03 54.3253 144.206 54.823 144.558 55.1447C144.92 55.4665 145.448 55.6274 146.142 55.6274Z" fill="white"/>
<path d="M160.597 58.2366C159.682 58.2366 158.938 58.0607 158.365 57.7087C157.802 57.3568 157.389 56.8943 157.128 56.3212C156.867 55.738 156.736 55.1045 156.736 54.4208V35.3115H160.114V52.8824C160.114 53.6968 160.165 54.2901 160.265 54.6621C160.366 55.0241 160.557 55.2553 160.838 55.3559C161.13 55.4464 161.562 55.4916 162.135 55.4916L161.773 58.2366H160.597Z" fill="white"/>
<path d="M168.528 58.2366C167.613 58.2366 166.869 58.0607 166.296 57.7087C165.733 57.3568 165.321 56.8943 165.059 56.3212C164.798 55.738 164.667 55.1045 164.667 54.4208V35.3115H168.046V52.8824C168.046 53.6968 168.096 54.2901 168.196 54.6621C168.297 55.0241 168.488 55.2553 168.769 55.3559C169.061 55.4464 169.493 55.4916 170.067 55.4916L169.705 58.2366H168.528Z" fill="white"/>
<path d="M179.675 58.2366C177.886 58.2366 176.387 57.8746 175.181 57.1507C173.984 56.4267 173.079 55.4715 172.466 54.2851C171.863 53.0885 171.561 51.7764 171.561 50.3486C171.561 48.9711 171.843 47.7041 172.406 46.5478C172.979 45.3815 173.808 44.4514 174.894 43.7576C175.99 43.0538 177.318 42.7018 178.876 42.7018C180.243 42.7018 181.41 42.9784 182.375 43.5314C183.34 44.0844 184.074 44.8486 184.577 45.8239C185.09 46.7892 185.346 47.8952 185.346 49.142C185.346 49.4235 185.326 49.7201 185.286 50.0318C185.256 50.3335 185.211 50.6452 185.15 50.9669H175.045C175.186 52.0629 175.493 52.9327 175.965 53.5762C176.438 54.2197 177.026 54.6872 177.73 54.9788C178.434 55.2604 179.193 55.4011 180.007 55.4011C180.812 55.4011 181.586 55.3056 182.33 55.1146C183.084 54.9135 183.783 54.642 184.426 54.3001L184.683 57.0904C184.11 57.3719 183.401 57.6333 182.556 57.8746C181.711 58.116 180.751 58.2366 179.675 58.2366ZM175.196 48.6744H181.908C181.908 48.1315 181.802 47.6237 181.591 47.1511C181.39 46.6685 181.063 46.2814 180.61 45.9898C180.168 45.6881 179.585 45.5373 178.861 45.5373C177.805 45.5373 176.981 45.8239 176.387 46.397C175.804 46.9701 175.407 47.7293 175.196 48.6744Z" fill="white"/>
<path d="M188.262 57.935V42.9582H191.309L191.475 44.8737C191.998 44.2604 192.606 43.7375 193.3 43.3051C193.994 42.8728 194.743 42.6566 195.547 42.6566C195.788 42.6566 196.015 42.6817 196.226 42.732L195.954 46.1557C195.763 46.1054 195.572 46.0753 195.381 46.0652C195.19 46.0451 194.994 46.035 194.793 46.035C194.109 46.035 193.481 46.1909 192.908 46.5026C192.335 46.8143 191.932 47.1763 191.701 47.5885V57.935H188.262Z" fill="white"/>
<path d="M199.55 65.2348L202.913 57.0602L196.684 42.9582H200.44L204.572 53.1388L208.584 42.9582H212.325L203.034 65.2348H199.55Z" fill="white"/>
<g clip-path="url(#clip0_7711_5057)">
<path d="M46.7448 15.7109H21.561C16.2984 15.7109 12.0322 19.9771 12.0322 25.2397V50.4236C12.0322 55.6861 16.2984 59.9523 21.561 59.9523H46.7448C52.0074 59.9523 56.2736 55.6861 56.2736 50.4236V25.2397C56.2736 19.9771 52.0074 15.7109 46.7448 15.7109Z" fill="#CF152D"/>
<path d="M22.8165 18.6026C22.4828 18.6031 22.1629 18.7356 21.9272 18.971C21.6915 19.2064 21.5592 19.5254 21.5596 19.858C21.5599 20.1905 21.6927 20.5093 21.9288 20.7442C22.165 20.9792 22.4851 21.1111 22.8188 21.1109C23.1525 21.1108 23.4725 20.9786 23.7084 20.7434C23.9443 20.5082 24.0769 20.1894 24.0769 19.8569V19.8543C24.0763 19.5218 23.9431 19.2032 23.7068 18.9684C23.4705 18.7337 23.1502 18.6021 22.8165 18.6025V18.6026ZM45.3296 18.6026C44.9958 18.6031 44.6759 18.7356 44.4402 18.971C44.2045 19.2064 44.0723 19.5254 44.0726 19.858C44.0729 20.1905 44.2058 20.5093 44.4419 20.7443C44.6781 20.9792 44.9983 21.1111 45.332 21.1109C45.6657 21.1107 45.9856 20.9785 46.2215 20.7434C46.4574 20.5082 46.5899 20.1893 46.5899 19.8569V19.8543C46.5893 19.5218 46.4562 19.2032 46.2198 18.9684C45.9835 18.7337 45.6633 18.6021 45.3296 18.6025V18.6026Z" fill="#C73148"/>
<path d="M22.7669 19.6843C22.3295 19.7077 22.3517 20.3439 22.3517 20.3439C24.7024 24.9216 29.0308 27.167 34.0222 27.1672C39.007 27.16 43.3784 24.8898 45.726 20.3181C45.726 20.3181 45.819 19.4573 44.9029 19.7557C42.4953 23.7462 38.4506 26.107 34.0251 26.1144C29.5913 26.1155 25.561 23.7796 23.1489 19.7814C22.9931 19.7062 22.8678 19.6788 22.7669 19.6843ZM38.6764 37.478L37.339 41.461L36.0371 37.481H34.7662L36.8181 43.2706H37.8074L39.1478 39.4673L40.4866 43.2706H41.4841L43.5315 37.481H42.2924L40.9883 41.461L39.6509 37.478H38.6764ZM31.5728 37.4795L28.9779 43.2677H30.1978L30.6987 42.1471L30.7342 42.0625H33.4303L33.9586 43.2677H35.2118L32.6405 37.5133L32.6176 37.4795L31.5728 37.4795ZM50.3654 37.4802V43.264H51.5446V37.4802L50.3654 37.4802ZM16.5537 37.4809V43.2728H17.7492V40.9206H20.4476V43.2728H21.6431V37.481H20.4476V39.8177H17.7492V37.481L16.5537 37.4809ZM27.175 37.4824V40.7976C27.175 41.7393 26.6997 42.2421 25.8362 42.2421C24.9678 42.2421 24.4892 41.7253 24.4892 40.7578V37.4861H23.2945V40.7977C23.2945 42.4272 24.2157 43.3612 25.8207 43.3612C27.4409 43.3612 28.3698 42.4092 28.3698 40.7498V37.4825L27.175 37.4824ZM44.495 37.4846V43.2684H48.943V42.2141H45.6735V40.7799H47.8473V39.725H45.6735V38.5397H48.8292V37.4847L44.495 37.4846ZM32.0789 38.9452L32.9316 40.8844L32.9892 41.0177H31.182L31.2388 40.8844L32.0789 38.9452Z" fill="white"/>
</g>
<defs>
<clipPath id="clip0_7711_5057">
<rect width="44.6883" height="44.6883" fill="white" transform="translate(11.7305 15.4805)"/>
</clipPath>
</defs>
</svg>
