<svg width="224" height="74" viewBox="0 0 224 74" fill="none" xmlns="http://www.w3.org/2000/svg">
<path d="M0 11.2165C0 5.35484 4.75181 0.603027 10.6135 0.603027H213.387C219.248 0.603027 224 5.35484 224 11.2165V63.1666C224 69.0283 219.248 73.7801 213.387 73.7801H10.6135C4.75181 73.7801 0 69.0283 0 63.1666V11.2165Z" fill="black"/>
<path d="M30.1042 57.6654C24.0227 57.6304 18.9922 45.2159 18.9922 38.8935C18.9922 28.5659 26.7397 26.3049 29.7255 26.3049C31.071 26.3049 32.5079 26.8333 33.7751 27.3009C34.6613 27.6271 35.5779 27.9638 36.0876 27.9638C36.3927 27.9638 37.1117 27.6774 37.7465 27.4261C39.1003 26.8871 40.7849 26.2173 42.7466 26.2173C42.7501 26.2173 42.7549 26.2173 42.7583 26.2173C44.2231 26.2173 48.6645 26.5388 51.3346 30.5487L51.9601 31.4886L51.0599 32.1678C49.774 33.1382 47.4276 34.9082 47.4276 38.4143C47.4276 42.5668 50.0849 44.1638 51.3615 44.9319C51.9251 45.2709 52.5084 45.6205 52.5084 46.385C52.5084 46.8842 48.5242 57.6035 42.7384 57.6035C41.3227 57.6035 40.322 57.1779 39.4393 56.8027C38.5461 56.4227 37.7756 56.0954 36.5025 56.0954C35.8572 56.0954 35.0411 56.4005 34.1772 56.7244C32.9966 57.165 31.6603 57.6654 30.144 57.6654H30.1042Z" fill="white"/>
<path d="M43.3596 16.8032C43.5103 22.2363 39.6248 26.0055 35.7438 25.7691C35.1043 21.4333 39.6243 16.8032 43.3596 16.8032Z" fill="white"/>
<path d="M82.7151 52.9271H74.296L72.2742 58.9287H68.708L76.6826 36.7241H80.3876L88.362 58.9287H84.7353L82.7151 52.9271ZM75.1679 50.1575H81.8414L78.5516 40.4174H78.4595L75.1679 50.1575ZM105.584 50.8352C105.584 55.8658 102.906 59.098 98.8637 59.098C97.8398 59.1518 96.8216 58.9147 95.9255 58.4138C95.0294 57.9129 94.2918 57.1684 93.797 56.2657H93.7206V64.2842H90.4149V42.7398H93.6145V45.4325H93.6754C94.1929 44.534 94.943 43.7934 95.8459 43.2895C96.7488 42.7855 97.7707 42.537 98.8029 42.5705C102.89 42.5705 105.584 45.8186 105.584 50.8352ZM102.186 50.8352C102.186 47.5577 100.502 45.4028 97.931 45.4028C95.4053 45.4028 93.7067 47.6029 93.7067 50.835C93.7067 54.0971 95.4053 56.2816 97.931 56.2816C100.502 56.2816 102.186 54.1427 102.186 50.8352ZM123.309 50.8352C123.309 55.8658 120.63 59.098 116.588 59.098C115.564 59.1518 114.546 58.9147 113.649 58.4138C112.753 57.9129 112.016 57.1684 111.521 56.2657H111.445V64.2842H108.139V42.7398H111.339V45.4325H111.399C111.917 44.534 112.667 43.7934 113.57 43.2895C114.473 42.7855 115.495 42.537 116.527 42.5705C120.614 42.5705 123.309 45.8186 123.309 50.8352ZM119.911 50.8352C119.911 47.5577 118.226 45.4028 115.655 45.4028C113.129 45.4028 111.431 47.6029 111.431 50.835C111.431 54.0971 113.129 56.2816 115.655 56.2816C118.226 56.2816 119.911 54.1427 119.911 50.8352ZM135.021 52.742C135.266 54.9439 137.394 56.3897 140.302 56.3897C143.088 56.3897 145.092 54.9439 145.092 52.9584C145.092 51.2349 143.883 50.203 141.021 49.4958L138.158 48.8025C134.102 47.8176 132.22 45.9108 132.22 42.8165C132.22 38.9854 135.541 36.354 140.255 36.354C144.924 36.354 148.123 38.9854 148.231 42.8165H144.894C144.695 40.6007 142.872 39.2631 140.21 39.2631C137.547 39.2631 135.725 40.6165 135.725 42.586C135.725 44.156 136.889 45.0797 139.736 45.7867L142.169 46.3875C146.701 47.4648 148.582 49.295 148.582 52.5427C148.582 56.6969 145.292 59.2988 140.057 59.2988C135.158 59.2988 131.851 56.7579 131.638 52.7419L135.021 52.742ZM155.719 38.9088V42.7398H158.781V45.3714H155.719V54.2961C155.719 55.6826 156.332 56.3286 157.678 56.3286C158.042 56.3222 158.405 56.2966 158.766 56.2517V58.8677C158.16 58.9813 157.545 59.0327 156.93 59.0211C153.67 59.0211 152.398 57.7902 152.398 54.6505V45.3714H150.057V42.7398H152.398V38.9088H155.719ZM160.553 50.8352C160.553 45.7415 163.537 42.5408 168.191 42.5408C172.86 42.5408 175.83 45.7415 175.83 50.8352C175.83 55.9427 172.875 59.1295 168.19 59.1295C163.508 59.1295 160.553 55.9427 160.553 50.8352ZM172.462 50.8352C172.462 47.3411 170.869 45.2787 168.19 45.2787C165.512 45.2787 163.919 47.3567 163.919 50.8352C163.919 54.3433 165.512 56.3897 168.19 56.3897C170.869 56.3897 172.462 54.3433 172.462 50.8352ZM178.555 42.7398H181.708V45.4953H181.784C181.997 44.6347 182.499 43.8741 183.204 43.3415C183.91 42.8089 184.776 42.5366 185.658 42.5705C186.038 42.5691 186.418 42.6107 186.79 42.6944V45.8026C186.309 45.6549 185.808 45.5871 185.305 45.6018C184.825 45.5822 184.346 45.6674 183.902 45.8513C183.457 46.0353 183.058 46.3138 182.73 46.6676C182.403 47.0215 182.156 47.4423 182.006 47.9013C181.856 48.3602 181.806 48.8464 181.861 49.3264V58.9287H178.555V42.7398ZM202.03 54.1738C201.585 57.1127 198.739 59.1295 195.096 59.1295C190.412 59.1295 187.504 55.9742 187.504 50.9119C187.504 45.8341 190.427 42.5408 194.957 42.5408C199.412 42.5408 202.214 45.6176 202.214 50.5261V51.6645H190.841V51.8653C190.788 52.4612 190.862 53.0614 191.058 53.6261C191.254 54.1909 191.567 54.7073 191.977 55.141C192.387 55.5747 192.884 55.9158 193.435 56.1417C193.986 56.3675 194.578 56.4729 195.173 56.4509C195.954 56.5245 196.738 56.3426 197.408 55.9323C198.078 55.522 198.598 54.9053 198.892 54.1738H202.03ZM190.856 49.3422H198.907C198.937 48.8065 198.856 48.2704 198.67 47.7675C198.484 47.2647 198.196 46.806 197.825 46.4201C197.454 46.0343 197.008 45.7297 196.515 45.5255C196.021 45.3213 195.491 45.2218 194.957 45.2333C194.419 45.2301 193.885 45.334 193.387 45.5392C192.889 45.7444 192.436 46.0467 192.055 46.4287C191.674 46.8107 191.372 47.2648 191.166 47.7649C190.96 48.2649 190.855 48.801 190.856 49.3422Z" fill="white"/>
<path d="M71.0373 21.8687V20.6957H71.3055C71.406 20.6957 71.5289 20.6957 71.6741 20.6957C71.8194 20.6957 71.9646 20.6901 72.1099 20.6789C72.2663 20.6677 72.4115 20.6621 72.5456 20.6621C72.6908 20.651 72.8081 20.6342 72.8975 20.6119C73.188 20.5672 73.4617 20.4946 73.7186 20.394C73.9756 20.2823 74.199 20.1426 74.389 19.9751C74.5789 19.8075 74.7297 19.612 74.8414 19.3885C74.9531 19.1651 75.009 18.9193 75.009 18.6512C75.009 18.2825 74.9476 17.9753 74.8247 17.7295C74.7018 17.4837 74.5286 17.2882 74.3052 17.1429C74.0929 16.9865 73.8415 16.8804 73.551 16.8245C73.2717 16.7575 72.9701 16.724 72.6461 16.724C72.0428 16.724 71.5289 16.7687 71.1044 16.8581C70.6798 16.9363 70.3391 17.0368 70.0821 17.1597L69.7134 16.0537C69.9369 15.9308 70.3391 15.8079 70.92 15.685C71.501 15.5509 72.1545 15.4839 72.8807 15.4839C73.3276 15.4839 73.7633 15.5342 74.1879 15.6347C74.6236 15.7241 75.009 15.8805 75.3442 16.1039C75.6905 16.3162 75.9642 16.6123 76.1653 16.9921C76.3776 17.3608 76.4837 17.8188 76.4837 18.3663C76.4837 18.9249 76.2994 19.4611 75.9307 19.9751C75.562 20.4778 75.009 20.8409 74.2716 21.0643V21.1314C75.0649 21.2431 75.6905 21.5391 76.1486 22.0195C76.6066 22.4999 76.8356 23.1423 76.8356 23.9467C76.8356 24.5835 76.7072 25.1366 76.4502 25.6058C76.2044 26.0638 75.8748 26.4437 75.4615 26.7453C75.0593 27.047 74.5901 27.2704 74.0538 27.4157C73.5287 27.5497 72.9924 27.6168 72.445 27.6168C71.7077 27.6168 71.0988 27.5721 70.6184 27.4827C70.1492 27.4045 69.7581 27.3039 69.4453 27.181L69.7972 25.9242C70.0542 26.0471 70.4117 26.1532 70.8698 26.2426C71.339 26.332 71.9032 26.3767 72.5623 26.3767C72.9087 26.3767 73.2494 26.332 73.5846 26.2426C73.9197 26.142 74.2158 25.9968 74.4727 25.8069C74.7409 25.6058 74.9531 25.36 75.1096 25.0695C75.2771 24.779 75.3609 24.4327 75.3609 24.0305C75.3609 23.3267 75.1151 22.8128 74.6236 22.4888C74.132 22.1536 73.4896 21.9581 72.6964 21.9022C72.5623 21.8911 72.4338 21.8855 72.3109 21.8855C72.1992 21.8743 72.0819 21.8687 71.959 21.8687H71.0373Z" fill="white"/>
<path d="M84.7792 24.1646H80.4557L79.2826 27.4157H77.9084L82.3493 15.5006H82.9861L87.4438 27.4157H85.9858L84.7792 24.1646ZM80.9081 22.958H84.3603L83.0532 19.3885L82.6342 17.6122H82.6174L82.1985 19.422L80.9081 22.958Z" fill="white"/>
<path d="M95.2859 16.9251H90.3926V27.4157H89.0016V15.685H95.2859V16.9251Z" fill="white"/>
<path d="M96.4151 15.8023C96.8397 15.7017 97.2977 15.6347 97.7893 15.6012C98.2809 15.5677 98.7668 15.5509 99.2472 15.5509C99.7612 15.5509 100.281 15.6012 100.806 15.7017C101.342 15.8023 101.828 15.9866 102.264 16.2548C102.699 16.5229 103.051 16.8916 103.319 17.3608C103.599 17.83 103.738 18.4277 103.738 19.1539C103.738 19.8689 103.61 20.4722 103.353 20.9638C103.096 21.4554 102.755 21.8576 102.331 22.1704C101.906 22.472 101.42 22.6899 100.873 22.8239C100.325 22.958 99.7612 23.025 99.1802 23.025C99.1244 23.025 99.0294 23.025 98.8953 23.025C98.7724 23.025 98.6384 23.025 98.4931 23.025C98.3591 23.0139 98.225 23.0027 98.0909 22.9915C97.9569 22.9803 97.8619 22.9692 97.8061 22.958V27.4157H96.4151V15.8023ZM99.2808 16.7575C98.9903 16.7575 98.711 16.7631 98.4429 16.7743C98.1747 16.7854 97.9625 16.8134 97.8061 16.8581V21.7179C97.8619 21.7402 97.9513 21.757 98.0742 21.7682C98.1971 21.7682 98.3256 21.7738 98.4596 21.7849C98.5937 21.7849 98.7222 21.7849 98.8451 21.7849C98.9679 21.7849 99.0573 21.7849 99.1132 21.7849C99.493 21.7849 99.8673 21.7514 100.236 21.6844C100.616 21.6062 100.957 21.4721 101.258 21.2822C101.56 21.0923 101.8 20.8241 101.979 20.4778C102.169 20.1315 102.264 19.6902 102.264 19.1539C102.264 18.6959 102.174 18.316 101.996 18.0144C101.828 17.7015 101.599 17.4558 101.308 17.277C101.029 17.0871 100.711 16.953 100.353 16.8748C99.9958 16.7966 99.6383 16.7575 99.2808 16.7575Z" fill="white"/>
<path d="M108.767 21.8687L109.202 23.3602H109.286L109.621 21.8185L111.867 15.685H113.291L110.325 23.3099C110.023 24.1031 109.755 24.7679 109.521 25.3041C109.297 25.8292 109.068 26.2593 108.834 26.5945C108.599 26.9185 108.348 27.1531 108.079 27.2984C107.811 27.4324 107.482 27.4994 107.091 27.4994C106.722 27.4994 106.426 27.4715 106.203 27.4157C105.99 27.3486 105.789 27.2537 105.599 27.1308L106.018 25.9745C106.242 26.0974 106.448 26.1756 106.638 26.2091C106.828 26.2426 107.001 26.2593 107.158 26.2593C107.471 26.2593 107.733 26.1029 107.945 25.7901C108.158 25.4661 108.342 24.9913 108.498 24.3657L104.158 15.685H105.767L108.767 21.8687Z" fill="white"/>
<path d="M115.633 21.8687V20.6957H115.901C116.002 20.6957 116.124 20.6957 116.27 20.6957C116.415 20.6957 116.56 20.6901 116.705 20.6789C116.862 20.6677 117.007 20.6621 117.141 20.6621C117.286 20.651 117.404 20.6342 117.493 20.6119C117.784 20.5672 118.057 20.4946 118.314 20.394C118.571 20.2823 118.795 20.1426 118.984 19.9751C119.174 19.8075 119.325 19.612 119.437 19.3885C119.549 19.1651 119.605 18.9193 119.605 18.6512C119.605 18.2825 119.543 17.9753 119.42 17.7295C119.297 17.4837 119.124 17.2882 118.901 17.1429C118.688 16.9865 118.437 16.8804 118.147 16.8245C117.867 16.7575 117.566 16.724 117.242 16.724C116.638 16.724 116.124 16.7687 115.7 16.8581C115.275 16.9363 114.935 17.0368 114.678 17.1597L114.309 16.0537C114.532 15.9308 114.935 15.8079 115.516 15.685C116.097 15.5509 116.75 15.4839 117.476 15.4839C117.923 15.4839 118.359 15.5342 118.783 15.6347C119.219 15.7241 119.605 15.8805 119.94 16.1039C120.286 16.3162 120.56 16.6123 120.761 16.9921C120.973 17.3608 121.079 17.8188 121.079 18.3663C121.079 18.9249 120.895 19.4611 120.526 19.9751C120.158 20.4778 119.605 20.8409 118.867 21.0643V21.1314C119.66 21.2431 120.286 21.5391 120.744 22.0195C121.202 22.4999 121.431 23.1423 121.431 23.9467C121.431 24.5835 121.303 25.1366 121.046 25.6058C120.8 26.0638 120.47 26.4437 120.057 26.7453C119.655 27.047 119.186 27.2704 118.649 27.4157C118.124 27.5497 117.588 27.6168 117.041 27.6168C116.303 27.6168 115.694 27.5721 115.214 27.4827C114.745 27.4045 114.354 27.3039 114.041 27.181L114.393 25.9242C114.65 26.0471 115.007 26.1532 115.465 26.2426C115.935 26.332 116.499 26.3767 117.158 26.3767C117.504 26.3767 117.845 26.332 118.18 26.2426C118.515 26.142 118.811 25.9968 119.068 25.8069C119.336 25.6058 119.549 25.36 119.705 25.0695C119.873 24.779 119.956 24.4327 119.956 24.0305C119.956 23.3267 119.711 22.8128 119.219 22.4888C118.728 22.1536 118.085 21.9581 117.292 21.9022C117.158 21.8911 117.029 21.8855 116.906 21.8855C116.795 21.8743 116.677 21.8687 116.555 21.8687H115.633Z" fill="white"/>
<path d="M130.967 19.4723L131.067 18.1317H131L130.28 19.5058L124.615 27.4157H123.794V15.685H125.185V23.7289L125.068 25.0528H125.135L125.872 23.6786L131.537 15.685H132.358V27.4157H130.967V19.4723Z" fill="white"/>
<path d="M142.776 16.9251H139.122V27.4157H137.731V16.9251H134.078V15.685H142.776V16.9251Z" fill="white"/>
<path d="M144.496 15.685H150.881V16.9251H145.887V20.7627H150.462V22.0028H145.887V26.1756H150.965V27.4157H144.496V15.685Z" fill="white"/>
<path d="M165.021 18.3663C165.021 18.6456 164.976 18.9305 164.887 19.2209C164.797 19.5114 164.663 19.7851 164.484 20.0421C164.306 20.2879 164.077 20.5057 163.797 20.6957C163.518 20.8856 163.188 21.0308 162.809 21.1314V21.1984C163.144 21.2543 163.462 21.3492 163.764 21.4833C164.077 21.6174 164.35 21.8017 164.585 22.0363C164.82 22.2709 165.01 22.5558 165.155 22.891C165.3 23.2261 165.373 23.6227 165.373 24.0808C165.373 24.6841 165.244 25.2092 164.987 25.6561C164.741 26.0918 164.412 26.4493 163.998 26.7286C163.596 27.0079 163.133 27.2146 162.608 27.3486C162.082 27.4827 161.546 27.5497 160.999 27.5497C160.809 27.5497 160.585 27.5497 160.328 27.5497C160.071 27.5497 159.803 27.5386 159.524 27.5162C159.245 27.505 158.965 27.4827 158.686 27.4492C158.407 27.4268 158.161 27.3877 157.949 27.3319V15.7855C158.362 15.7185 158.843 15.6626 159.39 15.618C159.937 15.5733 160.535 15.5509 161.183 15.5509C161.619 15.5509 162.06 15.59 162.507 15.6682C162.965 15.7353 163.378 15.8749 163.747 16.0872C164.116 16.2883 164.417 16.5732 164.652 16.9418C164.898 17.3105 165.021 17.7853 165.021 18.3663ZM161.133 26.3431C161.49 26.3431 161.837 26.304 162.172 26.2258C162.507 26.1365 162.803 26.0024 163.06 25.8236C163.317 25.6337 163.518 25.4047 163.663 25.1366C163.82 24.8684 163.898 24.55 163.898 24.1813C163.898 23.7233 163.803 23.3546 163.613 23.0753C163.434 22.796 163.194 22.5782 162.892 22.4217C162.602 22.2653 162.272 22.1592 161.904 22.1033C161.535 22.0475 161.166 22.0195 160.798 22.0195H159.34V26.2258C159.418 26.2482 159.53 26.2649 159.675 26.2761C159.82 26.2873 159.977 26.2985 160.144 26.3096C160.312 26.3208 160.485 26.332 160.664 26.3431C160.842 26.3431 160.999 26.3431 161.133 26.3431ZM160.211 20.8465C160.401 20.8465 160.63 20.8409 160.898 20.8297C161.166 20.8186 161.39 20.8018 161.569 20.7794C161.837 20.6901 162.088 20.5839 162.323 20.461C162.557 20.327 162.764 20.1762 162.943 20.0086C163.133 19.8298 163.278 19.6287 163.378 19.4053C163.49 19.1707 163.546 18.9193 163.546 18.6512C163.546 18.2825 163.473 17.9808 163.328 17.7462C163.194 17.5004 163.01 17.3049 162.775 17.1597C162.541 17.0145 162.272 16.9139 161.971 16.8581C161.669 16.791 161.362 16.7575 161.049 16.7575C160.68 16.7575 160.34 16.7687 160.027 16.791C159.725 16.8022 159.496 16.8245 159.34 16.8581V20.8465H160.211Z" fill="white"/>
</svg>
