<svg width="71" height="70" viewBox="0 0 71 70" fill="none" xmlns="http://www.w3.org/2000/svg">
<path fill-rule="evenodd" clip-rule="evenodd" d="M63.0998 59.0001L60.6998 29.7001C60.5998 28.9001 60.5998 28.2001 60.3998 27.6001C60.2998 26.9001 59.9998 26.3001 59.3998 25.7001C58.7998 25.1001 58.0998 24.9001 57.3998 24.9001C56.7998 24.8001 56.0998 24.8001 55.2998 24.8001H48.4998V22.6001C48.4998 19.5001 47.3998 16.4001 45.0998 14.0001C42.7998 11.6001 39.3998 10.1001 34.9998 10.1001C30.5998 10.1001 27.3998 11.6001 25.3998 14.1001C23.3998 16.5001 22.4998 19.6001 22.4998 22.6001V24.8001H15.7998H15.6998C14.8998 24.8001 14.1998 24.8001 13.5998 24.9001C12.8998 25.0001 12.1998 25.2001 11.5998 25.7001C10.9998 26.3001 10.6998 26.9001 10.5998 27.6001C10.4998 28.2001 10.3998 28.9001 10.2998 29.7001V29.8001L7.8998 59.0001C7.8998 59.0001 7.8998 59.0001 7.8998 59.1001C7.8998 59.5001 7.7998 60.0001 7.7998 60.4001C7.7998 60.9001 7.8998 61.5001 8.3998 62.0001C8.8998 62.5001 9.4998 62.7001 9.8998 62.8001C10.2998 62.9001 10.7998 62.9001 11.1998 62.9001C11.1998 62.9001 11.1998 62.9001 11.2998 62.9001H59.4998C59.4998 62.9001 59.4998 62.9001 59.5998 62.9001C59.9998 62.9001 60.4998 62.9001 60.8998 62.8001C61.3998 62.7001 61.9998 62.6001 62.3998 62.0001C62.8998 61.5001 62.9998 60.9001 62.9998 60.4001C63.0998 59.9001 63.0998 59.5001 63.0998 59.0001ZM25.4998 22.5001C25.4998 20.0001 26.1998 17.6001 27.5998 15.9001C28.9998 14.2001 31.2998 13.0001 34.9998 13.0001C38.5998 13.0001 41.1998 14.2001 42.8998 16.0001C44.5998 17.8001 45.4998 20.1001 45.4998 22.5001V24.7001H25.4998V22.5001ZM59.5998 59.8001H11.3998C11.1998 59.8001 10.9998 59.8001 10.8998 59.8001C10.8998 59.6001 10.8998 59.5001 10.8998 59.3001L13.3998 30.0001C13.4998 29.1001 13.4998 28.6001 13.5998 28.2001C13.5998 28.0001 13.6998 27.9001 13.6998 27.9001C13.6998 27.9001 13.7998 27.9001 13.9998 27.8001C14.3998 27.7001 14.8998 27.7001 15.7998 27.7001H22.4998V36.5001C22.4998 37.3001 23.1998 38.0001 23.9998 38.0001C24.7998 38.0001 25.4998 37.3001 25.4998 36.5001V27.7001H45.4998V36.5001C45.4998 37.3001 46.1998 38.0001 46.9998 38.0001C47.7998 38.0001 48.4998 37.3001 48.4998 36.5001V27.7001H55.1998C56.0998 27.7001 56.6998 27.7001 56.9998 27.8001C57.1998 27.8001 57.2998 27.9001 57.2998 27.9001C57.2998 27.9001 57.3998 28.0001 57.3998 28.2001C57.4998 28.6001 57.4998 29.1001 57.5998 30.0001L59.9998 59.2001C59.9998 59.4001 59.9998 59.6001 59.9998 59.7001C59.9998 59.7001 59.7998 59.8001 59.5998 59.8001Z" fill="#931E3F"/>
</svg>
