<svg width="224" height="74" viewBox="0 0 224 74" fill="none" xmlns="http://www.w3.org/2000/svg">
<path d="M0 11.3937C0 5.53208 4.75181 0.780273 10.6135 0.780273H213.387C219.248 0.780273 224 5.53208 224 11.3937V63.3439C224 69.2055 219.248 73.9573 213.387 73.9573H10.6135C4.75181 73.9573 0 69.2055 0 63.3439V11.3937Z" fill="black"/>
<path d="M19.6669 18.1367C19.2717 18.2391 18.9922 18.5808 18.9922 19.1685C18.9922 20.8931 18.9922 37.157 18.9922 37.157C18.9922 37.157 18.9922 54.733 18.9922 55.5092C18.9922 55.9361 19.1807 56.2222 19.4707 56.3285L38.7858 37.1254L19.6669 18.1367Z" fill="#4DB6AC"/>
<path d="M44.1037 31.834L36.1531 27.2438C36.1531 27.2438 21.5623 18.8185 20.7047 18.3237C20.3334 18.1093 19.9678 18.0529 19.6672 18.1313L38.787 37.12L44.1037 31.834Z" fill="#DCE775"/>
<path d="M20.3474 56.1844C20.8566 55.8896 34.9756 47.7381 44.1455 42.4435L38.7848 37.1201L19.4697 56.3232C19.7071 56.4103 20.0114 56.3778 20.3474 56.1844Z" fill="#D32F2F"/>
<path d="M51.9111 36.3428C51.1493 35.9322 44.1587 31.8675 44.1587 31.8675L44.1003 31.834L38.7827 37.12L44.1434 42.4433C48.3852 39.9941 51.5714 38.1556 51.8566 37.99C52.7601 37.4693 52.673 36.7534 51.9111 36.3428Z" fill="#FBC02D"/>
<path fill-rule="evenodd" clip-rule="evenodd" d="M68.7131 47.362C68.7131 41.3915 73.7314 36.5303 79.702 36.5303C83.0027 36.5303 85.3513 37.8264 87.1236 39.5144L85.037 41.601C83.7704 40.4119 82.0528 39.4894 79.6997 39.4894C75.3397 39.4894 71.9318 42.9997 71.9318 47.3597C71.9318 51.7198 75.3397 55.2347 79.6974 55.2347C82.5244 55.2347 84.1326 54.1002 85.1645 53.066C86.0097 52.2209 86.5632 51.0068 86.7773 49.3416H79.702V46.3893H89.6613C89.766 46.9178 89.8207 47.5511 89.8207 48.2368C89.8207 50.4532 89.2125 53.2027 87.2557 55.1595C85.3513 57.1413 82.923 58.1983 79.6997 58.1983C73.7269 58.1983 68.7085 53.3417 68.7085 47.3666L68.7131 47.362ZM97.8711 44.2458C94.0145 44.2458 90.8663 47.1798 90.8663 51.2186C90.8663 55.237 94.0122 58.1915 97.8711 58.1915C101.73 58.1915 104.871 55.2324 104.871 51.2163C104.871 47.1775 101.728 44.2435 97.8711 44.2458ZM97.8711 55.4488C95.7594 55.4488 93.9347 53.7062 93.9347 51.2209C93.9347 48.7106 95.7571 46.993 97.8711 46.993C99.9827 46.993 101.805 48.7083 101.805 51.2209C101.805 53.7039 99.985 55.4488 97.8711 55.4488ZM113.145 44.2458C109.288 44.2458 106.145 47.1798 106.145 51.2186C106.145 55.237 109.288 58.1915 113.145 58.1915C117.001 58.1915 120.145 55.2324 120.145 51.2163C120.145 47.1775 117.004 44.2435 113.145 44.2458ZM113.145 55.4488C111.033 55.4488 109.208 53.7062 109.208 51.2209C109.208 48.7106 111.031 46.993 113.145 46.993C115.257 46.993 117.081 48.7083 117.081 51.2209C117.081 53.7039 115.257 55.4488 113.145 55.4488ZM131.89 44.6695V45.8039H131.785C131.1 44.9815 129.779 44.2435 128.116 44.2435C124.628 44.2435 121.428 47.3096 121.428 51.2482C121.428 55.1549 124.626 58.196 128.116 58.196C129.779 58.196 131.1 57.458 131.785 56.6128H131.89V57.6152C131.89 60.2827 130.464 61.7109 128.166 61.7109C126.289 61.7109 125.127 60.3624 124.651 59.2302L121.981 60.3396C122.746 62.187 124.783 64.4604 128.163 64.4604C131.754 64.4604 134.792 62.3442 134.792 57.1937V44.6672L131.89 44.6695ZM128.378 55.4488C126.266 55.4488 124.491 53.6765 124.491 51.2482C124.491 48.7926 126.264 46.9953 128.378 46.9953C130.464 46.9953 132.102 48.7903 132.102 51.2482C132.104 53.6765 130.467 55.4488 128.378 55.4488ZM136.909 37.2706H139.975V57.7723H136.909V37.2706ZM148.378 55.4488C146.82 55.4488 145.708 54.7335 145 53.3371L154.326 49.476L154.005 48.6832C153.426 47.1274 151.654 44.2458 148.034 44.2458C144.442 44.2458 141.455 47.0727 141.455 51.2209C141.455 55.1276 144.415 58.1938 148.378 58.1938C151.576 58.1938 153.426 56.2415 154.192 55.1026L151.813 53.5194C151.018 54.6834 149.934 55.4511 148.378 55.4488ZM148.139 46.9406C149.353 46.9406 150.383 47.5488 150.727 48.419L144.49 51.009C144.412 48.3142 146.579 46.9406 148.139 46.9406ZM167.78 37.2706H160.449V57.7723H163.508V50.0067H167.782C171.174 50.0067 174.509 47.5511 174.509 43.6375C174.509 39.7308 171.176 37.2729 167.786 37.2729L167.78 37.2706ZM167.859 47.1524H163.508V40.1226H167.859C170.146 40.1226 171.449 42.0202 171.449 43.6375C171.449 45.2276 170.146 47.1524 167.859 47.1524ZM179.254 57.7723V37.2706H176.194V57.7723H179.254ZM192.997 57.7359V49.8769C192.997 46.2367 190.277 44.207 186.766 44.207C184.555 44.207 182.261 45.1843 181.311 47.3461L184.026 48.4782C184.607 47.3461 185.687 46.9748 186.823 46.9748C188.404 46.9748 190.013 47.9247 190.038 49.6149V49.8268C189.484 49.5101 188.3 49.034 186.846 49.034C183.919 49.034 180.939 50.6423 180.939 53.6492C180.939 56.3942 183.34 58.1596 186.031 58.1596C188.09 58.1596 189.222 57.237 189.933 56.1573H190.038V57.7404H192.994L192.997 57.7359ZM186.402 55.4442C185.4 55.4442 184.001 54.9431 184.001 53.7062C184.001 52.123 185.744 51.5125 187.247 51.5125C188.593 51.5125 189.224 51.8018 190.044 52.1981C189.81 54.0387 188.254 55.4215 186.402 55.4442ZM203.756 44.6558L200.248 53.5421H200.143L196.503 44.6558H193.206L198.664 57.0798L195.55 63.9889H198.742L207.154 44.6558H203.756Z" fill="white"/>
<path d="M71.0373 22.046V20.8729H71.3055C71.406 20.8729 71.5289 20.8729 71.6741 20.8729C71.8194 20.8729 71.9646 20.8673 72.1099 20.8561C72.2663 20.845 72.4115 20.8394 72.5456 20.8394C72.6908 20.8282 72.8081 20.8115 72.8975 20.7891C73.188 20.7444 73.4617 20.6718 73.7186 20.5713C73.9756 20.4595 74.199 20.3199 74.389 20.1523C74.5789 19.9847 74.7297 19.7892 74.8414 19.5658C74.9531 19.3423 75.009 19.0965 75.009 18.8284C75.009 18.4597 74.9476 18.1525 74.8247 17.9067C74.7018 17.6609 74.5286 17.4654 74.3052 17.3202C74.0929 17.1638 73.8415 17.0576 73.551 17.0018C73.2717 16.9347 72.9701 16.9012 72.6461 16.9012C72.0428 16.9012 71.5289 16.9459 71.1044 17.0353C70.6798 17.1135 70.3391 17.2141 70.0821 17.3369L69.7134 16.2309C69.9369 16.108 70.3391 15.9851 70.92 15.8622C71.501 15.7282 72.1545 15.6611 72.8807 15.6611C73.3276 15.6611 73.7633 15.7114 74.1879 15.812C74.6236 15.9013 75.009 16.0577 75.3442 16.2812C75.6905 16.4935 75.9642 16.7895 76.1653 17.1694C76.3776 17.538 76.4837 17.9961 76.4837 18.5435C76.4837 19.1021 76.2994 19.6384 75.9307 20.1523C75.562 20.655 75.009 21.0181 74.2716 21.2416V21.3086C75.0649 21.4203 75.6905 21.7164 76.1486 22.1968C76.6066 22.6772 76.8356 23.3196 76.8356 24.124C76.8356 24.7608 76.7072 25.3138 76.4502 25.783C76.2044 26.2411 75.8748 26.6209 75.4615 26.9226C75.0593 27.2242 74.5901 27.4477 74.0538 27.5929C73.5287 27.727 72.9924 27.794 72.445 27.794C71.7077 27.794 71.0988 27.7493 70.6184 27.6599C70.1492 27.5817 69.7581 27.4812 69.4453 27.3583L69.7972 26.1014C70.0542 26.2243 70.4117 26.3305 70.8698 26.4198C71.339 26.5092 71.9032 26.5539 72.5623 26.5539C72.9087 26.5539 73.2494 26.5092 73.5846 26.4198C73.9197 26.3193 74.2158 26.1741 74.4727 25.9841C74.7409 25.783 74.9531 25.5372 75.1096 25.2468C75.2771 24.9563 75.3609 24.61 75.3609 24.2078C75.3609 23.5039 75.1151 22.99 74.6236 22.666C74.132 22.3309 73.4896 22.1353 72.6964 22.0795C72.5623 22.0683 72.4338 22.0627 72.3109 22.0627C72.1992 22.0516 72.0819 22.046 71.959 22.046H71.0373Z" fill="white"/>
<path d="M84.7792 24.3418H80.4556L79.2826 27.5929H77.9084L82.3493 15.6779H82.9861L87.4438 27.5929H85.9858L84.7792 24.3418ZM80.9081 23.1352H84.3603L83.0532 19.5658L82.6342 17.7894H82.6174L82.1985 19.5993L80.9081 23.1352Z" fill="white"/>
<path d="M95.2859 17.1023H90.3925V27.5929H89.0016V15.8622H95.2859V17.1023Z" fill="white"/>
<path d="M96.4151 15.9795C96.8397 15.879 97.2977 15.812 97.7893 15.7784C98.2809 15.7449 98.7668 15.7282 99.2472 15.7282C99.7612 15.7282 100.281 15.7784 100.806 15.879C101.342 15.9795 101.828 16.1639 102.264 16.432C102.699 16.7001 103.051 17.0688 103.319 17.538C103.599 18.0073 103.738 18.605 103.738 19.3312C103.738 20.0462 103.61 20.6495 103.353 21.141C103.096 21.6326 102.755 22.0348 102.331 22.3476C101.906 22.6493 101.42 22.8671 100.873 23.0012C100.325 23.1352 99.7612 23.2023 99.1802 23.2023C99.1244 23.2023 99.0294 23.2023 98.8953 23.2023C98.7724 23.2023 98.6384 23.2023 98.4931 23.2023C98.3591 23.1911 98.225 23.1799 98.0909 23.1688C97.9569 23.1576 97.8619 23.1464 97.806 23.1352V27.5929H96.4151V15.9795ZM99.2808 16.9347C98.9903 16.9347 98.711 16.9403 98.4429 16.9515C98.1747 16.9627 97.9625 16.9906 97.806 17.0353V21.8951C97.8619 21.9175 97.9513 21.9343 98.0742 21.9454C98.1971 21.9454 98.3255 21.951 98.4596 21.9622C98.5937 21.9622 98.7222 21.9622 98.8451 21.9622C98.9679 21.9622 99.0573 21.9622 99.1132 21.9622C99.493 21.9622 99.8673 21.9287 100.236 21.8616C100.616 21.7834 100.957 21.6494 101.258 21.4594C101.56 21.2695 101.8 21.0014 101.979 20.655C102.169 20.3087 102.264 19.8674 102.264 19.3312C102.264 18.8731 102.174 18.4933 101.996 18.1916C101.828 17.8788 101.599 17.633 101.308 17.4543C101.029 17.2643 100.711 17.1303 100.353 17.0521C99.9958 16.9739 99.6383 16.9347 99.2808 16.9347Z" fill="white"/>
<path d="M108.767 22.046L109.202 23.5374H109.286L109.621 21.9957L111.867 15.8622H113.291L110.325 23.4872C110.023 24.2804 109.755 24.9451 109.521 25.4814C109.297 26.0065 109.068 26.4366 108.834 26.7718C108.599 27.0957 108.348 27.3304 108.079 27.4756C107.811 27.6097 107.482 27.6767 107.091 27.6767C106.722 27.6767 106.426 27.6488 106.203 27.5929C105.99 27.5259 105.789 27.4309 105.599 27.308L106.018 26.1517C106.242 26.2746 106.448 26.3528 106.638 26.3863C106.828 26.4198 107.001 26.4366 107.158 26.4366C107.471 26.4366 107.733 26.2802 107.945 25.9674C108.158 25.6434 108.342 25.1686 108.498 24.5429L104.158 15.8622H105.767L108.767 22.046Z" fill="white"/>
<path d="M115.633 22.046V20.8729H115.901C116.002 20.8729 116.124 20.8729 116.27 20.8729C116.415 20.8729 116.56 20.8673 116.705 20.8561C116.862 20.845 117.007 20.8394 117.141 20.8394C117.286 20.8282 117.404 20.8115 117.493 20.7891C117.783 20.7444 118.057 20.6718 118.314 20.5713C118.571 20.4595 118.795 20.3199 118.984 20.1523C119.174 19.9847 119.325 19.7892 119.437 19.5658C119.549 19.3423 119.605 19.0965 119.605 18.8284C119.605 18.4597 119.543 18.1525 119.42 17.9067C119.297 17.6609 119.124 17.4654 118.901 17.3202C118.688 17.1638 118.437 17.0576 118.147 17.0018C117.867 16.9347 117.566 16.9012 117.242 16.9012C116.638 16.9012 116.124 16.9459 115.7 17.0353C115.275 17.1135 114.935 17.2141 114.678 17.3369L114.309 16.2309C114.532 16.108 114.935 15.9851 115.516 15.8622C116.097 15.7282 116.75 15.6611 117.476 15.6611C117.923 15.6611 118.359 15.7114 118.783 15.812C119.219 15.9013 119.605 16.0577 119.94 16.2812C120.286 16.4935 120.56 16.7895 120.761 17.1694C120.973 17.538 121.079 17.9961 121.079 18.5435C121.079 19.1021 120.895 19.6384 120.526 20.1523C120.158 20.655 119.605 21.0181 118.867 21.2416V21.3086C119.66 21.4203 120.286 21.7164 120.744 22.1968C121.202 22.6772 121.431 23.3196 121.431 24.124C121.431 24.7608 121.303 25.3138 121.046 25.783C120.8 26.2411 120.47 26.6209 120.057 26.9226C119.655 27.2242 119.186 27.4477 118.649 27.5929C118.124 27.727 117.588 27.794 117.041 27.794C116.303 27.794 115.694 27.7493 115.214 27.6599C114.745 27.5817 114.354 27.4812 114.041 27.3583L114.393 26.1014C114.65 26.2243 115.007 26.3305 115.465 26.4198C115.935 26.5092 116.499 26.5539 117.158 26.5539C117.504 26.5539 117.845 26.5092 118.18 26.4198C118.515 26.3193 118.811 26.1741 119.068 25.9841C119.336 25.783 119.549 25.5372 119.705 25.2468C119.873 24.9563 119.956 24.61 119.956 24.2078C119.956 23.5039 119.711 22.99 119.219 22.666C118.728 22.3309 118.085 22.1353 117.292 22.0795C117.158 22.0683 117.029 22.0627 116.906 22.0627C116.795 22.0516 116.677 22.046 116.555 22.046H115.633Z" fill="white"/>
<path d="M130.967 19.6496L131.067 18.3089H131L130.28 19.6831L124.615 27.5929H123.794V15.8622H125.185V23.9061L125.068 25.23H125.135L125.872 23.8558L131.537 15.8622H132.358V27.5929H130.967V19.6496Z" fill="white"/>
<path d="M142.776 17.1023H139.122V27.5929H137.731V17.1023H134.078V15.8622H142.776V17.1023Z" fill="white"/>
<path d="M144.496 15.8622H150.881V17.1023H145.887V20.9399H150.462V22.18H145.887V26.3528H150.965V27.5929H144.496V15.8622Z" fill="white"/>
<path d="M164.97 22.2136H159.34V27.5929H157.949V15.8622H159.34V20.9735H164.97V15.8622H166.361V27.5929H164.97V22.2136Z" fill="white"/>
<path d="M174.789 24.3418H170.465L169.292 27.5929H167.918L172.359 15.6779H172.995L177.453 27.5929H175.995L174.789 24.3418ZM170.917 23.1352H174.37L173.062 19.5658L172.644 17.7894H172.627L172.208 19.5993L170.917 23.1352Z" fill="white"/>
</svg>
