<svg width="71" height="70" viewBox="0 0 71 70" fill="none" xmlns="http://www.w3.org/2000/svg">
<path d="M49.7339 22.9776C52.514 25.397 53.6289 26.3673 54.2001 27.7C54.6944 28.8534 54.7815 30.1426 54.9646 32.8537C55.0037 33.4333 55.0473 34.0779 55.1001 34.8V47.1C55.1001 49.8999 55.1001 51.8 54.9001 53.3C54.7001 54.7 54.3001 55.5 53.8001 56C53.3001 56.6 52.5001 56.9 51.1001 57.1C49.6001 57.3 47.7001 57.3 44.9001 57.3V44.2C44.9001 41.8 42.9001 39.8 40.5001 39.8H31.7001C29.3001 39.8 27.3001 41.8 27.3001 44.2V57.4C24.5001 57.4 22.6001 57.4 21.1001 57.2C19.7001 57 18.9001 56.6 18.4001 56.1C17.8001 55.6 17.5001 54.8 17.3001 53.4C17.1001 51.9 17.1001 50 17.1001 47.2001V34.8C17.1001 30.7 17.2001 29.1 17.8001 27.7C18.3713 26.3673 19.4862 25.397 22.2664 22.9776C22.4067 22.8555 22.5512 22.7297 22.7001 22.6L25.6001 20.1C26.3277 19.5023 26.9945 18.9452 27.6128 18.4286C29.374 16.957 30.7418 15.8142 32.0001 15C33.6001 13.9 34.8001 13.5 36.0001 13.5C37.2001 13.5 38.4001 13.9 40.0001 15C41.7001 16.1 43.7001 17.7 46.4001 20.1L49.3001 22.6C49.449 22.7297 49.5936 22.8555 49.7339 22.9776Z" fill="#931E3F"/>
<path d="M31.5001 42.8H40.3001C41.1001 42.8 41.7001 43.4 41.7001 44.2V57.3H30.1001V44.2C30.1001 43.4 30.7001 42.8 31.5001 42.8Z" fill="#931E3F"/>
</svg>
