<svg width="240" height="53" viewBox="0 0 240 53" fill="none" xmlns="http://www.w3.org/2000/svg">
<path fill-rule="evenodd" clip-rule="evenodd" d="M28.4543 31.978C28.1884 31.9115 27.7895 31.8451 27.2576 31.8451V0.997221C27.2576 0.398888 26.9252 0.199444 26.7258 0.132976C26.4599 0.0664678 26.0609 0 25.3297 0H10.6371C10.1717 0 9.77285 0.0664678 9.5734 0.132976L9.56785 0.135751L9.55973 0.139627L9.53901 0.149216L9.51334 0.160845C9.34813 0.235269 9.04154 0.373387 9.04154 0.664841V16.6206C9.04154 18.1497 8.97507 19.6122 8.9086 21.0748C8.84209 22.4709 8.70916 23.8007 8.44321 25.0639C8.24376 26.2605 7.84487 27.3907 7.44598 28.3215C6.98063 29.2522 6.38226 30.05 5.65099 30.7149L5.51801 30.8478C5.11912 31.1137 4.7867 31.3132 4.38781 31.5126C3.98892 31.7121 3.6565 31.8451 3.39059 31.8451C2.9252 31.8451 2.72575 31.8451 2.59282 31.9116H2.39337C1.795 31.9116 1.32964 31.978 1.06373 32.1775C0.731309 32.3769 0.598333 32.6428 0.598333 32.8423V32.9088L0 36.9642C0 37.2966 0.398888 37.4296 0.598333 37.4296C0.864285 37.4961 1.19667 37.4961 1.52909 37.4961C1.92797 37.4961 2.26039 37.4961 2.52631 37.4296C2.9917 37.2966 3.05817 37.0307 3.05817 36.8312V36.7648L3.59004 33.1747H25.9945L26.4599 37.0307C26.5263 37.3631 26.8587 37.4961 26.9917 37.4961C27.2576 37.5625 27.59 37.629 27.9889 37.629C28.3878 37.629 28.6537 37.5625 28.9197 37.4961C28.9312 37.4903 28.9452 37.4841 28.9611 37.4772L28.9907 37.4645L28.9917 37.4642C29.1723 37.3878 29.518 37.2416 29.518 36.8977L28.9862 32.7758C28.9862 32.4434 28.7867 32.1775 28.4543 31.978ZM8.9086 30.4489C9.83936 29.5847 10.5042 28.4545 10.9695 27.1248C11.1775 26.5528 11.3042 25.9809 11.4449 25.3452C11.4841 25.1682 11.5244 24.9862 11.5679 24.7979C11.7008 24.0001 11.8338 23.1359 11.9003 22.2716C11.9668 21.4073 12.0332 20.5431 12.0332 19.7453C12.0997 18.881 12.0997 18.1497 12.0997 17.4184V1.32964H24.1995V31.9116H7.11356L7.11442 31.9109C7.71247 31.4458 8.31056 30.9805 8.9086 30.4489Z" fill="white"/>
<path d="M67.5457 0.132936C67.3462 0.0664678 67.2133 0.0664678 67.0138 0.132936C66.8144 0.199403 66.6149 0.265912 66.482 0.465356L66.1496 0.797777L60.3657 12.1663C60.1789 12.5396 59.9896 12.913 59.7986 13.287C59.7447 13.3925 59.6906 13.4982 59.6364 13.6039L59.5645 13.7442C59.454 13.9595 59.3432 14.1751 59.2322 14.3911L59.2317 14.3919L59.2312 14.3926L59.228 14.3989C58.6495 15.524 58.0661 16.6587 57.5069 17.8172C56.6426 19.4793 55.7784 21.2078 54.9141 22.9364C54.4401 21.9884 53.9661 21.0749 53.5009 20.1783L53.5004 20.1774L53.4993 20.1752C53.0515 19.3123 52.612 18.465 52.1884 17.6178C51.7247 16.6906 51.2446 15.7633 50.7644 14.836L50.7573 14.8223C50.2759 13.8927 49.7945 12.963 49.3296 12.0333C48.8648 11.1037 48.3834 10.174 47.902 9.24441L47.9003 9.24111C47.4183 8.31031 46.9363 7.37956 46.4709 6.44876C46.0479 5.60284 45.6091 4.741 45.1621 3.86325L45.1584 3.85611L44.6733 2.90271C44.3655 2.29708 44.0553 1.68405 43.7452 1.06369L43.4792 0.598333C43.4293 0.448749 43.2673 0.411333 43.1052 0.373917C43.0512 0.361472 42.9972 0.348987 42.9473 0.33238C42.8548 0.33238 42.7622 0.318058 42.663 0.302716C42.5486 0.284926 42.4249 0.265912 42.2825 0.265912C42.2302 0.265912 42.1778 0.263341 42.126 0.25922C42.0763 0.255262 42.027 0.249836 41.9787 0.243878C41.9403 0.239105 41.9024 0.234045 41.8653 0.229067C41.7508 0.213725 41.6438 0.199403 41.5512 0.199403C41.4644 0.199403 41.3846 0.192304 41.312 0.182756C41.2543 0.175167 41.2011 0.166067 41.1523 0.157703L41.1514 0.157581C41.1083 0.150195 41.0688 0.143422 41.0327 0.138852C41.0039 0.13518 40.9773 0.132936 40.9529 0.132936C40.554 0.132936 40.2216 0.199403 39.9557 0.265912L39.9469 0.270115L39.9403 0.273216L39.9245 0.280275L39.9029 0.289618L39.8839 0.297697C39.7033 0.37408 39.3573 0.520399 39.3573 0.864245V1.3296L39.4903 1.26313C39.5568 1.39611 39.6233 1.52905 39.7562 1.72853C40.0221 2.19385 40.3545 2.85856 40.7533 3.65622C40.8389 3.84159 40.9307 4.03034 41.0272 4.22313C41.1477 4.46403 41.2758 4.71179 41.4087 4.96889L41.4108 4.97305L41.4152 4.98149L41.4174 4.98566L41.4179 4.98651C41.6721 5.47794 41.9441 6.00377 42.2161 6.58174C42.8144 7.71194 43.4127 8.84214 44.0111 10.1053C44.3435 10.7369 44.6593 11.3685 44.9751 12.0002C45.2909 12.6317 45.6067 13.2632 45.939 13.8948L45.9405 13.8976C46.6048 15.1598 47.2691 16.422 47.867 17.6843L52.6537 26.9253C52.592 27.0256 52.5321 27.1241 52.4738 27.2206L52.3921 27.3561L52.2777 27.5465C51.9226 28.1384 51.6232 28.6373 51.3241 28.9863C50.9252 29.5182 50.5928 29.917 50.3269 30.183C50.0972 30.4127 49.8992 30.5471 49.7769 30.6302C49.7222 30.6674 49.6826 30.6943 49.662 30.7148L49.4626 30.7813V30.9808C49.4626 31.078 49.4981 31.1753 49.5433 31.2985C49.5598 31.3437 49.5778 31.3927 49.5955 31.4461C49.6287 31.5124 49.6783 31.5951 49.728 31.678L49.729 31.6797C49.7787 31.7625 49.8284 31.8453 49.8615 31.9115C49.9944 32.111 50.1274 32.2439 50.3269 32.3769C50.5263 32.5099 50.7922 32.6428 50.9917 32.6428C51.3905 32.6428 51.6565 32.4434 51.723 32.3104C51.7895 32.2439 51.8393 32.1774 51.8892 32.111C51.9391 32.0445 51.9889 31.978 52.0554 31.9115L67.8781 0.6648L67.9446 0.598333C68.011 0.465356 67.9446 0.199403 67.5457 0.132936Z" fill="white"/>
<path d="M106.704 30.9808C106.569 30.8166 106.418 30.6323 106.252 30.4294L106.251 30.4288L106.249 30.4263C105.675 29.7259 104.919 28.8042 104.044 27.7232C103.559 27.1234 103.012 26.4622 102.414 25.7396L102.408 25.7323L102.405 25.7285C101.614 24.7721 100.734 23.7085 99.7895 22.5375C98.6261 21.0832 97.3213 19.4876 95.9008 17.7505C95.3732 17.1053 94.8296 16.4406 94.2715 15.7563L107.102 1.06373L107.169 0.997221V0.864285C107.169 0.531865 107.036 0.332421 106.903 0.265953C106.77 0.132976 106.504 0.0664678 106.172 0.0664678C106.105 0.0664678 106.039 0.0664678 105.972 0.132976C105.839 0.132976 105.706 0.199444 105.64 0.265953L93.2077 14.5596C92.0921 13.2116 90.9115 11.7659 89.6885 10.2684L89.6715 10.2475L89.6369 10.2051L89.6345 10.2022L89.6302 10.1969L88.9931 9.4168C88.6938 9.05031 88.3921 8.68125 88.0886 8.31031C87.1111 7.13046 86.1162 5.89915 85.0872 4.62541L85.0862 4.62423L85.085 4.62276L85.083 4.62027C84.0838 3.38362 83.0522 2.10681 81.9723 0.797777C81.8393 0.598333 81.6399 0.465356 81.3075 0.332421L80.5097 0.132976C80.2438 0.0664678 79.9778 0.0664678 79.7784 0.0664678C79.6558 0.0664678 79.5615 0.05235 79.4954 0.0371306C79.4181 0.0192997 79.3795 0 79.3795 0C79.18 0 78.9806 0 78.6482 0.0664678C78.5057 0.0664678 78.3632 0.0855635 78.2309 0.103313C78.1734 0.111024 78.1176 0.118451 78.0649 0.123959C78.0313 0.127468 77.9988 0.130202 77.9678 0.131712C77.9504 0.132528 77.9334 0.132976 77.9169 0.132976C77.8934 0.138852 77.8705 0.144197 77.848 0.149134C77.8083 0.157825 77.77 0.165211 77.7329 0.171739C77.7194 0.174106 77.7061 0.176391 77.6929 0.178553L77.6624 0.183531C77.6416 0.186877 77.6212 0.19006 77.6011 0.193161L77.5883 0.195119L77.5864 0.195364C77.5084 0.207278 77.4351 0.218458 77.3634 0.234943C77.326 0.243552 77.289 0.25363 77.2521 0.265953C77.1191 0.265953 76.7202 0.398888 76.7202 0.664841V0.797777L90.6814 17.4184L77.651 32.3769C77.3185 32.8423 77.518 33.1747 77.651 33.3077C77.8504 33.5071 78.1163 33.6401 78.5152 33.6401C78.7812 33.6401 78.9141 33.5071 78.9806 33.4406L79.1136 33.2412L79.0471 33.1747L91.6786 18.6815L103.512 32.8423L103.579 32.9088C103.978 33.1747 104.443 33.3077 104.909 33.4406C105.374 33.5071 105.839 33.5736 106.238 33.5071C106.704 33.5071 107.036 33.3741 107.302 33.2412C107.501 33.1082 107.634 32.9753 107.701 32.7758C107.701 32.7435 107.705 32.7113 107.709 32.6781C107.721 32.5744 107.735 32.4615 107.634 32.3105C107.701 32.2439 107.634 32.111 106.704 30.9808Z" fill="white"/>
<path d="M144.798 0.199444C144.665 0.132976 144.532 0.0664678 144.332 0.0664678C144.066 0 143.601 -0.0664678 143.003 0.132976C142.803 0.199444 142.604 0.265912 142.404 0.398888H142.271L142.205 0.531865L141.407 1.06373H141.873C140.078 3.25733 138.349 5.58391 136.621 7.91048L136.62 7.91138C135.09 9.91713 133.601 11.9229 132.088 13.9619L132.085 13.9648L132.084 13.9665L132.082 13.9696L132.081 13.9703L132.068 13.9882C131.682 14.5087 131.294 15.0314 130.903 15.5569C129.974 16.8177 129.028 18.0952 128.083 19.3727L128.072 19.3866C127.127 20.6641 126.181 21.9415 125.252 23.2024C124.76 23.8459 124.273 24.4895 123.789 25.13L123.784 25.1355L123.784 25.1367C122.568 26.7435 121.368 28.3311 120.133 29.8506V0.797777C120.133 0.490817 119.849 0.353924 119.701 0.282396C119.689 0.27648 119.678 0.271012 119.668 0.265912C119.402 0.132976 119.069 0.0664678 118.67 0.0664678C118.205 0.0664678 117.873 0.132976 117.607 0.199444C117.208 0.332421 117.141 0.664841 117.141 0.797777V32.1775C117.141 32.3105 117.141 32.3769 117.208 32.5099C117.274 32.6428 117.341 32.7093 117.474 32.7758C117.607 32.8423 117.74 32.9088 117.939 32.9088C118.271 32.9753 118.936 32.9753 119.202 32.9088C119.329 32.9088 119.428 32.8821 119.501 32.8625C119.513 32.8593 119.525 32.8563 119.535 32.8536C119.545 32.851 119.555 32.8488 119.563 32.847C119.569 32.8458 119.574 32.8448 119.579 32.8441C119.587 32.8429 119.595 32.8423 119.601 32.8423C119.734 32.7758 119.801 32.7093 119.867 32.6428L120 32.5099L142.205 3.19115V32.2439C142.205 32.5099 142.404 32.7093 142.803 32.8423C143.069 32.9088 143.402 32.9753 143.801 32.9753C144.332 32.9753 144.665 32.9088 144.864 32.8423C145.197 32.7093 145.263 32.4434 145.263 32.3105V0.864285C145.263 0.797777 145.263 0.664841 145.197 0.598333L145.185 0.580747L145.153 0.531824C145.047 0.369021 144.974 0.258241 144.798 0.199444Z" fill="white"/>
<path fill-rule="evenodd" clip-rule="evenodd" d="M199.047 5.45154C198.382 4.52079 197.584 3.65655 196.587 2.9917C195.59 2.26039 194.46 1.66206 193.13 1.19671C192.465 0.997262 191.734 0.797777 191.003 0.664841C190.271 0.531865 189.474 0.398888 188.676 0.332421L188.505 0.318099L188.504 0.317976C187.772 0.25665 187.089 0.199444 186.349 0.199444C185.941 0.199444 185.551 0.182103 185.169 0.165129C184.804 0.14889 184.446 0.132976 184.089 0.132976H177.108C176.909 0.132976 176.709 0.132976 176.51 0.199444C176.31 0.199444 176.111 0.265953 175.978 0.332421C175.645 0.465397 175.579 0.731309 175.579 0.864285V32.1775C175.579 32.4434 175.778 32.6428 176.111 32.7093C176.377 32.7758 176.776 32.8423 177.241 32.8423C177.706 32.8423 178.039 32.7758 178.305 32.7093C178.326 32.6987 178.357 32.6865 178.395 32.6717C178.594 32.5937 178.97 32.4463 178.97 32.111V23.7342H184.089C185.486 23.7342 186.884 23.6734 188.34 23.61L188.35 23.6097L188.351 23.6095H188.352L188.543 23.6013C190.072 23.4683 191.535 23.2024 192.864 22.8699C194.26 22.4711 195.524 21.8727 196.654 21.1414C197.784 20.3436 198.781 19.2799 199.512 17.9503C200.044 16.953 200.377 15.9558 200.643 14.9586C200.909 13.9613 201.042 12.9641 201.042 12.0333C201.042 10.8366 200.842 9.63995 200.51 8.50976C200.177 7.37956 199.712 6.3823 199.047 5.45154ZM193.862 3.59004C194.659 4.1219 195.324 4.72027 195.856 5.51805C196.388 6.24936 196.853 7.18011 197.119 8.31031C197.452 9.374 197.584 10.6372 197.584 12.0998C197.584 13.1635 197.452 14.1607 197.252 15.158C197.053 16.1552 196.72 17.0195 196.321 17.7508C195.657 18.881 194.859 19.7453 193.994 20.3436C193.064 21.0084 192.133 21.4738 191.069 21.8062C190.006 22.1386 188.942 22.3381 187.812 22.4711L187.81 22.4712C186.68 22.5376 185.551 22.604 184.421 22.604H178.903V1.59559H184.82C186.017 1.59559 187.147 1.66206 188.211 1.79504C189.274 1.92797 190.338 2.12746 191.269 2.45984C192.266 2.65928 193.13 3.05817 193.862 3.59004Z" fill="white"/>
<path d="M239.535 0.132976C239.335 0.0665086 239.202 0.0665086 239.003 0.132976C238.803 0.199444 238.604 0.265953 238.471 0.465397L238.139 0.797777L232.355 12.1663C231.985 12.9055 231.605 13.6448 231.223 14.3881L231.221 14.3916L231.219 14.395C230.64 15.5213 230.056 16.6573 229.496 17.8173C228.633 19.4773 227.769 21.2036 226.906 22.93L226.903 22.9364C226.429 21.9888 225.955 21.0757 225.49 20.1794L225.49 20.1784C225.042 19.3145 224.601 18.466 224.177 17.6178C223.713 16.6896 223.232 15.7614 222.752 14.8331L222.748 14.8263L222.748 14.8256L222.748 14.8249C222.266 13.8944 221.784 12.9638 221.319 12.0333C220.853 11.1026 220.371 10.1718 219.889 9.24106C219.407 8.31031 218.925 7.37956 218.46 6.4488C218.327 6.18248 218.192 5.91461 218.056 5.64487C217.905 5.34676 217.753 5.04641 217.6 4.74349L217.591 4.72489C216.985 3.52895 216.36 2.29312 215.734 0.997262L215.535 0.531865C215.485 0.382282 215.323 0.344865 215.161 0.30749L215.159 0.307245C215.106 0.294841 215.052 0.282437 215.003 0.265953C214.91 0.265953 214.818 0.251631 214.718 0.236248C214.68 0.230332 214.641 0.224252 214.6 0.218785C214.519 0.20789 214.433 0.199444 214.338 0.199444C214.246 0.199444 214.154 0.191447 214.064 0.180961C214.016 0.175289 213.968 0.168883 213.921 0.16264H213.921C213.806 0.147298 213.699 0.132976 213.607 0.132976C213.451 0.132976 213.318 0.110168 213.208 0.0912759C213.13 0.0778926 213.063 0.0664678 213.008 0.0664678C212.609 0.0664678 212.277 0.132976 212.011 0.199444L212 0.20483L211.986 0.210991C211.979 0.21446 211.97 0.218132 211.961 0.221967L211.939 0.23123C211.759 0.307653 211.413 0.453972 211.413 0.797777V1.26317L211.546 1.19671C211.58 1.26444 211.613 1.33221 211.656 1.40876C211.697 1.48245 211.746 1.5643 211.812 1.66206C212.076 2.12509 212.407 2.78557 212.803 3.57796L212.808 3.58873L212.809 3.58983C213.004 4.01202 213.23 4.45028 213.473 4.91972C213.727 5.41111 214 5.93734 214.271 6.51527L216.066 10.0388C216.399 10.6703 216.715 11.3019 217.03 11.9334C217.346 12.565 217.662 13.1967 217.994 13.8283C218.659 15.0915 219.324 16.3547 219.922 17.6178L224.709 26.8589C224.576 27.075 224.452 27.2827 224.333 27.4801C223.978 28.0721 223.679 28.5708 223.38 28.9199C222.981 29.4517 222.648 29.8506 222.382 30.1165C222.153 30.3462 221.955 30.4807 221.832 30.5638L221.831 30.5645L221.795 30.5893C221.782 30.5983 221.77 30.6066 221.759 30.6143C221.741 30.6274 221.727 30.6386 221.717 30.6484L221.518 30.7149V30.9143C221.518 31.0116 221.554 31.1088 221.599 31.2321L221.616 31.2793C221.624 31.3015 221.632 31.3245 221.64 31.3485L221.651 31.3797C221.684 31.4462 221.734 31.5293 221.784 31.6124C221.834 31.6955 221.884 31.7786 221.917 31.8451C222.05 32.0445 222.183 32.1775 222.382 32.3105C222.582 32.4434 222.848 32.5764 223.047 32.5764C223.446 32.5764 223.712 32.3769 223.778 32.2439C223.845 32.1776 223.895 32.1112 223.944 32.0448C223.994 31.9783 224.044 31.9116 224.111 31.8451L239.934 0.598333L239.995 0.536394C239.997 0.549981 239.999 0.562997 239.999 0.575197C240 0.583276 240 0.590988 240 0.598333V0.531865L239.995 0.536394C239.975 0.395624 239.878 0.190264 239.535 0.132976Z" fill="white"/>
<path d="M160.155 33.0418C161.33 33.0418 162.283 32.0893 162.283 30.9143C162.283 29.7394 161.33 28.7869 160.155 28.7869C158.98 28.7869 158.028 29.7394 158.028 30.9143C158.028 32.0893 158.98 33.0418 160.155 33.0418Z" fill="white"/>
<path fill-rule="evenodd" clip-rule="evenodd" d="M176.244 52.2552V51.6553C176.915 51.6403 177.473 51.5116 177.972 51.3244C178.504 51.125 178.903 50.859 179.169 50.4601C179.435 50.0612 179.568 49.5958 179.568 49.064C179.568 48.5321 179.435 48.0667 179.169 47.6679C178.903 47.269 178.504 46.9366 177.972 46.7371C177.473 46.5499 176.915 46.4212 176.244 46.4062V45.8064H175.645V46.4107C175.033 46.4387 174.516 46.5624 174.05 46.7371C173.518 47.003 173.119 47.269 172.853 47.6679C172.587 48.0667 172.454 48.5321 172.454 49.064C172.454 49.5958 172.587 50.0612 172.853 50.4601C173.119 50.7925 173.518 51.125 174.05 51.3244C174.516 51.4991 175.033 51.6228 175.645 51.6508V52.2552H176.244ZM174.382 47.136C174.721 46.9666 175.156 46.8931 175.645 46.8748V51.1178C175.181 51.0974 174.76 51.0333 174.382 50.9255C173.983 50.726 173.651 50.5266 173.385 50.1942C173.186 49.8618 173.053 49.4629 173.053 48.9975C173.053 48.5321 173.186 48.1997 173.385 47.8673C173.651 47.5349 173.983 47.269 174.382 47.136ZM176.244 51.121V46.8727C176.761 46.8867 177.219 46.959 177.573 47.136C178.039 47.3354 178.371 47.5349 178.571 47.8673C178.77 48.1333 178.903 48.5321 178.903 48.9975C178.903 49.3964 178.77 49.7953 178.571 50.1277C178.305 50.4601 177.972 50.6596 177.573 50.859C177.229 51.0311 176.786 51.1042 176.244 51.121Z" fill="white"/>
<path d="M1.1302 52.0557V46.0058H1.72853V50.992L5.58448 46.0058H6.18281V52.0557H5.58448V47.0695L1.72853 52.0557H1.1302Z" fill="white"/>
<path d="M15.9557 46.0058H15.3574V48.7316H11.5679V46.0058H10.903V52.0557H11.5679V49.2635H15.3574V52.0557H15.9557V46.0058Z" fill="white"/>
<path d="M21.8726 46.6042V52.0557H22.4709V46.6042H24.5983V46.0723H19.7451V46.6042H21.8726Z" fill="white"/>
<path d="M29.0526 49.2635V51.5238H32.7091V52.0557H28.4543V46.0058H32.5762V46.5377H29.0526V48.7316H32.1773V49.2635H29.0526Z" fill="white"/>
<path fill-rule="evenodd" clip-rule="evenodd" d="M39.0914 46.0058H36.831V52.1222H37.4294V50.2607H39.0914C39.6233 50.2607 40.0221 50.1942 40.421 49.9948C40.8199 49.7953 41.0859 49.5958 41.2853 49.2635C41.4848 48.931 41.6177 48.5321 41.6177 48.1333C41.6177 47.6679 41.4848 47.3354 41.2853 47.0031C41.0859 46.6706 40.8199 46.4047 40.421 46.2717C40.0221 46.0723 39.6233 46.0058 39.0914 46.0058ZM37.4294 49.5958H39.0249C39.6233 49.5958 40.0886 49.4629 40.421 49.1969C40.7535 48.931 40.8864 48.5321 40.8864 48.0667C40.8864 47.6014 40.7535 47.2025 40.421 46.9366C40.0886 46.6706 39.6233 46.5377 39.0249 46.5377H37.4294V49.5958Z" fill="white"/>
<path d="M50.5263 46.0058H49.928V48.7316H46.1385V46.0058H45.4737V52.0557H46.1385V49.2635H49.928V52.0557H50.5263V46.0058Z" fill="white"/>
<path d="M55.9114 49.2635V51.5238H59.5679V52.0557H55.313V46.0058H59.4349V46.5377H55.9114V48.7316H59.036V49.2635H55.9114Z" fill="white"/>
<path d="M64.82 46.6042V52.0557H65.4183V46.6042H67.5457V46.0723H62.6926V46.6042H64.82Z" fill="white"/>
<path d="M70.6039 49.4629V49.9947H72.8643V49.4629H70.6039Z" fill="white"/>
<path d="M77.0527 46.0058V52.0557H77.651V47.2305L80.0443 51.3244H80.3767L82.7701 47.2305V52.0557H83.3685V46.0058H82.8366L80.2422 50.4986L77.5845 46.0058H77.0527Z" fill="white"/>
<path fill-rule="evenodd" clip-rule="evenodd" d="M89.9501 46.0058L87.1579 52.0557H87.8892L88.6025 50.4601H91.9626L92.6759 52.0557H93.3407L90.5484 46.0058H89.9501ZM91.7248 49.9283L90.2825 46.7021L88.8403 49.9283H91.7248Z" fill="white"/>
<path d="M97.1302 46.0058V52.0557H97.7285V46.5377H100.986V46.0058H97.1302Z" fill="white"/>
<path fill-rule="evenodd" clip-rule="evenodd" d="M105.507 46.0058L102.715 52.0557H103.446L104.159 50.4601H107.519L108.233 52.0557H108.897L106.105 46.0058H105.507ZM107.282 49.9283L105.839 46.7021L104.397 49.9283H107.282Z" fill="white"/>
<path d="M112.288 50.859L112.022 51.3244C112.24 51.5422 112.502 51.6708 112.956 51.8929C113.056 51.9419 113.165 51.9955 113.285 52.0557C113.396 52.0778 113.507 52.1074 113.618 52.1369C113.839 52.196 114.061 52.2551 114.283 52.2551C114.615 52.2551 114.947 52.2551 115.28 52.1886C115.612 52.1221 115.878 51.9892 116.144 51.8562C116.41 51.6568 116.609 51.4573 116.742 51.2579C116.875 50.9919 116.942 50.726 116.942 50.4601C116.942 50.1942 116.875 49.8617 116.676 49.6623C116.543 49.4629 116.277 49.2634 116.011 49.1304C115.945 49.1039 115.878 49.08 115.811 49.0587C115.751 49.0397 115.691 49.0228 115.63 49.008C115.693 48.9855 115.754 48.9598 115.812 48.931C116.078 48.798 116.277 48.5986 116.41 48.3991C116.543 48.1997 116.609 47.9338 116.609 47.6678C116.609 47.3354 116.543 47.0695 116.343 46.87C116.144 46.6706 115.878 46.4712 115.612 46.3382C115.28 46.2052 115.014 46.1387 114.615 46.0723C114.245 46.0106 113.932 46.0633 113.57 46.1244L113.485 46.1387L113.484 46.139C113.085 46.2719 112.687 46.4048 112.355 46.6041L112.554 47.136C112.82 46.9365 113.086 46.8035 113.418 46.7371C113.684 46.6041 114.017 46.6041 114.283 46.6041C114.615 46.6041 114.881 46.6706 115.08 46.7371C115.136 46.7743 115.192 46.8063 115.246 46.8374C115.386 46.9177 115.516 46.9923 115.612 47.136C115.745 47.3354 115.812 47.5348 115.812 47.7343C115.812 48.0002 115.745 48.2662 115.479 48.4656C115.213 48.6651 114.881 48.7315 114.482 48.7315H113.219V49.2634H114.482C114.947 49.2634 115.346 49.3299 115.612 49.5293C115.878 49.7288 116.011 49.9947 116.011 50.3271C116.011 50.6595 115.945 50.859 115.745 51.0584C115.612 51.1914 115.346 51.3908 115.08 51.4573C114.814 51.5238 114.482 51.5903 114.15 51.5903C113.817 51.5903 113.485 51.5238 113.152 51.3908C112.82 51.2579 112.554 51.0584 112.288 50.859Z" fill="white"/>
<path d="M120.864 46.0058V52.0557H121.463L125.319 47.0695V52.0557H125.917V46.0058H125.319L121.463 50.992V46.0058H120.864Z" fill="white"/>
<path d="M135.69 46.0058H135.091V48.7316H131.302V46.0058H130.637V52.0557H131.302V49.2635H135.091V52.0557H135.69V46.0058Z" fill="white"/>
<path d="M145.33 46.0058V52.0557H145.928V46.6041H149.784V52.0557H150.382V46.0058H145.33Z" fill="white"/>
<path fill-rule="evenodd" clip-rule="evenodd" d="M157.031 46.0058L154.238 52.0557H154.97L155.683 50.4601H159.043L159.756 52.0557H160.421L157.629 46.0058H157.031ZM158.805 49.9283L157.363 46.7021L155.921 49.9283H158.805Z" fill="white"/>
<path fill-rule="evenodd" clip-rule="evenodd" d="M166.471 46.0058H164.211V52.1222H164.809V50.2607H166.471C167.003 50.2607 167.402 50.1942 167.801 49.9948C168.199 49.7953 168.465 49.5958 168.665 49.2635C168.864 48.931 168.997 48.5321 168.997 48.1333C168.997 47.6679 168.864 47.3354 168.665 47.0031C168.465 46.6706 168.199 46.4047 167.801 46.2717C167.402 46.0723 167.003 46.0058 166.471 46.0058ZM164.875 49.5958H166.471C167.069 49.5958 167.535 49.4629 167.867 49.1969C168.199 48.931 168.332 48.5321 168.332 48.0667C168.332 47.6014 168.199 47.2025 167.867 46.9366C167.535 46.6706 167.069 46.5377 166.471 46.5377H164.875V49.5958Z" fill="white"/>
<path fill-rule="evenodd" clip-rule="evenodd" d="M183.623 52.0557V46.0058H184.222V48.6651H185.572C185.601 48.3795 185.66 48.0928 185.751 47.8673C185.884 47.4684 186.083 47.136 186.349 46.8701C186.615 46.6044 186.947 46.4051 187.279 46.2057L187.28 46.2052C187.679 46.0723 188.078 46.0058 188.476 46.0058C188.875 46.0058 189.274 46.0723 189.673 46.2052C190.072 46.3382 190.338 46.5377 190.604 46.8701C190.87 47.136 191.069 47.4684 191.202 47.8673C191.335 48.2661 191.468 48.6653 191.468 49.064C191.468 49.4629 191.402 49.9283 191.202 50.2607C191.069 50.6596 190.87 50.992 190.604 51.2579C190.338 51.5238 190.006 51.7233 189.673 51.9227C189.341 52.0557 188.942 52.1222 188.476 52.1222C188.078 52.1222 187.679 52.0557 187.28 51.9227C186.947 51.7898 186.615 51.5238 186.349 51.2579C186.083 50.992 185.884 50.6596 185.751 50.2607C185.64 49.9283 185.575 49.5958 185.557 49.2635H184.222V52.0557H183.623ZM188.476 51.5238C188.809 51.5238 189.141 51.4574 189.407 51.3244C189.673 51.1914 189.939 50.992 190.139 50.7925C190.338 50.5931 190.537 50.3271 190.67 49.9948C190.803 49.6623 190.87 49.3299 190.87 48.9975C190.87 48.6651 190.803 48.2662 190.67 48.0003C190.537 47.6679 190.404 47.4019 190.139 47.2025C189.939 47.0031 189.673 46.8036 189.407 46.6706C189.141 46.5377 188.809 46.4712 188.476 46.4712C188.144 46.4712 187.812 46.5377 187.546 46.6706C187.28 46.8036 187.014 46.9366 186.814 47.2025C186.615 47.4019 186.416 47.6679 186.283 48.0003C186.15 48.2662 186.083 48.6651 186.083 48.9975C186.083 49.3299 186.15 49.7288 186.283 49.9948C186.415 50.2606 186.549 50.5267 186.814 50.7925C187.014 50.992 187.28 51.1914 187.546 51.3244C187.878 51.4574 188.144 51.5238 188.476 51.5238Z" fill="white"/>
<path d="M195.723 52.0557V46.0058H196.255L198.913 50.4986L201.507 46.0058H202.039V52.0557H201.44V47.2305L199.047 51.3244H198.715L196.321 47.2305V52.0557H195.723Z" fill="white"/>
<path d="M207.357 51.5238V49.2635H210.482V48.7316H207.357V46.5377H210.881V46.0058H206.759V52.0557H211.014V51.5238H207.357Z" fill="white"/>
<path fill-rule="evenodd" clip-rule="evenodd" d="M215.668 52.1222H215.069V46.0058H217.33C217.861 46.0058 218.26 46.0723 218.659 46.2717C219.058 46.4047 219.324 46.6706 219.524 47.0031C219.723 47.3354 219.856 47.6679 219.856 48.1333C219.856 48.5321 219.723 48.931 219.524 49.2635C219.324 49.5958 219.058 49.7953 218.659 49.9948C218.26 50.1942 217.861 50.2607 217.33 50.2607H215.668V52.1222ZM217.263 49.5958H215.668V46.5377H217.263C217.861 46.5377 218.327 46.6706 218.659 46.9366C218.992 47.2025 219.125 47.6014 219.125 48.0667C219.125 48.5321 218.992 48.931 218.659 49.1969C218.327 49.4629 217.861 49.5958 217.263 49.5958Z" fill="white"/>
<path d="M223.778 52.0557V46.0058H224.377V50.992L228.233 46.0058H228.831V52.0557H228.233V47.0695L224.377 52.0557H223.778Z" fill="white"/>
<path d="M233.551 52.0557V46.0058H234.15V50.992L238.006 46.0058H238.604V52.0557H238.006V47.0695L234.15 52.0557H233.551Z" fill="white"/>
</svg>
