<svg width="71" height="70" viewBox="0 0 71 70" fill="none" xmlns="http://www.w3.org/2000/svg">
<path fill-rule="evenodd" clip-rule="evenodd" d="M35.5 11.7001C35.6 11.7001 35.6 11.8001 35.7 11.8001L56.2 22.2001L47.5 26.6001L26.8 16.1001L35.3 11.8001C35.4 11.8001 35.4 11.7001 35.5 11.7001ZM23.5 17.8001L44.2 28.3001L35.5 32.8001L14.8 22.2001L23.5 17.8001ZM13 24.7001L34 35.4001V57.6001L13.3 47.0001C13.2 46.9001 13.1 46.9001 13 46.9001C13 46.8001 13 46.7001 13 46.6001V24.7001ZM37 57.6001V35.4001L46 30.8001V42.0001C46 42.8001 46.7 43.5001 47.5 43.5001C48.3 43.5001 49 42.8001 49 42.0001V29.3001L58 24.7001V46.6001C58 46.7001 58 46.8001 58 46.9001C57.9 46.9001 57.8 47.0001 57.7 47.0001L37 57.6001ZM37 9.1001C36.7 8.9001 36.1 8.6001 35.5 8.6001C34.9 8.6001 34.3 8.9001 34 9.1001H33.9L10.8 20.9001C10.3 21.2001 10 21.7001 10 22.2001V46.6001C10 46.9001 10 47.2001 10 47.4001C10 47.7001 10.1 48.1001 10.3 48.5001C10.5 48.9001 10.8 49.1001 11.1 49.3001C11.3 49.4001 11.6 49.6001 11.8 49.7001L34.7 61.4001C35.1 61.6001 35.6 61.6001 36.1 61.4001L59 49.7001C59.2 49.6001 59.5 49.5001 59.7 49.3001C60 49.1001 60.3 48.9001 60.5 48.5001C60.7 48.1001 60.8 47.7001 60.8 47.4001C60.8 47.1001 60.8 46.8001 60.8 46.6001V22.2001C60.8 21.6001 60.5 21.1001 60 20.9001L37 9.1001Z" fill="#931E3F"/>
</svg>
