<svg width="71" height="70" viewBox="0 0 71 70" fill="none" xmlns="http://www.w3.org/2000/svg">
<path fill-rule="evenodd" clip-rule="evenodd" d="M45.6998 29.2002C45.6998 34.8002 41.1998 39.4002 35.4998 39.4002C29.7998 39.4002 25.2998 34.8002 25.2998 29.2002C25.2998 23.6002 29.8998 19.0002 35.4998 19.0002C41.0998 19.0002 45.6998 23.5002 45.6998 29.2002ZM42.6998 29.1002C42.6998 25.1002 39.4998 21.9002 35.4998 21.9002C31.4998 21.9002 28.2998 25.2002 28.2998 29.1002C28.2998 33.1002 31.4998 36.3002 35.4998 36.3002C39.4998 36.3002 42.6998 33.1002 42.6998 29.1002Z" fill="#931E3F"/>
<path fill-rule="evenodd" clip-rule="evenodd" d="M35.5002 7.2002C50.8002 7.2002 63.3002 19.7002 63.3002 35.0002C63.3002 43.5002 59.5002 51.0002 53.3002 56.1002C48.5002 60.2002 42.2002 62.7002 35.4002 62.7002C28.6002 62.7002 22.3002 60.2002 17.5002 56.1002C11.5002 51.0002 7.7002 43.5002 7.7002 35.0002C7.7002 19.7002 20.2002 7.2002 35.5002 7.2002ZM35.5002 10.2002C21.8002 10.2002 10.7002 21.3002 10.7002 35.0002C10.7002 41.6002 13.3002 47.5002 17.6002 52.0002C19.0002 49.4002 21.1002 47.2002 23.8002 45.5002C27.2002 43.4002 31.4002 42.3002 35.6002 42.3002C39.8002 42.3002 44.0002 43.4002 47.4002 45.5002C50.1002 47.2002 52.2002 49.4002 53.6002 52.0002C57.7002 47.5002 60.3002 41.6002 60.3002 35.0002C60.3002 21.3002 49.2002 10.2002 35.5002 10.2002ZM25.3002 48.0002C22.7002 49.6002 20.8002 51.7002 19.8002 54.1002C22.6002 56.3002 28.7002 59.5002 35.5002 59.5002C42.3002 59.5002 48.4002 56.3002 51.2002 54.1002C50.2002 51.7002 48.3002 49.6002 45.7002 48.0002C42.8002 46.2002 39.2002 45.2002 35.5002 45.2002C31.8002 45.2002 28.2002 46.2002 25.3002 48.0002Z" fill="#931E3F"/>
</svg>
