<svg width="71" height="70" viewBox="0 0 71 70" fill="none" xmlns="http://www.w3.org/2000/svg">
<path fill-rule="evenodd" clip-rule="evenodd" d="M34.6 12.3001C35.2 12.2001 35.8 12.2001 36.4 12.3001C37.9 12.6001 38.8 13.8001 39.4 15.1001C40.1 16.4001 40.8 18.2001 41.7 20.5001V20.6001C42.2 22.0001 42.6 22.9001 43 23.6001C43.3 24.3001 43.6 24.7001 43.9 24.9001C44.1 25.1001 44.3 25.3001 44.6 25.4001C45 25.6001 45.4 25.8001 46.2 25.9001C47 26.0001 48 26.1001 49.5 26.3001H49.6C51.9 26.5001 53.8 26.7001 55.2 27.0001C56.6 27.3001 58 27.8001 58.7 29.1001C58.9 29.5001 59.1 30.0001 59.2 30.5001C59.4 32.0001 58.6 33.2001 57.7 34.3001C56.8 35.4001 55.4 36.7001 53.7 38.2001L52.6 39.2001C50.8 40.8001 50.3 41.4001 49.9 42.0001C49.7 42.4001 49.5 42.9001 49.5 43.3001C49.4 44.0001 49.5 44.8001 50.1 47.1001L50.3 48.0001C50.7 49.9001 51.1 51.5001 51.2 52.6001C51.4 53.7001 51.4 54.9001 50.9 55.9001C50.2 57.2001 48.8 58.1001 47.3 58.1001C46.2 58.2001 45.1 57.6001 44.2 56.9001C43.2 56.2001 42 55.2001 40.5 54.0001H40.4C39.3 53.1001 38.6 52.6001 38 52.1001C37.4 51.7001 37 51.5001 36.7 51.4001C35.9 51.2001 35.1 51.2001 34.3 51.4001C33.9 51.5001 33.6 51.7001 33 52.1001C32.4 52.5001 31.7 53.1001 30.6 54.0001H30.5C29 55.2001 27.8 56.2001 26.8 56.9001C25.9 57.5001 24.8 58.1001 23.7 58.1001C22.2 58.0001 20.8 57.2001 20.1 55.9001C19.6 54.9001 19.6 53.7001 19.8 52.6001C20 51.4001 20.3 49.9001 20.7 48.0001L20.9 47.1001C21.4 44.8001 21.6 44.0001 21.5 43.3001C21.4 42.8001 21.3 42.4001 21.1 42.0001C20.8 41.4001 20.2 40.8001 18.4 39.2001L17.3 38.2001C15.6 36.6001 14.2 35.4001 13.3 34.3001C12.4 33.2001 11.6 32.0001 11.8 30.5001C11.9 30.0001 12 29.5001 12.3 29.1001C13 27.8001 14.4 27.3001 15.8 27.0001C17.2 26.7001 19.1 26.5001 21.4 26.3001H21.5C23 26.2001 24 26.1001 24.8 25.9001C25.6 25.8001 26 25.6001 26.4 25.4001C26.6 25.3001 26.9 25.1001 27.1 24.9001C27.4 24.6001 27.7 24.2001 28 23.6001C28.4 22.9001 28.7 22.0001 29.3 20.6001V20.5001C30.2 18.2001 30.9 16.4001 31.6 15.1001C32.2 13.8001 33.1 12.6001 34.6 12.3001ZM35.8 15.2001C35.6 15.2001 35.4 15.2001 35.2 15.2001C35.1 15.2001 34.8 15.3001 34.2 16.5001C33.6 17.6001 32.9 19.3001 32 21.6001V21.7001C31.5 23.0001 31.1 24.0001 30.6 24.9001C30.2 25.8001 29.7 26.5001 29 27.1001C28.6 27.4001 28.3 27.7001 27.9 27.9001C27.1 28.4001 26.3 28.6001 25.3 28.8001C24.4 29.0001 23.2 29.1001 21.9 29.2001H21.8C19.3 29.4001 17.6 29.6001 16.4 29.8001C15.2 30.1001 15 30.4001 14.9 30.4001C14.8 30.5001 14.8 30.7001 14.7 30.8001C14.7 30.9001 14.7 31.2001 15.5 32.2001C16.3 33.1001 17.5 34.3001 19.4 35.9001L20.4 36.8001C20.5 36.9001 20.5 36.9001 20.6 37.0001C22.1 38.3001 23.1 39.3001 23.7 40.5001C24.1 41.2001 24.3 42.0001 24.4 42.8001C24.6 44.1001 24.3 45.5001 23.9 47.4001C23.9 47.5001 23.9 47.6001 23.8 47.7001L23.6 48.5001C23.2 50.5001 22.8 51.9001 22.7 53.0001C22.6 53.5001 22.6 53.9001 22.6 54.1001C22.6 54.3001 22.6 54.4001 22.6 54.4001C22.8 54.8001 23.3 55.1001 23.8 55.1001C23.8 55.1001 23.9 55.1001 24.1 55.0001C24.3 54.9001 24.6 54.7001 25.1 54.4001C26 53.8001 27.1 52.9001 28.7 51.6001C29.7 50.8001 30.5 50.1001 31.2 49.6001C31.9 49.1001 32.6 48.7001 33.4 48.5001C34.7 48.1001 36.1 48.1001 37.4 48.5001C38.2 48.7001 38.9 49.1001 39.6 49.6001C40.3 50.1001 41.1 50.8001 42.1 51.6001C43.7 52.9001 44.8 53.8001 45.7 54.4001C46.1 54.7001 46.4 54.9001 46.7 55.0001C46.9 55.1001 47 55.1001 47 55.1001C47.5 55.1001 47.9 54.8001 48.2 54.4001C48.2 54.4001 48.2 54.3001 48.2 54.1001C48.2 53.9001 48.2 53.5001 48.1 53.0001C48 52.0001 47.6 50.6001 47.2 48.5001L47 47.7001C47 47.6001 47 47.5001 46.9 47.4001C46.5 45.5001 46.2 44.1001 46.4 42.8001C46.5 42.0001 46.8 41.2001 47.1 40.5001C47.7 39.3001 48.7 38.4001 50.2 37.0001C50.3 36.9001 50.3 36.9001 50.4 36.8001L51.4 35.9001C53.2 34.2001 54.5 33.1001 55.3 32.2001C56.1 31.2001 56.1 30.9001 56.1 30.8001C56.1 30.6001 56 30.5001 55.9 30.4001C55.9 30.3001 55.7 30.0001 54.4 29.8001C53.2 29.5001 51.5 29.4001 49 29.2001H48.9C47.5 29.1001 46.4 29.0001 45.5 28.8001C44.5 28.6001 43.7 28.4001 42.9 27.9001C42.5 27.7001 42.1 27.4001 41.8 27.1001C41.1 26.5001 40.6 25.7001 40.2 24.9001C39.8 24.1001 39.4 23.0001 38.8 21.7001V21.6001C37.8 19.2001 37.2 17.6001 36.6 16.5001C36.2 15.3001 35.9 15.2001 35.8 15.2001Z" fill="#931E3F"/>
</svg>
