<svg width="30" height="30" viewBox="0 0 30 30" fill="none" xmlns="http://www.w3.org/2000/svg">
<path fill-rule="evenodd" clip-rule="evenodd" d="M22.5 6.75C22.9142 6.75 23.25 7.08579 23.25 7.5V12H27.75C28.1642 12 28.5 12.3358 28.5 12.75C28.5 13.1642 28.1642 13.5 27.75 13.5L23.25 13.5V18C23.25 18.4142 22.9142 18.75 22.5 18.75C22.0858 18.75 21.75 18.4142 21.75 18V13.5H17.25C16.8358 13.5 16.5 13.1642 16.5 12.75C16.5 12.3358 16.8358 12 17.25 12L21.75 12V7.5C21.75 7.08579 22.0858 6.75 22.5 6.75ZM2.25 10.5C2.25 10.0858 2.58579 9.74999 3 9.74999L12.75 9.74999C13.1642 9.74999 13.5 10.0858 13.5 10.5C13.5 10.9142 13.1642 11.25 12.75 11.25L3 11.25C2.58579 11.25 2.25 10.9142 2.25 10.5ZM2.25 16.5C2.25 16.0858 2.58579 15.75 3 15.75L15.75 15.75C16.1642 15.75 16.5 16.0858 16.5 16.5C16.5 16.9142 16.1642 17.25 15.75 17.25L3 17.25C2.58579 17.25 2.25 16.9142 2.25 16.5ZM2.25 22.5C2.25 22.0858 2.58579 21.75 3 21.75L25.5 21.75C25.9142 21.75 26.25 22.0858 26.25 22.5C26.25 22.9142 25.9142 23.25 25.5 23.25L3 23.25C2.58579 23.25 2.25 22.9142 2.25 22.5Z" fill="#931E3F"/>
</svg>
