<svg width="30" height="30" viewBox="0 0 30 30" fill="none" xmlns="http://www.w3.org/2000/svg">
<path fill-rule="evenodd" clip-rule="evenodd" d="M14.5421 5.89992C14.2232 6.45597 13.8767 7.31478 13.3758 8.56363L13.3159 8.71304C13.0502 9.37547 12.8298 9.92495 12.6021 10.3581C12.3624 10.8141 12.087 11.1975 11.6821 11.4986C11.2772 11.7996 10.8307 11.9529 10.325 12.0511C9.84464 12.1444 9.25496 12.1972 8.54407 12.2608L8.23756 12.2883C6.99619 12.3994 6.14962 12.4771 5.57409 12.613C5.29156 12.6796 5.1339 12.7479 5.04883 12.8031C4.98467 12.8447 4.97727 12.8674 4.97343 12.8792C4.97325 12.8798 4.97308 12.8803 4.97291 12.8808C4.97274 12.8813 4.97256 12.8818 4.97237 12.8824C4.96831 12.8941 4.96048 12.9166 4.98644 12.9886C5.02085 13.084 5.10524 13.2336 5.29006 13.4575C5.66654 13.9135 6.29409 14.487 7.21599 15.3257L7.84223 15.8955C8.27955 16.2933 8.64277 16.6238 8.92019 16.9239C9.21189 17.2395 9.44467 17.5584 9.59732 17.9489C9.649 18.0811 9.69196 18.2166 9.72592 18.3544C9.82626 18.7615 9.81985 19.1563 9.76335 19.5823C9.70962 19.9875 9.60325 20.4668 9.47518 21.044L9.38499 21.4505C9.13493 22.5776 8.96192 23.3622 8.89816 23.9271C8.83802 24.4601 8.90547 24.5914 8.90702 24.5974C8.96897 24.6644 9.04809 24.7132 9.1358 24.7385C9.14183 24.7372 9.28943 24.7386 9.73874 24.4456C10.215 24.1351 10.8385 23.6284 11.7335 22.8991L11.7611 22.8766C12.3158 22.4246 12.7726 22.0523 13.1743 21.7837C13.5939 21.5031 14.0077 21.297 14.4876 21.2204C14.827 21.1662 15.1729 21.1662 15.5124 21.2204C15.9922 21.297 16.4061 21.5031 16.8257 21.7837C17.2274 22.0523 17.6841 22.4245 18.2388 22.8765L18.2665 22.8991C19.1615 23.6284 19.785 24.1351 20.2612 24.4456C20.7105 24.7386 20.8581 24.7372 20.8642 24.7385C20.9519 24.7132 21.031 24.6644 21.093 24.5974C21.0945 24.5914 21.162 24.4601 21.1018 23.9271C21.0381 23.3622 20.8651 22.5776 20.615 21.4505L20.5248 21.044C20.3967 20.4668 20.2904 19.9874 20.2366 19.5823C20.1801 19.1563 20.1737 18.7615 20.2741 18.3544C20.308 18.2166 20.351 18.0811 20.4027 17.9489C20.5553 17.5584 20.7881 17.2395 21.0798 16.9239C21.3572 16.6238 21.7204 16.2933 22.1577 15.8955L22.784 15.3257C23.7059 14.487 24.3334 13.9135 24.7099 13.4575C24.8947 13.2336 24.9791 13.084 25.0135 12.9886C25.0395 12.9166 25.0317 12.8941 25.0276 12.8824C25.0274 12.8818 25.0272 12.8813 25.0271 12.8808C25.0269 12.8803 25.0267 12.8798 25.0265 12.8792C25.0227 12.8674 25.0153 12.8447 24.9511 12.8031C24.8661 12.7479 24.7084 12.6796 24.4259 12.613C23.8504 12.4771 23.0038 12.3994 21.7624 12.2883L21.4559 12.2608C20.745 12.1972 20.1553 12.1444 19.675 12.0511C19.1692 11.9529 18.7228 11.7996 18.3179 11.4986C17.913 11.1975 17.6376 10.8141 17.3979 10.3581C17.1702 9.92495 16.9498 9.37546 16.6841 8.71302L16.6242 8.56364C16.1232 7.31478 15.7768 6.45597 15.4579 5.89992C15.3005 5.62557 15.1801 5.48098 15.0953 5.40894C15.0328 5.35584 15.0094 5.35707 15.0015 5.35749C15.0009 5.35752 15.0004 5.35754 15 5.35754C14.9996 5.35754 14.9991 5.35752 14.9985 5.35749C14.9906 5.35707 14.9671 5.35584 14.9046 5.40894C14.8198 5.48098 14.6995 5.62557 14.5421 5.89992ZM13.241 5.15361C13.6078 4.5141 14.1345 3.85754 15 3.85754C15.8654 3.85754 16.3922 4.5141 16.759 5.15361C17.1367 5.81215 17.5212 6.77061 17.9926 7.94596L18.0622 8.11935C18.3456 8.82596 18.538 9.30329 18.7256 9.66015C18.9052 10.0017 19.0517 10.175 19.2129 10.2948C19.374 10.4146 19.5821 10.505 19.9609 10.5786C20.3567 10.6554 20.8692 10.7023 21.6275 10.7702L21.9597 10.7999C23.1219 10.904 24.0773 10.9895 24.7704 11.1531C25.4556 11.3148 26.1855 11.6197 26.4488 12.4026C26.7121 13.1856 26.3148 13.8696 25.8666 14.4125C25.4132 14.9616 24.7037 15.6072 23.8406 16.3923L23.1906 16.9837C22.724 17.4082 22.4094 17.6953 22.1813 17.9421C21.9625 18.1787 21.8602 18.3404 21.7997 18.495C21.7719 18.5662 21.7488 18.6391 21.7305 18.7133C21.6907 18.8745 21.6812 19.0656 21.7236 19.3851C21.7678 19.7182 21.8594 20.1341 21.996 20.75L22.0898 21.1726C22.327 22.2417 22.5185 23.1049 22.5924 23.7589C22.6615 24.3718 22.6706 25.0858 22.2137 25.5944C21.9569 25.8804 21.623 26.0863 21.2522 26.1875C20.5926 26.3675 19.9586 26.039 19.442 25.7021C18.8906 25.3427 18.2053 24.7842 17.3563 24.0924L17.319 24.0619C16.7297 23.5818 16.3276 23.2552 15.9918 23.0306C15.6672 22.8135 15.46 22.731 15.2759 22.7016C15.0931 22.6724 14.9069 22.6724 14.7241 22.7016C14.54 22.731 14.3328 22.8135 14.0082 23.0306C13.6723 23.2552 13.2703 23.5818 12.681 24.0619L12.6437 24.0924C11.7947 24.7842 11.1093 25.3427 10.558 25.7021C10.0413 26.039 9.40736 26.3675 8.74777 26.1875C8.37693 26.0863 8.04311 25.8804 7.78626 25.5944C7.32942 25.0858 7.33846 24.3718 7.40762 23.7589C7.48143 23.1049 7.67295 22.2417 7.91018 21.1726L8.00395 20.75C8.14059 20.1341 8.23219 19.7182 8.27637 19.3851C8.31874 19.0656 8.30923 18.8745 8.2695 18.7133C8.25121 18.6391 8.22808 18.5662 8.20026 18.495C8.13982 18.3404 8.03745 18.1787 7.81869 17.9421C7.59058 17.6953 7.27602 17.4082 6.80941 16.9837L6.15942 16.3924C5.29631 15.6072 4.58674 14.9616 4.13335 14.4125C3.68515 13.8696 3.28784 13.1856 3.55117 12.4026C3.81449 11.6197 4.54441 11.3148 5.22957 11.1531C5.92266 10.9895 6.8781 10.904 8.04028 10.7999L8.37243 10.7702C9.13074 10.7023 9.64328 10.6554 10.039 10.5786C10.4179 10.505 10.626 10.4146 10.7871 10.2948C10.9483 10.175 11.0948 10.0017 11.2744 9.66015C11.4619 9.30329 11.6544 8.82596 11.9378 8.11934L12.0074 7.94594C12.4788 6.7706 12.8632 5.81214 13.241 5.15361Z" fill="#931E3F"/>
</svg>
