<svg width="100" height="150" viewBox="0 0 100 150" fill="none" xmlns="http://www.w3.org/2000/svg">
<path d="M51.6443 19.3473L37.0687 16.0198L0.82482 0L0.765381 150L37.921 133.142L53.5272 131.588L99.4899 139.365V4.17868L51.6443 19.3473Z" fill="#F4D7E8"/>
<path opacity="0.5" d="M36.7346 16.0712L51.6453 19.3978L53.5714 131.609L37.6065 133.163L36.7346 16.0712Z" fill="#DDA6C8"/>
<path d="M58.1623 44.9086C58.1539 44.905 58.1455 44.9015 58.1379 44.8989C55.6084 43.9056 53.2668 43.5989 51.2754 43.6244V123.97C55.0384 124.094 57.5771 123.013 58.1631 122.738V117.398C56.805 79.2492 57.7868 54.6113 58.1631 47.267V44.9086H58.1623Z" fill="#AFBBDF"/>
<path d="M51.2754 40.5615V44.045L55.1019 44.388C54.9579 40.7138 53.8061 40.5615 53.8061 40.5615C53.8061 40.5615 52.5549 40.5615 51.2754 40.5615Z" fill="#AFD8F3"/>
<path d="M53.1199 34.4403C53.1199 34.4403 52.1736 34.4403 51.2754 34.4403V40.5618H53.5713C53.5713 40.5618 53.5713 36.199 53.5713 35.2873C53.5704 34.3773 53.1199 34.4403 53.1199 34.4403Z" fill="#969696"/>
<path d="M44.3877 44.9086C44.3969 44.905 44.4052 44.9015 44.4127 44.8989C46.9417 43.9056 49.285 43.5989 51.2755 43.6244V123.97C47.5102 124.094 44.9729 123.013 44.3877 122.738V117.398C45.7471 79.2492 44.7656 54.6113 44.3877 47.267V44.9086Z" fill="#DDE4F3"/>
<path d="M51.2755 40.5615V44.045L47.449 44.388C47.5922 40.7138 48.7437 40.5615 48.7437 40.5615C48.7437 40.5615 49.996 40.5615 51.2755 40.5615Z" fill="#D9E9F7"/>
<path d="M50.0443 34.4403C50.0443 34.4403 50.676 34.4403 51.2755 34.4403V40.5618H49.7449C49.7449 40.5618 49.7449 36.199 49.7449 35.2873C49.7449 34.3773 50.0443 34.4403 50.0443 34.4403Z" fill="#C1C1C0"/>
<path d="M57.6194 45.9191C57.6194 45.9191 56.3136 113.441 58.1632 121.684C58.1632 121.684 55.117 89.1339 57.6194 45.9191Z" fill="#7AA0D4"/>
<path d="M44.9456 102.552C44.9456 102.552 44.3877 120.938 44.3877 121.83C44.3877 122.724 55.0859 124.44 57.3979 121.83C57.3979 121.83 50.5785 123.715 45.4073 120.815C45.4073 120.815 45.0498 118.933 44.9456 102.552Z" fill="#7AA0D4"/>
<path opacity="0.25" d="M56.6326 51.9493C56.6326 51.9493 53.795 100.926 54.4523 109.589C55.1095 118.247 51.739 120.233 49.492 119.096C47.2424 117.963 47.3318 100.075 47.5605 93.8286C47.7893 87.5824 49.6384 64.4434 48.9312 58.3378C48.2266 52.2331 55.2629 44.7073 56.6326 51.9493Z" fill="#AABCD6"/>
<path d="M45.1528 45.919C45.1528 45.919 52.31 43.099 54.3365 45.1144C54.3365 45.1144 51.634 44.5767 45.1528 45.919Z" fill="#BAC5DD"/>
<path d="M45.1528 47.4499C45.1528 47.4499 46.8551 75.0896 46.0122 84.1846C46.0122 84.1846 47.9913 71.9394 45.1528 47.4499Z" fill="#CDD4EC"/>
<path d="M56.5201 69.6432C56.5201 69.6432 55.8745 110.956 56.5201 115.514C57.1613 120.074 54.7714 105.544 56.5201 69.6432Z" fill="#CDD4EC"/>
<path d="M49.7449 40.6493C49.7449 40.6493 48.8717 40.2476 48.2269 41.1623C47.5842 42.0769 47.449 43.6227 47.449 43.6227C47.449 43.6227 47.9239 40.2329 49.7449 40.6493Z" fill="#07B3CD"/>
<path d="M54.3367 41.3268C54.3367 41.3268 55.1522 42.6288 55.099 43.6228C55.099 43.6236 55.1924 43.4941 54.3367 41.3268Z" fill="#07B3CD"/>
<path d="M53.5713 40.5615C53.5713 40.5615 55.0236 43.0166 55.1019 43.6227C55.1029 43.6227 54.6964 42.0934 53.5713 40.5615Z" fill="#07B3CD"/>
<path d="M52.8062 40.5617C52.7968 40.5316 53.4969 43.1066 53.5715 43.6227C53.5705 43.6227 53.4828 42.6243 52.8062 40.5617Z" fill="#07B3CD"/>
<path d="M51.2756 40.5615C51.2756 40.5615 50.4766 43.2267 50.5114 43.6227C50.5114 43.6237 50.8398 41.3886 51.2756 40.5615Z" fill="#07B3CD"/>
<path d="M50.5102 40.5615C50.5102 40.5615 49.7783 42.879 49.7449 43.6227C49.7449 43.6227 50.0749 41.2581 50.5102 40.5615Z" fill="#07B3CD"/>
<path d="M49.745 40.5615C49.745 40.5615 48.5388 41.228 48.2144 43.6227C48.2144 43.6227 48.6142 41.5165 49.745 40.5615Z" fill="#07B3CD"/>
<path d="M49.7448 40.5615C49.7448 40.5615 49.0437 42.5495 48.9795 43.6227C48.98 43.6227 49.1642 41.7727 49.7448 40.5615Z" fill="#07B3CD"/>
<path d="M52.0408 40.5615C52.0408 40.5615 53.0054 42.8124 52.7687 43.6227C52.7687 43.6227 53.0478 42.2082 52.0408 40.5615Z" fill="#07B3CD"/>
<path d="M52.8062 40.5615C52.8062 40.5615 54.1851 42.4268 54.3368 43.6227C54.3368 43.6227 54.1416 42.1427 52.8062 40.5615Z" fill="#07B3CD"/>
<path opacity="0.52" d="M53.5714 35.2047H49.7449V35.97H53.5714V35.2047Z" fill="white"/>
<path opacity="0.56" d="M53.5714 39.7961H49.7449V40.5614H53.5714V39.7961Z" fill="#434343"/>
<path opacity="0.48" d="M48.5969 58.1641C49.6535 58.1641 50.5101 55.5943 50.5101 52.4243C50.5101 49.2543 49.6535 46.6845 48.5969 46.6845C47.5402 46.6845 46.6836 49.2543 46.6836 52.4243C46.6836 55.5943 47.5402 58.1641 48.5969 58.1641Z" fill="white"/>
<path opacity="0.48" d="M54.3367 120.154C55.6047 120.154 56.6326 118.441 56.6326 116.327C56.6326 114.214 55.6047 112.501 54.3367 112.501C53.0687 112.501 52.0408 114.214 52.0408 116.327C52.0408 118.441 53.0687 120.154 54.3367 120.154Z" fill="white"/>
<path opacity="0.48" d="M49.745 42.0921C50.5903 42.0921 51.2756 41.7494 51.2756 41.3268C51.2756 40.9041 50.5903 40.5615 49.745 40.5615C48.8996 40.5615 48.2144 40.9041 48.2144 41.3268C48.2144 41.7494 48.8996 42.0921 49.745 42.0921Z" fill="white"/>
<path opacity="0.25" d="M50.5102 38.2661C50.9328 38.2661 51.2755 37.9234 51.2755 37.5008C51.2755 37.0781 50.9328 36.7355 50.5102 36.7355C50.0875 36.7355 49.7449 37.0781 49.7449 37.5008C49.7449 37.9234 50.0875 38.2661 50.5102 38.2661Z" fill="white"/>
<path opacity="0.29" d="M37.5 132.892L36.6482 16.0198L0.0594108 0L0 150L37.5 133.142L37.479 130.2L37.5 132.892Z" fill="white"/>
<path d="M43.6226 123.287L52.739 124.745L59.694 123.287V113.265L52.4886 115.819L43.6226 113.265V123.287Z" fill="#EEC5DD"/>
<path d="M43.6226 26.3117V35.0588L51.4728 33.4178L59.694 35.969V26.3117L51.2388 24.4894L43.6226 26.3117Z" fill="#EEC5DD"/>
<path d="M59.6938 26.3117V35.969L51.5084 33.4178L51.2754 24.4894L59.6938 26.3117Z" fill="#DDA6C8"/>
<path d="M59.6939 113.265V123.287L53.0455 124.745L52.8062 115.819L59.6939 113.265Z" fill="#DDA6C8"/>
<path d="M43.6226 34.7697C43.6226 34.7697 51.0079 32.7173 51.6121 32.9226C52.2162 33.1269 59.3843 35.5199 59.6854 35.9316C59.9866 36.3423 52.2298 33.2631 51.3993 33.4685C50.5669 33.6759 50.4533 33.2652 43.6226 34.7697Z" fill="#96758B"/>
<path d="M43.6226 113.265L52.4882 116.327L59.694 113.265C59.694 113.265 53.8628 115.291 52.3562 115.526C50.8453 115.762 43.6226 113.265 43.6226 113.265Z" fill="#96758B"/>
<path opacity="0.21" d="M3.06128 6.12213V133.163L32.9082 99.4859V21.1869L3.06128 6.12213Z" fill="white"/>
<path opacity="0.25" d="M93.3675 24.4894L78.8267 131.257L86.0971 134.694L93.3675 39.4567V24.4894Z" fill="white"/>
<path opacity="0.43" d="M44.3877 27.2621L44.607 32.908L45.0833 27.7136L50.5101 26.0202L44.3877 27.2621Z" fill="white"/>
<path d="M43.6226 117.092V122.775L52.0409 123.98C52.0409 123.98 44.0185 123.137 44.0185 121.481C44.0185 119.827 43.6226 117.092 43.6226 117.092Z" fill="#F9DEEB"/>
<path opacity="0.3" d="M43.6226 44.4982C43.6226 44.4982 43.7152 112.346 44.1474 113.685L44.8288 114.03L45.265 78.5899L44.6279 45.1681L47.7094 44.1004C47.7094 44.1004 47.5463 40.3126 49.5618 40.5259L49.4372 35.1321C49.4372 35.1321 49.6979 34.4385 49.743 34.4385C49.7881 34.4385 49.0436 34.5078 49.0436 35.1321C49.0436 35.7573 49.1641 39.9289 49.1641 39.9289C49.1641 39.9289 47.4249 40.5163 47.4315 43.7905L43.6226 44.4982Z" fill="#96758B"/>
<path d="M36.7346 60.4596H51.7032H66.5816V74.2351H51.944H36.8388" fill="#EEC5DD"/>
<path d="M66.5816 60.4596H52.0408V74.2351H66.5816V60.4596Z" fill="#DDA6C8"/>
<path opacity="0.56" d="M36.7346 60.4596H51.9445H66.5816C66.5816 60.4596 53.005 61.2249 51.9944 61.2249C50.8953 61.2249 40.3849 60.5868 36.7346 60.4596Z" fill="#96758B"/>
<path opacity="0.51" d="M37.5 62.7548V74.2344H50.5102C50.5102 74.2344 39.0078 74.2344 38.2548 72.6438C37.5 71.0524 37.5 62.7548 37.5 62.7548Z" fill="#DDA6C8"/>
<path d="M0.966434 149.555L37.7497 133.145L53.3567 131.633L99.4899 139.203L53.3567 135.906L37.7497 137.046L0.765381 150" fill="#96758B"/>
</svg>
