<svg width="112" height="150" viewBox="0 0 112 150" fill="none" xmlns="http://www.w3.org/2000/svg">
<path d="M0 135.903C0.530894 135.546 10.8251 109.206 10.6409 103.67C10.4594 98.1311 7.42709 69.4218 15.4623 56.3571C15.4623 56.3571 18.8549 47.7629 19.7514 43.4725C20.6453 39.1903 26.5284 25.9699 27.2557 24.0048C27.9667 22.0398 29.3955 9.53844 29.0353 7.57339C29.0353 7.57339 35.6484 5.78574 38.3273 11.3261V34.9027C38.3273 34.9027 36.182 38.1137 35.6471 39.0102C35.6471 39.0102 37.9697 48.8341 34.7478 58.3005C34.7478 58.3005 37.7855 57.2482 38.3273 56.9706C38.8622 56.693 97.9865 5.25216 101.198 4.71451C104.422 4.18228 109.418 5.2508 108.883 10.4309C108.35 15.6124 98.7056 22.5774 98.7056 22.5774L84.7656 41.5102L81.9107 58.3005V79.9134L85.1245 105.275C85.1245 105.275 77.0893 119.923 72.0891 127.068C67.0836 134.212 51.3626 142.79 51.3626 142.79L34.6774 150L19.1772 145.86L7.89298 140.699L0 135.903Z" fill="#FFCFD3"/>
<path d="M38.7256 10.6275C38.7256 4.75808 43.4837 0 49.3531 0H90.062C95.9314 0 100.689 4.75809 100.689 10.6275V114.848C100.689 120.718 95.9314 125.476 90.062 125.476H49.3531C43.4837 125.476 38.7256 120.718 38.7256 114.848V10.6275Z" fill="#EAF7FF"/>
<path d="M40.0792 76.2127L95.3098 3.51952C99.7499 4.38588 100.138 7.76108 99.777 9.34038C99.8672 42.0997 99.9936 109.08 99.777 114.928C99.5604 120.776 93.911 123.863 91.1134 124.675H48.3367C44.4381 124.675 41.2073 120.163 40.0792 117.906V76.2127Z" fill="white" fill-opacity="0.64"/>
<path fill-rule="evenodd" clip-rule="evenodd" d="M90.1014 1.69682H49.3925C44.4602 1.69682 40.4618 5.69521 40.4618 10.6275V114.848C40.4618 119.781 44.4602 123.779 49.3925 123.779H90.1014C95.0337 123.779 99.032 119.781 99.032 114.848V10.6275C99.032 5.69521 95.0337 1.69682 90.1014 1.69682ZM49.3925 0C43.5231 0 38.765 4.75808 38.765 10.6275V114.848C38.765 120.718 43.5231 125.476 49.3925 125.476H90.1014C95.9708 125.476 100.729 120.718 100.729 114.848V10.6275C100.729 4.75809 95.9708 0 90.1014 0H49.3925Z" fill="#010088"/>
<path d="M59.2703 0.374084H80.2242V0.429607C80.2242 2.79709 78.305 4.71632 75.9375 4.71632H63.557C61.1895 4.71632 59.2703 2.79709 59.2703 0.429607V0.374084Z" fill="#010088"/>
<path d="M37.6426 24.4061C37.6426 23.7861 38.1452 23.2836 38.7651 23.2836V29.4226C38.1452 29.4226 37.6426 28.92 37.6426 28.3V24.4061Z" fill="#010088"/>
<path d="M37.6426 32.0422C37.6426 31.4222 38.1452 30.9196 38.7651 30.9196V37.0587C38.1452 37.0587 37.6426 36.5561 37.6426 35.9361V32.0422Z" fill="#010088"/>
<path d="M102.3 33.6154C102.3 34.4833 101.597 35.1869 100.729 35.1869L100.729 23.6575C101.597 23.6575 102.3 24.3611 102.3 25.2291L102.3 33.6154Z" fill="#010088"/>
<path d="M98.8721 41.3359C98.8721 41.3359 94.0507 34.3641 96.9138 30.4326C99.9637 26.2479 99.9637 26.2479 103.707 26.684C105.863 26.9358 108.885 29.3641 109.773 35.6113C109.773 35.6113 109.065 40.6181 99.4125 45.2606L98.8721 41.3359Z" fill="#FFCFD3"/>
<path d="M99.2351 51.7255V53.3791C99.2351 53.3791 89.9513 59.5505 91.0198 64.0169C92.0884 68.4833 94.7686 70.9792 99.2351 69.7333C103.706 68.4846 111.199 64.0169 111.382 60.8912C111.559 57.7642 108.346 51.4939 104.246 51.4167C100.126 51.3341 99.2351 51.7255 99.2351 51.7255Z" fill="#FFCFD3"/>
<path d="M94.598 76.5154C94.598 76.5154 89.2389 81.7023 94.598 86.3393C99.9516 90.9845 108.255 86.3393 108.921 84.916C109.594 83.4764 110.842 79.1969 108.16 76.5154C105.483 73.838 103.519 72.2332 94.598 76.5154Z" fill="#FFCFD3"/>
<path d="M66.3387 61.3267C49.183 61.3267 39.4013 49.5886 39 30.0251H47.628C47.9039 44.3716 54.2244 50.4413 59.2407 51.6954V30.0251H67.342V42.3902C72.283 41.8635 77.5 36.2202 79.2557 30H87.3319C86.6734 33.2199 85.3579 36.2693 83.4677 38.9579C81.5775 41.6465 79.1532 43.9163 76.3462 45.6257C79.4787 47.1848 82.2451 49.3903 84.463 52.0967C86.6808 54.8031 88.2997 57.9489 89.213 61.3267H80.3091C78.4029 55.3824 73.6374 50.7674 67.342 50.1404V61.3267H66.3638H66.3387Z" fill="#0077FF"/>
<path d="M60.5747 65.9419C74.5333 59.7325 83.8413 55.6389 88.4985 53.6611C101.796 48.014 104.559 47.0331 106.36 47.0003C106.756 46.9935 107.642 47.0938 108.215 47.5691C108.7 47.9704 108.833 48.5125 108.897 48.893C108.961 49.2735 109.04 50.1403 108.977 50.8176C108.256 58.548 105.138 77.3078 103.552 85.966C102.881 89.6296 101.559 90.858 100.28 90.9782C97.4992 91.2395 95.3877 89.102 92.6945 87.2995C88.4803 84.4789 86.0995 82.7231 82.0088 79.9707C77.2814 76.7899 80.346 75.0417 83.0402 72.1846C83.7452 71.4369 95.9967 60.0591 96.2338 59.0269C96.2634 58.8978 96.291 58.4167 96.011 58.1626C95.731 57.9085 95.3178 57.9954 95.0196 58.0645C94.5969 58.1624 87.8646 62.7058 74.8226 71.6945C72.9117 73.0343 71.1808 73.6871 69.63 73.6529C67.9204 73.6152 64.6317 72.6659 62.1869 71.8545C59.1883 70.8593 56.8051 70.3331 57.0126 68.6429C57.1207 67.7626 58.3081 66.8622 60.5747 65.9419Z" fill="#0088CC"/>
<path d="M62.9739 56.5866C61.226 54.8955 58.9442 54.284 56.5849 54.8747C52.6119 56.0112 37.8564 64.5303 37.8564 64.5303C37.8564 64.5303 23.3904 72.8822 20.1303 75.9217C18.4391 77.6696 17.8277 79.9515 18.4183 82.3108C20.0112 86.4061 24.3542 93.9284 24.3542 93.9284C24.3542 93.9284 28.6973 101.451 31.7368 104.711C33.4847 106.402 35.7665 107.013 38.1258 106.423C42.0988 105.286 56.8543 96.7673 56.8543 96.7673C56.8543 96.7673 71.3203 88.4153 74.5804 85.3758C76.2715 83.6279 76.883 81.346 76.2924 78.9867C74.9888 74.7244 70.6458 67.202 70.6458 67.202C70.6458 67.202 66.3027 59.6797 62.9739 56.5866Z" fill="white"/>
<path d="M62.9739 56.5866C61.226 54.8955 58.9442 54.284 56.5849 54.8747C52.6119 56.0112 37.8564 64.5303 37.8564 64.5303C37.8564 64.5303 23.3904 72.8822 20.1303 75.9217C18.4391 77.6696 17.8277 79.9515 18.4183 82.3108C20.0112 86.4061 24.3542 93.9284 24.3542 93.9284C24.3542 93.9284 28.6973 101.451 31.7368 104.711C33.4847 106.402 35.7665 107.013 38.1258 106.423C42.0988 105.286 56.8543 96.7673 56.8543 96.7673C56.8543 96.7673 71.3203 88.4153 74.5804 85.3758C76.2715 83.6279 76.883 81.346 76.2924 78.9867C74.9888 74.7244 70.6458 67.202 70.6458 67.202C70.6458 67.202 66.3027 59.6797 62.9739 56.5866ZM46.8798 90.1816L38.8619 76.2942L55.0224 76.2222L46.8798 90.1816Z" fill="#FF0000"/>
</svg>
