<svg width="500" height="365" viewBox="0 0 500 365" fill="none" xmlns="http://www.w3.org/2000/svg">
<path d="M443.787 160.913C472.198 127.042 500.282 86.7735 461.492 58.912C422.702 31.0504 183.574 -21.587 80.5829 74.0419C-22.408 169.671 16.5195 279.394 55.4769 303.096C94.4343 326.798 207.496 290.44 297.055 329.62C382.778 367.123 411.464 272.423 408.55 237.429C406.837 216.844 415.376 194.784 443.787 160.913Z" fill="#FDEEF2"/>
<path d="M115.024 113.749C115.024 103.66 123.203 95.481 133.292 95.481H348.077C358.166 95.481 366.344 103.66 366.344 113.749V245.175C366.344 255.264 358.166 263.442 348.077 263.442H133.292C123.203 263.442 115.024 255.264 115.024 245.175V113.749Z" fill="#C13468"/>
<path d="M115.024 188.928H366.558V229.679H115.024V188.928Z" fill="#363947"/>
<mask id="mask0_8857_80052" style="mask-type:alpha" maskUnits="userSpaceOnUse" x="115" y="95" width="252" height="169">
<path d="M115.026 113.749C115.026 103.66 123.205 95.481 133.294 95.481H348.078C358.167 95.481 366.346 103.66 366.346 113.749V245.175C366.346 255.264 358.167 263.442 348.078 263.442H133.294C123.205 263.442 115.026 255.264 115.026 245.175V113.749Z" fill="#74610E"/>
<path d="M115.026 188.928H366.56V229.679H115.026V188.928Z" fill="#363947"/>
</mask>
<g mask="url(#mask0_8857_80052)">
<path d="M66.2526 103.833C63.8559 94.0329 69.8576 84.1453 79.6578 81.7486L288.294 30.7253C298.094 28.3286 307.982 34.3303 310.378 44.1306L341.599 171.794C343.996 181.594 337.994 191.482 328.194 193.879L119.558 244.902C109.758 247.299 99.8703 241.297 97.4736 231.497L66.2526 103.833Z" fill="black" fill-opacity="0.62"/>
</g>
<path d="M49.0856 92.8401C46.6889 83.0398 52.6906 73.1523 62.4908 70.7556L271.127 19.7323C280.927 17.3356 290.815 23.3373 293.211 33.1375L324.432 160.801C326.829 170.601 320.827 180.489 311.027 182.886L102.391 233.909C92.5908 236.306 82.7033 230.304 80.3066 220.504L49.0856 92.8401Z" fill="#FFA3C5"/>
<path d="M240.746 43.8083L277.006 34.9408L285.873 71.2006L249.614 80.0682L240.746 43.8083Z" fill="#C13468"/>
<path d="M79.3727 148.6L121.672 138.256L124.627 150.341L82.3282 160.686L79.3727 148.6Z" fill="#EA3578"/>
<path d="M90.0108 192.107L132.31 181.762L134.674 191.431L92.3753 201.775L90.0108 192.107Z" fill="#FFD0E2"/>
<path d="M143.19 179.103L185.489 168.759L187.853 178.427L145.554 188.772L143.19 179.103Z" fill="#FFD0E2"/>
<path d="M94.7406 211.445L179.339 190.756L181.703 200.424L97.1051 221.113L94.7406 211.445Z" fill="#FFD0E2"/>
<path d="M136.172 134.707L178.471 124.362L181.426 136.447L139.127 146.792L136.172 134.707Z" fill="#EA3578"/>
<path d="M192.975 120.818L235.274 110.473L238.229 122.559L195.93 132.903L192.975 120.818Z" fill="#EA3578"/>
<path d="M249.778 106.924L292.077 96.5795L295.033 108.665L252.734 119.009L249.778 106.924Z" fill="#EA3578"/>
<g clip-path="url(#clip0_8857_80052)">
<path d="M290.175 138.113C287.864 138.678 285.686 139.693 283.767 141.099C281.849 142.506 280.225 144.277 278.991 146.311C277.756 148.344 276.935 150.601 276.572 152.953C276.21 155.304 276.314 157.704 276.88 160.015C277.445 162.327 278.46 164.504 279.866 166.423C281.273 168.341 283.044 169.965 285.078 171.199C287.111 172.434 289.369 173.256 291.72 173.618C294.072 173.98 296.471 173.876 298.782 173.31C301.094 172.745 303.271 171.73 305.19 170.324C307.109 168.917 308.732 167.146 309.966 165.112C311.201 163.079 312.023 160.821 312.385 158.47C312.747 156.118 312.643 153.719 312.077 151.408C311.512 149.096 310.497 146.919 309.091 145C307.684 143.081 305.913 141.458 303.879 140.224C301.846 138.989 299.589 138.167 297.237 137.805C294.886 137.443 292.486 137.547 290.175 138.113Z" fill="#FF96BD"/>
<path d="M270.064 143.031C267.753 143.596 265.575 144.611 263.657 146.017C261.738 147.424 260.115 149.195 258.88 151.229C257.645 153.263 256.824 155.52 256.461 157.871C256.099 160.223 256.204 162.622 256.769 164.934C257.334 167.245 258.349 169.422 259.755 171.341C261.162 173.26 262.933 174.883 264.967 176.117C267.001 177.352 269.258 178.174 271.609 178.536C273.961 178.898 276.36 178.794 278.672 178.229C280.983 177.663 283.16 176.648 285.079 175.242C286.998 173.835 288.621 172.064 289.855 170.031C291.09 167.997 291.912 165.74 292.274 163.388C292.636 161.037 292.532 158.637 291.966 156.326C291.401 154.015 290.386 151.837 288.98 149.919C287.573 148 285.802 146.377 283.769 145.142C281.735 143.908 279.478 143.086 277.126 142.723C274.775 142.361 272.375 142.466 270.064 143.031Z" fill="#FF4B8E"/>
<path d="M276.88 160.015C278.341 165.992 282.618 170.535 287.951 172.602C291.729 168.307 293.426 162.303 291.964 156.326C290.503 150.349 286.226 145.806 280.893 143.739C277.115 148.034 275.418 154.038 276.88 160.015Z" fill="#FF6CA3"/>
</g>
<circle cx="354.209" cy="241.807" r="52.4423" fill="#FF4B8E" stroke="#FFAACA" stroke-width="8"/>
<path fill-rule="evenodd" clip-rule="evenodd" d="M391.681 224.399L350.041 272.202L325.315 249.097L331.914 242.035L349.327 258.307L384.393 218.05L391.681 224.399Z" fill="#FAFAFA"/>
<path d="M345.896 6.95933L342.815 24.0419L325.909 27.978L342.991 31.0588L346.928 47.9648L350.008 30.8822L366.914 26.9461L349.832 23.8653L345.896 6.95933Z" fill="#FFA3C5"/>
<path d="M423.837 158.444L415.321 176.834L395.061 176.297L413.451 184.813L412.914 205.072L421.43 186.683L441.689 187.22L423.3 178.704L423.837 158.444Z" fill="#FFA3C5"/>
<path d="M29.9463 41.7111L21.8317 52.9842L8.26667 49.9974L19.5398 58.112L16.553 71.677L24.6676 60.4039L38.2326 63.3907L26.9594 55.2761L29.9463 41.7111Z" fill="#FFA3C5"/>
<path d="M56.6236 262.64L50.8585 294.607L19.2219 301.973L51.1889 307.738L58.5546 339.375L64.3197 307.408L95.9563 300.042L63.9893 294.277L56.6236 262.64Z" fill="#FFA3C5"/>
<defs>
<clipPath id="clip0_8857_80052">
<rect width="56.9352" height="56.9352" fill="white" transform="translate(250.03 137.38) rotate(-13.7423)"/>
</clipPath>
</defs>
</svg>
