<svg width="500" height="376" viewBox="0 0 500 376" fill="none" xmlns="http://www.w3.org/2000/svg">
<path d="M435 188C435 290.173 352.173 373 250 373C147.827 373 65 290.173 65 188C65 85.8273 147.827 3 250 3C352.173 3 435 85.8273 435 188Z" fill="#FFAD61"/>
<path fill-rule="evenodd" clip-rule="evenodd" d="M250 353C341.127 353 415 279.127 415 188C415 96.873 341.127 23 250 23C158.873 23 85 96.873 85 188C85 279.127 158.873 353 250 353ZM250 373C352.173 373 435 290.173 435 188C435 85.8273 352.173 3 250 3C147.827 3 65 85.8273 65 188C65 290.173 147.827 373 250 373Z" fill="#4D3636"/>
<path d="M400 188C400 270.843 332.843 338 250 338C167.157 338 100 270.843 100 188C100 105.157 167.157 38 250 38C332.843 38 400 105.157 400 188Z" fill="#FFE6B8"/>
<path fill-rule="evenodd" clip-rule="evenodd" d="M250 318C321.797 318 380 259.797 380 188C380 116.203 321.797 58 250 58C178.203 58 120 116.203 120 188C120 259.797 178.203 318 250 318ZM250 338C332.843 338 400 270.843 400 188C400 105.157 332.843 38 250 38C167.157 38 100 105.157 100 188C100 270.843 167.157 338 250 338Z" fill="#4D3636"/>
<path fill-rule="evenodd" clip-rule="evenodd" d="M241.51 112.906C247.033 112.906 251.51 117.383 251.51 122.906V196.734L312.067 236.228C316.693 239.245 317.998 245.441 314.981 250.067C311.964 254.693 305.768 255.997 301.142 252.98L231.51 207.568V122.906C231.51 117.383 235.987 112.906 241.51 112.906Z" fill="#4D3636"/>
<path fill-rule="evenodd" clip-rule="evenodd" d="M241.51 62.9058C247.033 62.9058 251.51 67.3829 251.51 72.9058V83.5C251.51 89.0228 247.033 93.5 241.51 93.5C235.987 93.5 231.51 89.0228 231.51 83.5V72.9058C231.51 67.3829 235.987 62.9058 241.51 62.9058Z" fill="#4D3636"/>
<path fill-rule="evenodd" clip-rule="evenodd" d="M241.51 282.906C247.033 282.906 251.51 287.383 251.51 292.906V303.5C251.51 309.023 247.033 313.5 241.51 313.5C235.987 313.5 231.51 309.023 231.51 303.5V292.906C231.51 287.383 235.987 282.906 241.51 282.906Z" fill="#4D3636"/>
<path fill-rule="evenodd" clip-rule="evenodd" d="M346.213 188.203C346.213 182.68 350.69 178.203 356.213 178.203H366.807C372.33 178.203 376.807 182.68 376.807 188.203C376.807 193.726 372.33 198.203 366.807 198.203H356.213C350.69 198.203 346.213 193.726 346.213 188.203Z" fill="#4D3636"/>
<path fill-rule="evenodd" clip-rule="evenodd" d="M126.213 188.203C126.213 182.68 130.69 178.203 136.213 178.203H146.807C152.33 178.203 156.807 182.68 156.807 188.203C156.807 193.726 152.33 198.203 146.807 198.203H136.213C130.69 198.203 126.213 193.726 126.213 188.203Z" fill="#4D3636"/>
<path opacity="0.6" fill-rule="evenodd" clip-rule="evenodd" d="M151.439 31.4124L433.606 210.829C432.919 216.409 431.984 221.912 430.811 227.327L137.715 40.9605C142.137 37.5786 146.716 34.3916 151.439 31.4124Z" fill="#FFEFDF"/>
<path opacity="0.6" fill-rule="evenodd" clip-rule="evenodd" d="M434.711 198.42L162.182 25.1312C188.309 11.0139 218.219 3 250 3C352.173 3 435 85.8273 435 188C435 191.497 434.903 194.971 434.711 198.42Z" fill="#FFEFDF"/>
</svg>
