<svg width="99" height="101" viewBox="0 0 99 101" fill="none" xmlns="http://www.w3.org/2000/svg">
<path d="M98.6842 0.603027H0V100.603H98.6842V0.603027Z" fill="#0088CC"/>
<path d="M24.9794 49.6915C38.2246 43.8438 47.0567 39.9887 51.4759 38.1261C64.0936 32.808 66.7155 31.8842 68.4244 31.8533C68.8002 31.8469 69.6406 31.9413 70.185 32.3889C70.6446 32.7669 70.7711 33.2774 70.8316 33.6358C70.8921 33.9941 70.9675 34.8104 70.9076 35.4482C70.2238 42.7283 67.2652 60.3952 65.76 68.549C65.1231 71.9992 63.8691 73.156 62.655 73.2693C60.0165 73.5153 58.013 71.5023 55.4575 69.8048C51.4586 67.1486 49.1995 65.4951 45.318 62.903C40.8321 59.9075 43.7401 58.2612 46.2966 55.5705C46.9656 54.8663 58.5908 44.1513 58.8158 43.1793C58.8439 43.0578 58.8701 42.6046 58.6044 42.3653C58.3387 42.1261 57.9466 42.2079 57.6637 42.273C57.2626 42.3652 50.8744 46.6439 38.4991 55.109C36.6858 56.3707 35.0434 56.9855 33.5719 56.9532C31.9496 56.9177 28.829 56.0238 26.5092 55.2596C23.6639 54.3224 21.4024 53.8269 21.5994 52.2351C21.7019 51.4061 22.8286 50.5582 24.9794 49.6915Z" fill="white"/>
</svg>
