<svg width="101" height="101" viewBox="0 0 101 101" fill="none" xmlns="http://www.w3.org/2000/svg">
<rect x="0.684082" y="0.603027" width="100" height="100" fill="white"/>
<path d="M25.6841 49.603C25.6841 38.2864 25.6841 32.6364 29.1841 29.103C32.7341 25.603 38.3841 25.603 49.6841 25.603H51.6841C63.0007 25.603 68.6507 25.603 72.1841 29.103C75.6841 32.653 75.6841 38.303 75.6841 49.603V51.603C75.6841 62.9197 75.6841 68.5697 72.1841 72.103C68.6341 75.603 62.9841 75.603 51.6841 75.603H49.6841C38.3674 75.603 32.7174 75.603 29.1841 72.103C25.6841 68.553 25.6841 62.903 25.6841 51.603V49.603Z" fill="#0077FF"/>
<path d="M52.2838 61.6199C40.8839 61.6199 34.3839 53.8199 34.1172 40.8199H39.8505C40.0339 50.3532 44.2339 54.3865 47.5672 55.2199V40.8199H52.9505V49.0366C56.2339 48.6866 59.7005 44.9366 60.8672 40.8032H66.2338C65.7963 42.9428 64.9221 44.9692 63.6661 46.7558C62.4101 48.5423 60.7991 50.0507 58.9339 51.1865C61.0154 52.2226 62.8537 53.6881 64.3274 55.4865C65.8012 57.2849 66.877 59.3753 67.4838 61.6199H61.5672C60.3005 57.6699 57.1339 54.6032 52.9505 54.1865V61.6199H52.3005H52.2838Z" fill="white"/>
</svg>
