<svg width="99" height="101" viewBox="0 0 99 101" fill="none" xmlns="http://www.w3.org/2000/svg">
<path d="M98.6842 0.603027H0V100.603H98.6842V0.603027Z" fill="#25D366"/>
<path fill-rule="evenodd" clip-rule="evenodd" d="M66.6117 32.7905C61.9859 28.103 55.8181 25.603 49.3419 25.603C35.7729 25.603 24.6709 36.853 24.6709 50.603C24.6709 54.978 25.9045 59.353 28.0632 63.103L24.6709 75.603L37.6232 72.1655C41.3239 74.0405 45.3329 75.2905 49.3419 75.2905C62.911 75.2905 74.013 64.0405 74.013 50.2905C74.013 43.728 71.2375 37.478 66.6117 32.7905ZM49.3419 71.228C45.6413 71.228 41.9407 70.2905 38.8568 68.4155L38.24 68.103L30.5303 70.2905L32.689 62.7905L32.0722 61.853C29.9135 58.4155 28.9883 54.6655 28.9883 50.9155C28.9883 39.6655 38.24 30.2905 49.3419 30.2905C54.8929 30.2905 59.8272 32.478 63.8362 36.228C67.8453 40.2905 69.6956 45.2905 69.6956 50.9155C69.6956 61.853 60.7523 71.228 49.3419 71.228ZM60.4439 55.603C59.8272 55.2905 56.7433 53.728 56.1265 53.728C55.5098 53.4155 55.2013 53.4155 54.8929 54.0405C54.5845 54.6655 53.351 55.9155 53.0426 56.5405C52.7343 56.853 52.4258 56.853 51.809 56.853C51.1922 56.5405 49.342 55.9155 46.8749 53.728C45.0246 52.1655 43.791 49.978 43.4826 49.353C43.1742 48.728 43.4826 48.4155 43.791 48.103C44.0994 47.7905 44.4077 47.478 44.7161 47.1655C45.0245 46.853 45.0246 46.5405 45.3329 46.228C45.6413 45.9155 45.3329 45.603 45.3329 45.2905C45.3329 44.978 44.0994 41.853 43.4826 40.603C43.1742 39.6655 42.5574 39.6655 42.2491 39.6655C41.9407 39.6655 41.6322 39.6655 41.0154 39.6655C40.707 39.6655 40.0903 39.6655 39.4735 40.2905C38.8567 40.9155 37.3148 42.478 37.3148 45.603C37.3148 48.728 39.4735 51.5405 39.7819 52.1655C40.0903 52.478 44.0993 59.0405 50.2671 61.5405C55.5097 63.728 56.4349 63.103 57.6685 63.103C58.902 63.103 61.3691 61.5405 61.6775 60.2905C62.2943 58.728 62.2943 57.478 61.9859 57.478C61.6775 55.9155 61.0607 55.9155 60.4439 55.603Z" fill="white"/>
</svg>
