<svg width="100" height="101" viewBox="0 0 100 101" fill="none" xmlns="http://www.w3.org/2000/svg">
<path d="M100 0.603027H0V100.603H100V0.603027Z" fill="#FF0000"/>
<path d="M73.75 38.4155C73.125 36.228 71.5625 34.6655 69.375 34.0405C65.625 33.103 49.6875 33.103 49.6875 33.103C49.6875 33.103 34.0625 33.103 30 34.0405C27.8125 34.6655 26.25 36.228 25.625 38.4155C25 42.478 25 50.603 25 50.603C25 50.603 25 58.728 25.9375 62.7905C26.5625 64.978 28.125 66.5405 30.3125 67.1655C34.0625 68.103 50 68.103 50 68.103C50 68.103 65.625 68.103 69.6875 67.1655C71.875 66.5405 73.4375 64.978 74.0625 62.7905C75 58.728 75 50.603 75 50.603C75 50.603 75 42.478 73.75 38.4155ZM45 58.103V43.103L58.125 50.603L45 58.103Z" fill="white"/>
</svg>
