<svg width="40" height="40" viewBox="0 0 40 40" fill="none" xmlns="http://www.w3.org/2000/svg">
<path fill-rule="evenodd" clip-rule="evenodd" d="M15 3C13.8954 3 13 3.89543 13 5V7.75758C13 8.30986 13.4477 8.75758 14 8.75758C14.5523 8.75758 15 8.30986 15 7.75758V5H32V28.3636H31C30.4477 28.3636 30 28.8114 30 29.3636C30 29.9159 30.4477 30.3636 31 30.3636H32C33.1046 30.3636 34 29.4682 34 28.3636V5C34 3.89543 33.1046 3 32 3H15ZM10 33V11.6364H27V33H10ZM8 10.6364C8 10.0841 8.44772 9.63637 9 9.63637H28C28.5523 9.63637 29 10.0841 29 10.6364V34C29 34.5523 28.5523 35 28 35H9C8.44772 35 8 34.5523 8 34V10.6364Z" fill="#931E3F"/>
</svg>
