<svg width="110" height="110" viewBox="0 0 110 110" fill="none" xmlns="http://www.w3.org/2000/svg">
<mask id="mask0_3318_138253" style="mask-type:alpha" maskUnits="userSpaceOnUse" x="20" y="30" width="69" height="50">
<path d="M20 31.0396C20 30.4654 20.4654 30 21.0396 30H79.6032C84.3878 30 88.2665 33.8787 88.2665 38.6633V70.5441C88.2665 75.3287 84.3878 79.2073 79.6032 79.2073H28.6633C23.8787 79.2073 20 75.3287 20 70.5441V31.0396Z" fill="#A5450B"/>
</mask>
<g mask="url(#mask0_3318_138253)">
<path d="M20 31.0396C20 30.4654 20.4654 30 21.0396 30H79.6032C84.3878 30 88.2665 33.8787 88.2665 38.6633V70.5441C88.2665 75.3287 84.3878 79.2073 79.6032 79.2073H28.6633C23.8787 79.2073 20 75.3287 20 70.5441V31.0396Z" fill="#A5450B"/>
<path d="M80.2965 53.5624C80.2965 32.9437 74.0589 30.9801 71.2867 28.7854C75.214 26.4174 85.2172 22.8597 88.2667 24.8003C92.0785 27.226 93.6379 38.6615 94.8507 40.9139C96.0636 43.1664 95.7171 79.0323 95.8903 81.1115C96.0636 83.1906 85.3212 91.3341 84.4549 91.8539C83.5885 92.3737 58.8116 82.4976 68.6877 81.1115C78.5638 79.7253 80.2965 72.7947 80.2965 53.5624Z" fill="#823102"/>
<path d="M5.27344 42.4746L93.6371 79.2043L74.75 124.643L-13.6137 87.9129L5.27344 42.4746Z" fill="#7B2E00" fill-opacity="0.46"/>
</g>
<mask id="mask1_3318_138253" style="mask-type:alpha" maskUnits="userSpaceOnUse" x="60" y="48" width="30" height="13">
<path d="M60.1982 54.4295C60.1982 51.0803 62.9133 48.3652 66.2625 48.3652H89.9999V60.4938H66.2625C62.9133 60.4938 60.1982 57.7787 60.1982 54.4295Z" fill="#BC581A"/>
</mask>
<g mask="url(#mask1_3318_138253)">
<path d="M60.1982 54.4295C60.1982 51.0803 62.9133 48.3652 66.2625 48.3652H89.9999V60.4938H66.2625C62.9133 60.4938 60.1982 57.7787 60.1982 54.4295Z" fill="#BC581A"/>
<path d="M79.2574 53.5624C79.2574 32.9437 73.0199 30.9801 70.2476 28.7854C74.175 26.4174 84.1782 22.8597 87.2276 24.8003C91.0394 27.226 92.5988 38.6615 93.8117 40.9139C95.0245 43.1664 94.678 79.0323 94.8513 81.1115C95.0245 83.1906 84.2821 91.3341 83.4158 91.8539C82.5495 92.3737 57.7725 82.4976 67.6487 81.1115C77.5248 79.7253 79.2574 72.7947 79.2574 53.5624Z" fill="#A5450B"/>
</g>
<circle cx="66.6081" cy="54.4285" r="3.9851" fill="#511E00"/>
</svg>
