<svg width="41" height="40" viewBox="0 0 41 40" fill="none" xmlns="http://www.w3.org/2000/svg">
<path fill-rule="evenodd" clip-rule="evenodd" d="M12.8335 20.0001C12.8335 20.5524 13.2812 21.0001 13.8335 21.0001C14.3858 21.0001 14.8335 20.5524 14.8335 20.0001L14.8335 16.0001H26.1668L26.1668 20.0001C26.1668 20.5524 26.6145 21.0001 27.1668 21.0001C27.7191 21.0001 28.1668 20.5524 28.1668 20.0001V16.0001H30.1529C31.0534 16.0001 31.632 16.0021 32.0612 16.0578C32.4619 16.1098 32.5941 16.1941 32.6703 16.2642C32.7464 16.3343 32.8414 16.459 32.9266 16.854C33.0177 17.2771 33.0678 17.8536 33.1425 18.751L34.3231 32.917C34.3677 33.4532 34.3903 33.7517 34.379 33.9601L34.3785 33.9681L34.3706 33.9692C34.1638 33.9978 33.8645 34.0001 33.3265 34.0001H7.67371C7.13571 34.0001 6.83637 33.9978 6.62958 33.9692L6.6217 33.9681L6.62125 33.9601C6.60988 33.7517 6.63248 33.4532 6.67716 32.917L7.85767 18.7509C7.93245 17.8536 7.98247 17.2771 8.07365 16.854C8.15878 16.459 8.25376 16.3343 8.32993 16.2642C8.40609 16.1941 8.53827 16.1098 8.93902 16.0578C9.36819 16.0021 9.94684 16.0001 10.8473 16.0001H12.8335L12.8335 20.0001ZM14.8335 14.0001L26.1668 14.0001V13.3334C26.1668 10.2038 23.6298 7.66675 20.5002 7.66675C17.3705 7.66675 14.8335 10.2038 14.8335 13.3334V14.0001ZM28.1668 14.0001V13.3334C28.1668 9.09923 24.7343 5.66675 20.5002 5.66675C16.266 5.66675 12.8335 9.09923 12.8335 13.3334V14.0001H10.8473L10.7849 14.0001H10.7849C9.96482 14 9.25478 14 8.68147 14.0744C8.06523 14.1545 7.47363 14.3343 6.97571 14.7924C6.47779 15.2506 6.24946 15.8252 6.11854 16.4327C5.99674 16.9978 5.93781 17.7054 5.86976 18.5226L5.86458 18.5849L4.68407 32.7509L4.67929 32.8082C4.64112 33.2652 4.60437 33.7052 4.62422 34.0691C4.64646 34.4769 4.74483 34.9518 5.11514 35.3543C5.48546 35.7568 5.95061 35.8942 6.35518 35.9503C6.71613 36.0003 7.15763 36.0002 7.61618 36.0001H7.61626L7.67371 36.0001L33.3839 36.0001H33.384C33.8426 36.0002 34.2841 36.0003 34.645 35.9503C35.0496 35.8942 35.5148 35.7568 35.8851 35.3543C36.2554 34.9518 36.3537 34.4769 36.376 34.0691C36.3958 33.7052 36.3591 33.2652 36.3209 32.8083V32.8082L35.1305 18.5227C35.0624 17.7055 35.0035 16.9978 34.8817 16.4327C34.7508 15.8252 34.5224 15.2506 34.0245 14.7924C33.5266 14.3343 32.935 14.1545 32.3187 14.0744C31.7454 14 31.0354 14 30.2154 14.0001H30.2153H28.1668Z" fill="#7F203B"/>
</svg>
