<svg width="25" height="25" viewBox="0 0 25 25" fill="none" xmlns="http://www.w3.org/2000/svg">
<path d="M4.56128 3.54451C4.28041 3.26363 3.82502 3.26364 3.54415 3.54451C3.26328 3.82538 3.26328 4.28076 3.54415 4.56164L11.1725 12.19L3.54462 19.818C3.26375 20.0988 3.26375 20.5542 3.54462 20.8351C3.8255 21.116 4.28088 21.116 4.56175 20.8351L12.1897 13.2072L19.8182 20.8357C20.0991 21.1166 20.5544 21.1166 20.8353 20.8357C21.1162 20.5548 21.1162 20.0994 20.8353 19.8186L13.2068 12.19L20.8358 4.56103C21.1167 4.28016 21.1167 3.82478 20.8358 3.54391C20.5549 3.26303 20.0995 3.26303 19.8187 3.54391L12.1897 11.1729L4.56128 3.54451Z" fill="black"/>
</svg>
