<svg width="40" height="40" viewBox="0 0 40 40" fill="none" xmlns="http://www.w3.org/2000/svg">
<path fill-rule="evenodd" clip-rule="evenodd" d="M20.6046 6.01312C20.6947 6.04925 20.8156 6.10981 21.0538 6.2311L32.7964 12.2111L27.8 14.7556L15.6036 8.54446L20.1462 6.2311C20.3844 6.10981 20.5053 6.04925 20.5954 6.01312C20.597 6.01249 20.5985 6.01188 20.6 6.01129C20.6015 6.01188 20.603 6.01249 20.6046 6.01312ZM13.4 9.66667L25.5964 15.8778L20.6 18.4223L8.40359 12.2111L13.4 9.66667ZM7.19999 13.8426L19.6 20.1574V33.2463L7.74619 27.2097C7.46216 27.065 7.31662 26.9895 7.21834 26.9261C7.21677 26.925 7.21524 26.9241 7.21375 26.9231C7.21356 26.9213 7.21337 26.9195 7.21318 26.9176C7.20121 26.8013 7.19999 26.6373 7.19999 26.3186V13.8426ZM21.6 33.2463V20.1574L26.8 17.5093V24.0778C26.8 24.6301 27.2477 25.0778 27.8 25.0778C28.3523 25.0778 28.8 24.6301 28.8 24.0778V16.4907L34 13.8426V26.3186C34 26.6373 33.9988 26.8013 33.9868 26.9176C33.9866 26.9195 33.9864 26.9213 33.9862 26.9231C33.9847 26.9241 33.9832 26.9251 33.9816 26.9261C33.8834 26.9895 33.7378 27.065 33.4538 27.2097L21.6 33.2463ZM21.8691 4.40146C21.5274 4.22516 21.091 4 20.6 4C20.109 4 19.6726 4.22516 19.3309 4.40146C19.2993 4.41776 19.2685 4.43365 19.2386 4.4489L5.74619 11.32C5.41103 11.4907 5.19999 11.835 5.19999 12.2111L5.19999 26.3558C5.19994 26.6217 5.19988 26.8909 5.22366 27.1222C5.25091 27.3872 5.31531 27.6838 5.49482 27.9767C5.67433 28.2696 5.90945 28.4616 6.13323 28.6061C6.32855 28.7323 6.56843 28.8544 6.80544 28.975L20.1462 35.7689C20.4313 35.9141 20.7687 35.9141 21.0538 35.7689L34.3946 28.975C34.6316 28.8543 34.8715 28.7322 35.0668 28.6061C35.2905 28.4616 35.5256 28.2696 35.7052 27.9767C35.8847 27.6838 35.9491 27.3872 35.9763 27.1222C36.0001 26.8909 36 26.6217 36 26.3558L36 12.2111C36 11.835 35.7889 11.4907 35.4538 11.32L21.9614 4.4489C21.9314 4.43365 21.9007 4.41776 21.8691 4.40146Z" fill="#7F203B"/>
</svg>
