<svg width="40" height="40" viewBox="0 0 40 40" fill="none" xmlns="http://www.w3.org/2000/svg">
<path fill-rule="evenodd" clip-rule="evenodd" d="M19.3895 7.86672C18.9643 8.60813 18.5023 9.75321 17.8344 11.4183L17.7545 11.6175C17.4002 12.5008 17.1064 13.2334 16.8028 13.8109C16.4832 14.419 16.116 14.9302 15.5761 15.3316C15.0363 15.733 14.441 15.9373 13.7666 16.0683C13.1262 16.1926 12.34 16.263 11.3921 16.3479L10.9834 16.3845C9.32827 16.5327 8.1995 16.6364 7.43213 16.8174C7.05543 16.9063 6.84521 16.9973 6.73178 17.0709C6.64624 17.1265 6.63637 17.1568 6.63125 17.1724C6.63101 17.1732 6.63078 17.1739 6.63056 17.1746C6.63033 17.1752 6.63009 17.1759 6.62983 17.1767C6.62443 17.1923 6.61399 17.2224 6.6486 17.3183C6.69448 17.4455 6.807 17.645 7.05342 17.9435C7.5554 18.5515 8.39214 19.3161 9.62133 20.4345L10.4563 21.1941C11.0394 21.7246 11.5237 22.1652 11.8936 22.5653C12.2825 22.9861 12.5929 23.4113 12.7964 23.932C12.8653 24.1083 12.9226 24.2889 12.9679 24.4727C13.1017 25.0155 13.0931 25.5419 13.0178 26.1099C12.9462 26.6501 12.8043 27.2893 12.6336 28.0589L12.5133 28.6009C12.1799 30.1036 11.9492 31.1498 11.8642 31.903C11.784 32.6136 11.874 32.7887 11.876 32.7967C11.9586 32.8861 12.0641 32.9511 12.1811 32.9848C12.1891 32.9831 12.3859 32.9849 12.985 32.5943C13.62 32.1803 14.4513 31.5047 15.6446 30.5323L15.6815 30.5023C16.4211 29.8996 17.0301 29.4033 17.5658 29.0451C18.1252 28.671 18.677 28.3962 19.3167 28.294C19.7694 28.2217 20.2306 28.2217 20.6832 28.294C21.323 28.3962 21.8748 28.671 22.4342 29.0451C22.9698 29.4033 23.5788 29.8996 24.3184 30.5022L24.3554 30.5323C25.5487 31.5047 26.38 32.1803 27.015 32.5943C27.6141 32.9849 27.8109 32.9831 27.8189 32.9848C27.9359 32.9511 28.0414 32.8861 28.124 32.7967C28.126 32.7887 28.216 32.6136 28.1358 31.903C28.0508 31.1498 27.8201 30.1036 27.4867 28.6009L27.3664 28.0588C27.1956 27.2892 27.0538 26.6501 26.9822 26.1099C26.9068 25.5419 26.8983 25.0155 27.0321 24.4727C27.0774 24.2889 27.1346 24.1083 27.2035 23.932C27.4071 23.4113 27.7175 22.9861 28.1064 22.5653C28.4763 22.1652 28.9606 21.7246 29.5436 21.1941L30.3787 20.4345C31.6079 19.3161 32.4446 18.5515 32.9466 17.9435C33.193 17.645 33.3055 17.4455 33.3514 17.3183C33.386 17.2224 33.3756 17.1923 33.3702 17.1767C33.3699 17.1759 33.3697 17.1752 33.3694 17.1746C33.3692 17.1739 33.369 17.1732 33.3687 17.1724C33.3636 17.1568 33.3537 17.1265 33.2682 17.0709C33.1548 16.9973 32.9446 16.9063 32.5679 16.8174C31.8005 16.6364 30.6717 16.5327 29.0166 16.3845L28.6079 16.3479C27.66 16.263 26.8738 16.1926 26.2334 16.0683C25.559 15.9373 24.9637 15.733 24.4238 15.3316C23.884 14.9302 23.5168 14.419 23.1972 13.8109C22.8936 13.2334 22.5998 12.5008 22.2455 11.6175L22.1656 11.4183C21.4977 9.75321 21.0357 8.60813 20.6105 7.86672C20.4007 7.50092 20.2402 7.30813 20.1271 7.21208C20.0438 7.14129 20.0126 7.14293 20.002 7.14348C20.0012 7.14352 20.0006 7.14355 20 7.14355C19.9994 7.14355 19.9988 7.14352 19.998 7.14348C19.9874 7.14293 19.9562 7.14129 19.8729 7.21208C19.7598 7.30813 19.5993 7.50092 19.3895 7.86672ZM17.6546 6.87164C18.1437 6.01896 18.8461 5.14355 20 5.14355C21.1539 5.14355 21.8563 6.01896 22.3454 6.87164C22.849 7.74969 23.3616 9.02764 23.9901 10.5948L24.0829 10.826C24.4608 11.7681 24.7174 12.4046 24.9675 12.8804C25.2069 13.3358 25.4023 13.5668 25.6171 13.7266C25.832 13.8863 26.1095 14.0069 26.6146 14.1049C27.1423 14.2074 27.8257 14.2698 28.8367 14.3604L29.2796 14.4C30.8292 14.5388 32.1031 14.6528 33.0272 14.8709C33.9408 15.0865 34.914 15.4931 35.2651 16.537C35.6162 17.5809 35.0864 18.493 34.4888 19.2168C33.8843 19.949 32.9382 20.8097 31.7874 21.8566L30.9208 22.6451C30.2986 23.2111 29.8792 23.5939 29.5751 23.9229C29.2834 24.2385 29.1469 24.454 29.0663 24.6602C29.0292 24.7551 28.9984 24.8523 28.974 24.9513C28.921 25.1662 28.9083 25.421 28.9648 25.847C29.0237 26.2911 29.1459 26.8457 29.3281 27.6668L29.4531 28.2303C29.7694 29.6558 30.0247 30.8067 30.1231 31.6787C30.2154 32.4959 30.2274 33.4479 29.6183 34.1261C29.2758 34.5074 28.8307 34.7819 28.3363 34.9168C27.4568 35.1568 26.6115 34.7188 25.9227 34.2697C25.1875 33.7904 24.2737 33.0457 23.1418 32.1233L23.092 32.0828C22.3063 31.4425 21.7702 31.007 21.3224 30.7076C20.8895 30.4181 20.6133 30.3082 20.3679 30.269C20.1242 30.2301 19.8758 30.2301 19.6321 30.269C19.3867 30.3082 19.1104 30.4181 18.6776 30.7076C18.2298 31.007 17.6937 31.4425 16.908 32.0828L16.8583 32.1233C15.7263 33.0457 14.8125 33.7904 14.0773 34.2697C13.3885 34.7188 12.5432 35.1568 11.6637 34.9168C11.1693 34.7819 10.7242 34.5074 10.3817 34.1261C9.77257 33.4479 9.78462 32.4959 9.87684 31.6787C9.97526 30.8067 10.2306 29.6558 10.5469 28.2303L10.6719 27.6668C10.8541 26.8457 10.9763 26.2911 11.0352 25.847C11.0917 25.421 11.079 25.1662 11.026 24.9513C11.0016 24.8523 10.9708 24.7551 10.9337 24.6602C10.8531 24.454 10.7166 24.2385 10.4249 23.9229C10.1208 23.5939 9.70137 23.2111 9.07922 22.6451L8.21257 21.8566C7.06176 20.8097 6.11566 19.949 5.51115 19.2168C4.91354 18.493 4.3838 17.5809 4.7349 16.537C5.086 15.4931 6.05922 15.0865 6.97277 14.8709C7.89689 14.6528 9.17081 14.5388 10.7204 14.4L11.1633 14.3604C12.1743 14.2698 12.8577 14.2074 13.3854 14.1049C13.8905 14.0069 14.168 13.8863 14.3828 13.7266C14.5977 13.5668 14.7931 13.3358 15.0325 12.8804C15.2826 12.4046 15.5392 11.7681 15.9171 10.826L16.0099 10.5947C16.6384 9.02763 17.151 7.74968 17.6546 6.87164Z" fill="#7F203B"/>
</svg>
