<svg width="30" height="30" viewBox="0 0 30 30" fill="none" xmlns="http://www.w3.org/2000/svg">
<path fill-rule="evenodd" clip-rule="evenodd" d="M4.5 12.584C4.5 8.11932 8.11932 4.5 12.584 4.5C17.0486 4.5 20.6679 8.11932 20.6679 12.584C20.6679 17.0486 17.0486 20.6679 12.584 20.6679C8.11932 20.6679 4.5 17.0486 4.5 12.584ZM12.584 3C7.29089 3 3 7.29089 3 12.584C3 17.8771 7.29089 22.1679 12.584 22.1679C15.1032 22.1679 17.3955 21.1959 19.1061 19.6065L25.7198 26.2202C26.0127 26.5131 26.4875 26.5131 26.7804 26.2202C27.0733 25.9273 27.0733 25.4524 26.7804 25.1595L20.123 18.5021C21.4039 16.8725 22.1679 14.8175 22.1679 12.584C22.1679 7.29089 17.8771 3 12.584 3Z" fill="#7F203B"/>
</svg>
