<svg width="50" height="51" viewBox="0 0 50 51" fill="none" xmlns="http://www.w3.org/2000/svg">
<path fill-rule="evenodd" clip-rule="evenodd" d="M11 22C11 16.201 15.701 11.5 21.5 11.5C27.299 11.5 32 16.201 32 22C32 27.799 27.299 32.5 21.5 32.5C15.701 32.5 11 27.799 11 22ZM21.5 7.5C13.4919 7.5 7 13.9919 7 22C7 30.0081 13.4919 36.5 21.5 36.5C24.9857 36.5 28.1841 35.27 30.685 33.2204L39.4235 41.9589C40.2045 42.74 41.4708 42.74 42.2519 41.9589C43.0329 41.1779 43.0329 39.9115 42.2519 39.1305L33.4035 30.2821C35.0402 27.9341 36 25.0792 36 22C36 13.9919 29.5081 7.5 21.5 7.5Z" fill="white"/>
</svg>
