<svg width="50" height="51" viewBox="0 0 50 51" fill="none" xmlns="http://www.w3.org/2000/svg">
<path fill-rule="evenodd" clip-rule="evenodd" d="M7.5 21.6048C7.5 14.1637 13.5322 8.13147 20.9733 8.13147C28.4144 8.13147 34.4466 14.1637 34.4466 21.6048C34.4466 29.0458 28.4144 35.078 20.9733 35.078C13.5322 35.078 7.5 29.0458 7.5 21.6048ZM20.9733 5.63147C12.1515 5.63147 5 12.783 5 21.6048C5 30.4266 12.1515 37.578 20.9733 37.578C25.172 37.578 28.9924 35.958 31.8435 33.3089L42.8663 44.3318C43.3545 44.8199 44.1459 44.8199 44.6341 44.3318C45.1222 43.8436 45.1222 43.0522 44.6341 42.564L33.5383 31.4682C35.6732 28.7524 36.9466 25.3273 36.9466 21.6048C36.9466 12.783 29.7951 5.63147 20.9733 5.63147Z" fill="#7F203B"/>
</svg>
