<svg width="45" height="46" viewBox="0 0 45 46" fill="none" xmlns="http://www.w3.org/2000/svg">
<path fill-rule="evenodd" clip-rule="evenodd" d="M6.75 19.3901C6.75 12.6931 12.179 7.26416 18.876 7.26416C25.5729 7.26416 31.0019 12.6931 31.0019 19.3901C31.0019 26.0871 25.5729 31.5161 18.876 31.5161C12.179 31.5161 6.75 26.0871 6.75 19.3901ZM18.876 5.01416C10.9363 5.01416 4.5 11.4505 4.5 19.3901C4.5 27.3297 10.9363 33.7661 18.876 33.7661C22.6548 33.7661 26.0932 32.3081 28.6591 29.9239L38.5797 39.8444C39.019 40.2838 39.7313 40.2838 40.1707 39.8444C40.61 39.4051 40.61 38.6928 40.1707 38.2534L30.1845 28.2673C32.1059 25.823 33.2519 22.7404 33.2519 19.3901C33.2519 11.4505 26.8156 5.01416 18.876 5.01416Z" fill="#7F203B"/>
</svg>
