<svg width="40" height="40" viewBox="0 0 40 40" fill="none" xmlns="http://www.w3.org/2000/svg">
<path fill-rule="evenodd" clip-rule="evenodd" d="M20 6C12.268 6 6 12.268 6 20C6 23.6429 7.39134 26.9608 9.67161 29.4513C10.4613 28.0273 11.6696 26.7991 13.1719 25.8713C15.1494 24.6499 17.5492 24 19.9998 24C22.4504 24 24.8502 24.6499 26.8276 25.8713C28.33 26.7992 29.5384 28.0275 30.3281 29.4516C32.6085 26.961 34 23.643 34 20C34 12.268 27.732 6 20 6ZM28.8104 30.8807C28.2285 29.6027 27.1918 28.4469 25.7767 27.5729C24.138 26.5607 22.1072 26 19.9998 26C17.8924 26 15.8616 26.5607 14.2229 27.5728C12.8079 28.4468 11.7712 29.6025 11.1893 30.8805C13.5953 32.8312 16.6612 34 20 34C23.3387 34 26.4044 32.8313 28.8104 30.8807ZM4 20C4 11.1634 11.1634 4 20 4C28.8366 4 36 11.1634 36 20C36 28.8366 28.8366 36 20 36C11.1634 36 4 28.8366 4 20ZM20 12.6667C17.7909 12.6667 16 14.4575 16 16.6667C16 18.8758 17.7909 20.6667 20 20.6667C22.2091 20.6667 24 18.8758 24 16.6667C24 14.4575 22.2091 12.6667 20 12.6667ZM14 16.6667C14 13.353 16.6863 10.6667 20 10.6667C23.3137 10.6667 26 13.353 26 16.6667C26 19.9804 23.3137 22.6667 20 22.6667C16.6863 22.6667 14 19.9804 14 16.6667Z" fill="#7F203B"/>
</svg>
