<svg width="40" height="40" viewBox="0 0 40 40" fill="none" xmlns="http://www.w3.org/2000/svg">
<path fill-rule="evenodd" clip-rule="evenodd" d="M18.9577 2.24557C17.625 1.51861 16 2.48324 16 4.00136V6.31682H14C12.8954 6.31682 12 7.21225 12 8.31682V11.3168C12 12.4214 12.8954 13.3168 14 13.3168H16V19.1274C15.9542 19.1476 15.9067 19.1691 15.8575 19.1919C15.3526 19.426 14.6689 19.8019 13.9154 20.3804C11.5366 22.2066 10 25.0825 10 28.3168C10 33.8397 14.4772 38.3168 20 38.3168C25.5228 38.3168 30 33.8397 30 28.3168C30 24.9447 28.33 21.9628 25.7764 20.153C24.9331 19.5554 24.1639 19.2239 23.5896 19.0411C23.5823 19.0387 23.5749 19.0364 23.5677 19.0341C23.5448 19.0267 23.5222 19.0195 23.5 19.0128V5.91045C23.5 5.17856 23.1002 4.50513 22.4577 4.15466L18.9577 2.24557ZM18 20.5801V12.3168V11.3168H16.9999H14V8.31682L18 8.31681V4.00136L21.5 5.91045V20.7458L22.4171 20.8134L22.4294 20.8148C22.4473 20.8171 22.4814 20.8219 22.53 20.8308C22.6274 20.8487 22.7827 20.8831 22.9828 20.9468C23.3824 21.074 23.9622 21.3186 24.6199 21.7847C26.6671 23.2356 28 25.6206 28 28.3168C28 32.7351 24.4183 36.3168 20 36.3168C15.5817 36.3168 12 32.7351 12 28.3168C12 25.7304 13.2263 23.4308 15.1333 21.9668C15.7554 21.4892 16.3095 21.1868 16.6986 21.0065C16.893 20.9163 17.0457 20.8569 17.1442 20.8216C17.1935 20.8039 17.2291 20.7923 17.2496 20.7859L17.2693 20.7799L18 20.5801ZM18 31.8168C18 30.7122 18.8954 29.8168 20 29.8168C21.1046 29.8168 22 30.7122 22 31.8168C22 32.9214 21.1046 33.8168 20 33.8168C18.8954 33.8168 18 32.9214 18 31.8168Z" fill="#7F203B"/>
</svg>
