<svg width="21" height="21" viewBox="0 0 21 21" fill="none" xmlns="http://www.w3.org/2000/svg">
<path fill-rule="evenodd" clip-rule="evenodd" d="M3.88606 15.408L3.01332 18.0896L5.88343 17.2511L6.59767 17.6342C7.78762 18.2725 9.15071 18.6358 10.6054 18.6358C15.2601 18.6358 19.0334 14.8999 19.0334 10.2914C19.0334 5.68292 15.2601 1.94702 10.6054 1.94702C5.95064 1.94702 2.17726 5.68292 2.17726 10.2914C2.17726 11.8905 2.62964 13.379 3.41362 14.6451L3.88606 15.408ZM0 21L1.73705 15.6627C0.768871 14.0991 0.210702 12.2598 0.210702 10.2914C0.210702 4.60761 4.86454 0 10.6054 0C16.3462 0 21 4.60761 21 10.2914C21 15.9752 16.3462 20.5828 10.6054 20.5828C8.81551 20.5828 7.13132 20.1349 5.66089 19.3462L0 21Z" fill="#079151"/>
<path d="M8.80677 7.69544L7.75441 5.30703C7.08977 5.04042 6.36974 5.41812 6.0928 5.6403C4.85213 6.61788 5.28045 8.56564 5.6497 9.41732C7.03438 12.9722 10.9115 14.5274 11.9638 14.9718C13.0162 15.4161 14.6224 15.305 15.5086 14.4719C16.3948 13.6387 16.0071 12.5834 15.9517 12.5834C15.8963 12.5834 14.0686 11.6946 13.7916 11.5836C13.5701 11.4947 13.367 11.5465 13.2931 11.5836C13.0162 11.9539 12.4291 12.7167 12.2962 12.8055C12.1632 12.8944 11.8346 12.8426 11.6869 12.8055C9.80374 12.1945 8.14212 9.86168 8.03135 9.69505C7.94273 9.56174 7.99443 9.30623 8.03135 9.19515C8.17905 8.99148 8.52983 8.52861 8.75138 8.30643C8.97293 8.08426 8.88062 7.80653 8.80677 7.69544Z" fill="#079151"/>
</svg>
