<svg width="110" height="110" viewBox="0 0 110 110" fill="none" xmlns="http://www.w3.org/2000/svg">
<rect x="5" y="67.4531" width="69.3465" height="5.15074" fill="#5C606B"/>
<path d="M74.3477 72.6036V37.8047H93.3803C95.9556 38.7469 98.9079 45.0911 100.981 49.7393C102.639 53.4579 103.514 58.2401 103.745 60.1664V70.8448C103.745 72.1513 102.74 72.5617 102.237 72.6036H74.3477Z" fill="#026398"/>
<path d="M103.744 63.0547C104.438 63.0547 105 63.6171 105 64.311V66.6979C105 67.3917 104.438 67.9542 103.744 67.9542V63.0547Z" fill="#FF8E01"/>
<path d="M81.0051 57.1484C80.6582 57.1484 80.377 56.8672 80.377 56.5203C80.377 56.1734 80.6582 55.8922 81.0051 55.8922L84.6483 55.8922C84.9952 55.8922 85.2764 56.1734 85.2764 56.5203C85.2764 56.8672 84.9952 57.1484 84.6483 57.1484L81.0051 57.1484Z" fill="#024164"/>
<rect x="76.3564" y="40.8184" width="5.65325" height="10.6784" fill="#5898BB"/>
<path d="M83.6426 40.8184H93.4415C93.4415 40.8184 94.8863 42.0746 96.3938 45.655C97.9013 49.2354 98.4667 51.4967 98.4667 51.4967H83.6426V40.8184Z" fill="#5898BB"/>
<circle cx="88.2289" cy="71.7855" r="10.2387" fill="#36383E"/>
<ellipse cx="88.23" cy="71.7837" rx="5.96732" ry="5.96732" fill="white"/>
<ellipse cx="88.1671" cy="71.7227" rx="3.14069" ry="3.14069" fill="#36383E"/>
<path fill-rule="evenodd" clip-rule="evenodd" d="M11.0107 27C8.8016 27 7.01074 28.7909 7.01074 31V67.4521H74.3472V31C74.3472 28.7909 72.5564 27 70.3472 27H11.0107ZM43.4425 47.1635L34.5229 54.5127V49.1098H7.01083V45.0897H34.5229V39.8143L43.4425 47.1635Z" fill="#FF8E01"/>
<mask id="mask0_3318_138268" style="mask-type:alpha" maskUnits="userSpaceOnUse" x="7" y="27" width="68" height="41">
<path fill-rule="evenodd" clip-rule="evenodd" d="M11.0107 27C8.8016 27 7.01074 28.7909 7.01074 31V67.4521H74.3472V31C74.3472 28.7909 72.5564 27 70.3472 27H11.0107ZM43.4425 47.1635L34.5229 54.5127V49.1098H7.01083V45.0897H34.5229V39.8143L43.4425 47.1635Z" fill="#FF8E01"/>
</mask>
<g mask="url(#mask0_3318_138268)">
<rect x="-13.3174" y="24.666" width="90.9174" height="40.6" transform="rotate(-9.58698 -13.3174 24.666)" fill="#FE9800"/>
</g>
<circle cx="30.4408" cy="71.7855" r="10.2387" fill="#36383E"/>
<ellipse cx="30.4419" cy="71.7837" rx="5.96732" ry="5.96732" fill="white"/>
<ellipse cx="30.379" cy="71.7227" rx="3.14069" ry="3.14069" fill="#36383E"/>
</svg>
