<svg width="110" height="110" viewBox="0 0 110 110" fill="none" xmlns="http://www.w3.org/2000/svg">
<path d="M45.4424 32.0431C45.5947 31.4302 46.145 31 46.7765 31H47.7964C48.3643 31 48.8738 31.3492 49.0786 31.879L50.8647 36.4988H44.335L45.4424 32.0431Z" fill="#FF8E01"/>
<mask id="mask0_3318_138266" style="mask-type:alpha" maskUnits="userSpaceOnUse" x="0" y="36" width="110" height="33">
<path d="M3.66907 46.8203C3.66907 46.8203 0.404295 54.3813 0.0605098 57.646C-0.283276 60.9108 0.919691 65.3788 1.60704 66.9254C2.15691 68.1626 6.76213 68.4719 8.996 68.4719C35.8597 68.4146 91.0307 68.3344 96.8044 68.4719C104.021 68.6437 109.348 67.6127 109.864 67.0972C110.379 66.5817 109.348 59.0209 108.146 55.9278C106.943 52.8348 105.224 51.8038 104.709 51.6319C104.193 51.4601 90.1028 47.8515 85.4632 46.9923C80.8236 46.1332 84.2603 46.9923 74.6375 42.5246C65.0146 38.0569 62.6089 36.5102 45.4253 36.1665C28.2417 35.8228 13.2919 44.2428 12.4327 44.7583C11.7454 45.1707 10.8862 45.5029 10.5425 45.6175C8.82416 45.7893 5.2156 46.1674 4.52825 46.3048C3.84091 46.4423 3.66907 46.7058 3.66907 46.8203Z" fill="#FFB902"/>
</mask>
<g mask="url(#mask0_3318_138266)">
<path d="M3.66907 46.8203C3.66907 46.8203 0.404295 54.3813 0.0605098 57.646C-0.283276 60.9108 0.919691 65.3788 1.60704 66.9254C2.15691 68.1626 6.76213 68.4719 8.996 68.4719C35.8597 68.4146 91.0307 68.3344 96.8044 68.4719C104.021 68.6437 109.348 67.6127 109.864 67.0972C110.379 66.5817 109.348 59.0209 108.146 55.9278C106.943 52.8348 105.224 51.8038 104.709 51.6319C104.193 51.4601 90.1028 47.8515 85.4632 46.9923C80.8236 46.1332 84.2603 46.9923 74.6375 42.5246C65.0146 38.0569 62.6089 36.5102 45.4253 36.1665C28.2417 35.8228 13.2919 44.2428 12.4327 44.7583C11.7454 45.1707 10.8862 45.5029 10.5425 45.6175C8.82416 45.7893 5.2156 46.1674 4.52825 46.3048C3.84091 46.4423 3.66907 46.7058 3.66907 46.8203Z" fill="#FFB902"/>
<path d="M114.356 62.4126L-5.88994 46.707C-10.6343 61.431 -13.1538 89.1122 -10.7979 91.8607C-7.85312 95.2963 27.9753 107.075 32.3925 106.585C36.8097 106.094 110.43 96.2779 114.356 96.2779C117.497 96.2779 114.52 74.0283 114.356 62.4126Z" fill="#F9A400"/>
<path d="M8.93549 52.3086H1.71836C0.343673 52.9959 0 56.0317 0 57.4637H4.98325C5.80807 57.4637 6.12883 57.12 6.18611 56.9482C6.93073 56.2608 8.62619 54.6456 9.451 53.6833C10.2758 52.721 9.451 52.3659 8.93549 52.3086Z" fill="#FF2403"/>
<path d="M104.99 55.8645L101.382 50.7095C107.43 48.7849 108.599 53.3443 108.427 55.8645H104.99Z" fill="#F2EBD9"/>
<rect x="105.507" y="63.3047" width="5.15509" height="2.06204" rx="1.03102" fill="#DDA000"/>
<path d="M47.0831 48.6993H21.6514C21.9378 47.7255 23.4041 45.2626 26.9783 43.2005C30.5525 41.1385 41.8708 40.3939 47.0831 40.2793V48.6993Z" fill="#5898BB"/>
<path d="M48.8018 48.7012V40.2812C50.0046 40.2812 53.8194 40.4531 59.4556 41.1404C65.0918 41.8278 74.0617 46.4674 77.8421 48.7012H48.8018Z" fill="#5898BB"/>
</g>
<ellipse cx="19.2451" cy="69.4942" rx="8.59182" ry="8.59182" fill="#36383E"/>
<ellipse cx="19.2448" cy="69.4938" rx="5.0075" ry="5.0075" fill="white"/>
<ellipse cx="19.1941" cy="69.4422" rx="2.63553" ry="2.63553" fill="#36383E"/>
<ellipse cx="86.9483" cy="69.4942" rx="8.59182" ry="8.59182" fill="#36383E"/>
<ellipse cx="86.9479" cy="69.4938" rx="5.0075" ry="5.0075" fill="white"/>
<ellipse cx="86.8972" cy="69.4422" rx="2.63553" ry="2.63553" fill="#36383E"/>
<rect x="31.9629" y="55.748" width="3.43673" height="3.43673" fill="#36383E"/>
<rect x="35.4004" y="59.1855" width="3.43673" height="3.43673" fill="#36383E"/>
<rect x="38.8359" y="55.748" width="3.43673" height="3.43673" fill="#36383E"/>
<rect x="42.2715" y="59.1855" width="3.43673" height="3.43673" fill="#36383E"/>
<rect x="45.709" y="55.748" width="3.43673" height="3.43673" fill="#36383E"/>
<rect x="49.1455" y="59.1855" width="3.43673" height="3.43673" fill="#36383E"/>
<rect x="52.583" y="55.748" width="3.43673" height="3.43673" fill="#36383E"/>
<rect x="56.0205" y="59.1855" width="3.43673" height="3.43673" fill="#36383E"/>
<rect x="59.457" y="55.748" width="3.43673" height="3.43673" fill="#36383E"/>
<rect x="62.8936" y="59.1855" width="3.43673" height="3.43673" fill="#36383E"/>
<rect x="66.3291" y="55.748" width="3.43673" height="3.43673" fill="#36383E"/>
</svg>
