<svg width="110" height="110" viewBox="0 0 110 110" fill="none" xmlns="http://www.w3.org/2000/svg">
<path d="M20 90H90V20H20V90Z" fill="#3C39DC"/>
<path d="M26.4092 58.3613V72.9554H28.8149V68.7179C29.2859 69.1263 29.8037 69.3715 30.358 69.3715C31.1532 69.3715 31.8067 68.9539 32.3192 68.1167C32.8947 67.1851 33.1822 65.8098 33.1822 64.0102C33.1822 62.7554 32.952 61.6253 32.5022 60.6629L32.4237 60.5058L32.3452 60.3753L32.2932 60.2448L32.2147 60.1402L32.1362 60.0097L32.0316 59.8792L31.9531 59.7746L31.8746 59.6701L31.7701 59.5646L31.6916 59.4601L31.5871 59.3556L31.4826 59.2775L31.3781 59.172L31.2736 59.094L31.1691 59.016L31.0645 58.937L30.934 58.8854L30.8295 58.8064L30.725 58.7549L30.5945 58.7024L30.464 58.6499L30.3334 58.5983L30.2029 58.5458L30.0724 58.5193L29.9419 58.4938L29.8114 58.4673L29.6544 58.4148H29.5238L29.3668 58.3883H29.2363L29.0793 58.3628H28.9223H26.4092V58.3613ZM28.6844 60.4273H28.9199C29.5267 60.4273 29.9973 60.7775 30.332 61.4471C30.6667 62.1166 30.829 63.1528 30.829 64.5858C30.829 65.3599 30.7346 65.9717 30.515 66.3903C30.306 66.8089 30.0339 67.0179 29.7304 67.0179C29.4376 67.0179 29.1973 66.8195 28.9984 66.4433C28.7995 66.0772 28.6844 65.5488 28.6844 64.8474V60.4273Z" fill="white"/>
<path d="M83.012 57.6523L82.8136 57.8508C82.8136 57.8508 77.7826 63.1023 77.4054 63.5006V58.3532H75.0518V72.9781H77.4054V66.9727C77.4685 66.9005 80.4912 63.6986 80.8365 63.3325C80.8577 63.8658 81.1814 72.9776 81.1814 72.9776H83.5876L83.012 57.6523Z" fill="white"/>
<path d="M71.5386 57.8513L71.5284 57.872L71.5072 57.8821L71.4861 57.9139L71.4552 57.9447L71.4128 57.9861L71.3714 58.0285L71.3189 58.0801L71.2674 58.1326L71.2043 58.1957L71.1412 58.2689L71.068 58.3411L70.9953 58.4144L70.9226 58.4982L70.8388 58.582L70.7448 58.6759L70.556 58.8754L70.3571 59.0844L70.1481 59.3036L69.928 59.5343L69.6983 59.7752L69.4575 60.016L69.2166 60.267L68.9758 60.5285L68.4846 61.0406L68.2438 61.2916L68.003 61.5324L67.7728 61.7733L67.5531 62.0141L67.3335 62.2333L67.1346 62.4423L66.9463 62.6418L66.8524 62.7357L66.7686 62.8296L66.6848 62.9134L66.6116 62.9973L66.5388 63.0705L66.4762 63.1427L66.4131 63.2058L66.35 63.2689L66.2985 63.3214L66.2566 63.3629L66.2147 63.4043L66.1834 63.4467L66.1521 63.4674L66.1314 63.4992V58.3517H63.7676V72.9766H66.1314V66.9713C66.194 66.899 69.2171 63.6972 69.5625 63.3311C69.5832 63.8643 69.9078 72.9761 69.9078 72.9761H72.3034L71.7283 57.6504L71.5386 57.8513Z" fill="white"/>
<path d="M57.8549 69.3484L57.7085 69.1707L57.5828 68.993L57.4571 68.7935L57.3526 68.5951L57.2481 68.386L57.1537 68.176L57.0598 67.9568L56.9866 67.7367L56.9239 67.4958L56.8613 67.2661L56.8088 67.0151L56.7674 66.7641L56.7361 66.5026L56.7154 66.241L56.7053 65.9693L56.6947 65.6977C56.6947 64.1596 57.0713 62.9356 57.8034 62.0358C58.6087 61.0526 59.7805 60.5603 61.3077 60.5603H61.4228V58.0078H61.3077C58.9227 58.0078 57.092 58.74 55.8475 60.215C54.7176 61.5435 54.1426 63.3951 54.1426 65.7179C54.1426 67.9568 54.7701 69.8085 55.9939 71.2001C57.2909 72.6649 59.0797 73.4178 61.339 73.4178H61.4541V70.8552H61.339C59.8532 70.8547 58.6814 70.3523 57.8549 69.3484Z" fill="white"/>
<path d="M38.9358 57.9961C37.6701 57.9961 36.6606 58.7129 35.9285 60.1146C35.2172 61.4956 34.8564 63.3324 34.8564 65.5809C34.8564 67.9037 35.1965 69.7818 35.876 71.1522C36.5667 72.554 37.5969 73.2707 38.9358 73.2707C40.306 73.2707 41.3887 72.5116 42.1521 71.0477C42.8634 69.6768 43.2246 67.8256 43.2246 65.5554C43.2246 63.3165 42.8586 61.4855 42.1261 60.1146L42.0475 59.9841L41.969 59.8535L41.917 59.723L41.8125 59.6185L41.76 59.5139L41.6555 59.4094L41.577 59.3039L41.4985 59.1994L41.42 59.0948L41.3155 58.9903L41.237 58.9113L41.1325 58.8333L41.054 58.7553L40.9495 58.6763L40.8709 58.5982L40.7664 58.5192L40.6619 58.4677L40.5574 58.4152L40.4529 58.3636L40.3484 58.3111L40.2439 58.2586L40.1394 58.2071L40.0348 58.1806L39.9043 58.1281L39.7998 58.1025L39.6693 58.0761L39.5648 58.0496H39.4603L39.3298 58.0231L39.1992 57.9966H39.0687H38.9358V57.9961ZM38.9358 60.3497C39.6052 60.3497 40.097 60.8256 40.4004 61.788C40.6932 62.6565 40.8189 63.9229 40.8189 65.5549C40.8189 67.1344 40.6725 68.447 40.3484 69.4518L40.2959 69.5564L40.2699 69.6344L40.2439 69.7134L40.2179 69.7914L40.1914 69.8704L40.1394 69.9485L40.1134 70.0265L40.0609 70.079L40.0348 70.1571L39.9828 70.2096L39.9568 70.2876L39.9303 70.3401L39.8783 70.3926L39.8263 70.4441L39.7998 70.4967L39.7478 70.5231L39.7218 70.5747L39.6693 70.6272L39.6173 70.6537L39.5653 70.7052L39.5128 70.7317L39.4608 70.7582L39.4348 70.7847L39.3823 70.8102H39.3302L39.2777 70.8367L39.2257 70.8632H39.1737L39.1212 70.8897H39.0692H39.0167H38.9382C38.3631 70.8897 37.9287 70.3979 37.6046 69.4249C37.2699 68.4099 37.1076 67.1074 37.1076 65.58C37.1076 64.0221 37.2694 62.735 37.6046 61.762C37.9056 60.8314 38.3501 60.3497 38.9358 60.3497Z" fill="white"/>
<path d="M48.7867 69.3484L48.7241 69.2646L48.6509 69.1707L48.5151 68.993L48.4 68.7935L48.2848 68.5951L48.1803 68.386L48.0864 68.176L48.0026 67.9568L47.9188 67.7367L47.8562 67.4958L47.7936 67.2661L47.7517 67.0151L47.7098 66.7641L47.6785 66.5026L47.6573 66.241L47.6366 65.9693V65.6977C47.6366 64.1596 48.0026 62.9356 48.7453 62.0358C49.5404 61.0526 50.7117 60.5603 52.239 60.5603H52.3642V58.0078H52.239C49.8646 58.0078 48.0233 58.74 46.7894 60.215C45.6489 61.5435 45.084 63.3951 45.084 65.7179C45.084 67.9568 45.7014 69.8085 46.9353 71.2001C48.2218 72.6649 50.0211 73.4178 52.2809 73.4178H52.396V70.8552H52.2809C50.7845 70.8547 49.6132 70.3523 48.7867 69.3484Z" fill="white"/>
<path d="M26.4326 36.9062V51.6048H29.1417V39.3437H32.4895V51.6048H35.188V36.9062H26.4326Z" fill="white"/>
<path d="M43.4857 36.5234C42.0524 36.5234 40.9018 37.245 40.0859 38.668C39.2806 40.0596 38.8828 41.9006 38.8828 44.1603C38.8828 46.4932 39.2594 48.4026 40.0334 49.7837C40.818 51.196 41.9792 51.9022 43.4852 51.9022C45.0225 51.9022 46.2362 51.1647 47.094 49.6791C47.8993 48.2981 48.3231 46.4305 48.3231 44.1603C48.3231 41.9006 47.8834 40.0485 47.068 38.668L46.9895 38.5374L46.911 38.4069L46.8325 38.2763L46.728 38.1718L46.6495 38.0413L46.5449 37.9367L46.4664 37.8322L46.3619 37.7272L46.2574 37.6227L46.1789 37.5442L46.0744 37.4396L45.9699 37.3611L45.8654 37.2826L45.7609 37.2041L45.6303 37.1256L45.5258 37.0731L45.4213 36.9945L45.3168 36.942L45.1863 36.89L45.0818 36.838L44.9513 36.786L44.8207 36.7335L44.7162 36.7074L44.5857 36.6554L44.4552 36.6289L44.3247 36.6029L44.1941 36.5769L44.0636 36.5504H43.9066H43.7761L43.6456 36.5244H43.4857V36.5234ZM43.5117 39.008C44.2437 39.008 44.7615 39.4787 45.1068 40.4204C45.4204 41.2783 45.5778 42.5283 45.5778 44.1608C45.5778 45.7196 45.3948 47.0221 45.0283 48.0052C44.6729 48.9677 44.1811 49.4176 43.5117 49.4176H43.4332H43.3812H43.3287H43.2767L43.2246 49.3915L43.1721 49.3655H43.1201L43.0676 49.3395L43.0156 49.313L42.9636 49.287L42.9111 49.261L42.8591 49.235L42.8066 49.1825L42.7546 49.1565L42.7026 49.1045L42.6501 49.0784L42.6241 49.0259L42.572 48.9739L42.5195 48.9214L42.4935 48.8694L42.4415 48.8174L42.389 48.7388L42.363 48.6868L42.311 48.6343L42.2845 48.5558L42.2325 48.4773L42.2065 48.4253L42.1805 48.3207L42.128 48.2422L42.102 48.1637L42.076 48.0852L42.0235 48.0067C41.6574 46.9922 41.4744 45.7051 41.4744 44.1882C41.4744 42.6295 41.6574 41.3583 42.0235 40.3958C42.3664 39.4632 42.8528 39.008 43.5117 39.008Z" fill="white"/>
<path d="M63.0557 36.9062V39.3437H65.3044V51.6048H68.013V39.3437H70.294V36.9062H63.0557Z" fill="white"/>
<path d="M57.1234 42.0224H55.6482C55.0414 42.0224 54.5814 41.8865 54.2987 41.6144C54.0897 41.426 53.9953 41.1645 53.9953 40.8297V36.9062H51.2861V41.1014C51.2861 42.0638 51.6734 42.8904 52.4261 43.5392C53.1688 44.1775 54.0897 44.5017 55.1459 44.5017H57.1229V51.6053H59.8321V36.9067H57.1229V42.0224H57.1234Z" fill="white"/>
<path d="M73.8212 36.916L73.3242 51.6146H76.0179C76.0179 51.6146 76.2689 44.7465 76.2794 44.4223H79.6527C79.684 44.7258 80.4373 51.6146 80.4373 51.6146H83.157L81.9019 40.865V40.7344V40.6039V40.4734L81.8754 40.3428V40.2123L81.8494 40.1078V39.9772L81.8229 39.8727L81.7969 39.7421L81.7704 39.6376L81.7439 39.5331L81.7179 39.4281L81.6914 39.3235L81.6394 39.219L81.6129 39.1145L81.5869 39.01L81.5349 38.9049L81.4824 38.8264L81.4304 38.7219L81.4044 38.6434L81.3519 38.5389L81.2999 38.4603L81.2214 38.3818L81.1694 38.2773L81.1174 38.2253L81.0388 38.1203L80.9868 38.0682L80.9083 37.9897L80.8298 37.9112L80.7518 37.8587L80.6993 37.7802L80.5948 37.7017C79.9147 37.1679 78.9944 36.917 77.8226 36.917H73.8212V36.916ZM76.41 39.3486H77.3775C78.0783 39.3486 78.5493 39.5735 78.8417 40.0023C79.0825 40.3582 79.2448 41.0379 79.3387 41.9898H76.3315V41.9637V41.9377V41.9112V41.8852V41.8587V41.8327V41.8067V41.7282V41.6497V41.5712L76.3575 41.4926V41.3876V41.3091V41.2046V41.1001V40.995V40.8905V40.655V40.4459L76.384 40.3409V40.2364V40.1318V40.0273V39.9228V39.8443V39.7397V39.6612V39.5827L76.4105 39.5307V39.5042V39.4782V39.4522V39.4257V39.3997V39.3732V39.3486H76.41Z" fill="white"/>
</svg>
