<svg width="110" height="110" viewBox="0 0 110 110" fill="none" xmlns="http://www.w3.org/2000/svg">
<path fill-rule="evenodd" clip-rule="evenodd" d="M54.7334 6.06221C54.7334 5.47557 54.2578 5 53.6712 5H29.5439C28.9573 5 28.4817 5.47557 28.4817 6.06221V92.101C28.4817 92.6877 28.9573 93.1632 29.5439 93.1632C30.1305 93.1632 30.6061 92.6877 30.6061 92.101V7.12442H52.609V92.101C52.609 92.6877 53.0845 93.1632 53.6712 93.1632C54.2578 93.1632 54.7334 92.6877 54.7334 92.101V6.06221Z" fill="#031C34"/>
<path d="M71.881 49.1594V14.8652L32.2759 15.1687L33.1863 84.6675L78.1025 82.9983V50.2216L71.881 49.1594Z" fill="#F2DBCF"/>
<path d="M86.5996 56.8965L55.7956 57.0482V90.7354H86.5996V56.8965Z" fill="#E5B9A3"/>
<path d="M49.4219 25.3323V15.0137H32.2748V25.3323H49.4219Z" fill="#C69174"/>
<path d="M55.7959 90.7342V57.047L32.5791 56.5918V90.7342H55.7959Z" fill="#C69174"/>
<path d="M48.8154 56.4425V26.0938H25.7503V56.4425H48.8154Z" fill="#C69174"/>
<path d="M78.5566 25.9414L48.8148 26.0932V56.4419H78.5566V25.9414Z" fill="#E5B9A3"/>
<path d="M49.4218 14.8613H71.8799V25.6352L49.4218 25.3317V14.8613Z" fill="#E5B9A3"/>
<path d="M45.3252 67.3668V56.8965H41.3799V67.3668H45.3252Z" fill="#E2C7B7"/>
<path d="M55.7959 25.4854V24.2715H53.368V25.4854H55.7959Z" fill="#7F203B"/>
<path d="M52.7607 25.4854V24.2715H50.3328V25.4854H52.7607Z" fill="#7F203B"/>
<path d="M57.6162 55.2267V52.7988H54.2778V55.2267H57.6162Z" fill="#7F203B"/>
<path d="M64.9014 89.217V86.7891H61.563V89.217H64.9014Z" fill="#7F203B"/>
<path d="M53.6719 55.2267V52.7988H50.3335V55.2267H53.6719Z" fill="#7F203B"/>
<path d="M60.9551 89.217V86.7891H57.6167V89.217H60.9551Z" fill="#7F203B"/>
<path d="M69.6031 57.0488H73.7002V67.8227H69.6031V57.0488Z" fill="#F2DBCF"/>
<path d="M65.9619 35.8046V26.3965H62.1683V35.8046H65.9619Z" fill="#F2DBCF"/>
<path d="M61.2588 25.7881V15.166H59.7413V25.7881H61.2588Z" fill="#F2DBCF"/>
<path d="M38.4961 25.7881V15.166H36.9787V25.7881H38.4961Z" fill="#E2C7B7"/>
<path d="M38.3447 35.6535V26.5488H34.3994V35.6535H38.3447Z" fill="#E2C7B7"/>
<path d="M91 90.582H20.2873V92.7064H91V90.582Z" fill="#116ABB"/>
<path d="M89.7861 92.707H21.8048V94.8314H89.7861V92.707Z" fill="#031C34"/>
<path d="M83.4128 101.208C83.4128 103.303 85.1113 105.001 87.2064 105.001C89.3015 105.001 91 103.303 91 101.208C91 99.1125 89.3015 97.4141 87.2064 97.4141C85.1113 97.4141 83.4128 99.1125 83.4128 101.208Z" fill="#031C34"/>
<path d="M84.9291 101.206C84.9291 102.463 85.9482 103.482 87.2053 103.482C88.4624 103.482 89.4814 102.463 89.4814 101.206C89.4814 99.9488 88.4624 98.9297 87.2053 98.9297C85.9482 98.9297 84.9291 99.9488 84.9291 101.206Z" fill="#116ABB"/>
<path d="M87.9648 94.6816H86.4474V100.144H87.9648V94.6816Z" fill="#031C34"/>
<path d="M69.7546 101.208C69.7546 103.303 71.4531 105.001 73.5482 105.001C75.6433 105.001 77.3418 103.303 77.3418 101.208C77.3418 99.1125 75.6433 97.4141 73.5482 97.4141C71.4531 97.4141 69.7546 99.1125 69.7546 101.208Z" fill="#031C34"/>
<path d="M71.2719 101.206C71.2719 102.463 72.291 103.482 73.5481 103.482C74.8051 103.482 75.8242 102.463 75.8242 101.206C75.8242 99.9488 74.8051 98.9297 73.5481 98.9297C72.291 98.9297 71.2719 99.9488 71.2719 101.206Z" fill="#116ABB"/>
<path d="M74.3076 94.6816H72.7902V100.144H74.3076V94.6816Z" fill="#031C34"/>
<path d="M35.7653 101.208C35.7653 103.303 37.4638 105.001 39.5589 105.001C41.6541 105.001 43.3525 103.303 43.3525 101.208C43.3525 99.1125 41.6541 97.4141 39.5589 97.4141C37.4638 97.4141 35.7653 99.1125 35.7653 101.208Z" fill="#031C34"/>
<path d="M37.2826 101.206C37.2826 102.463 38.3017 103.482 39.5588 103.482C40.8159 103.482 41.835 102.463 41.835 101.206C41.835 99.9488 40.8159 98.9297 39.5588 98.9297C38.3017 98.9297 37.2826 99.9488 37.2826 101.206Z" fill="#116ABB"/>
<path d="M40.3184 94.6816H38.8009V100.144H40.3184V94.6816Z" fill="#031C34"/>
<path d="M22.1081 101.208C22.1081 103.303 23.8066 105.001 25.9017 105.001C27.9969 105.001 29.6953 103.303 29.6953 101.208C29.6953 99.1125 27.9969 97.4141 25.9017 97.4141C23.8066 97.4141 22.1081 99.1125 22.1081 101.208Z" fill="#031C34"/>
<path d="M23.6254 101.206C23.6254 102.463 24.6445 103.482 25.9016 103.482C27.1587 103.482 28.1777 102.463 28.1777 101.206C28.1777 99.9488 27.1587 98.9297 25.9016 98.9297C24.6445 98.9297 23.6254 99.9488 23.6254 101.206Z" fill="#116ABB"/>
<path d="M26.6611 94.6816H25.1437V100.144H26.6611V94.6816Z" fill="#031C34"/>
</svg>
