<svg width="30" height="30" viewBox="0 0 30 30" fill="none" xmlns="http://www.w3.org/2000/svg">
<path fill-rule="evenodd" clip-rule="evenodd" d="M4.34144 4.65856C4.65016 4.34984 5.1507 4.34984 5.45943 4.65856L14.6829 13.882L23.9063 4.65856C24.215 4.34983 24.7156 4.34984 25.0243 4.65856C25.333 4.96729 25.333 5.46783 25.0243 5.77655L15.8009 15L25.0243 24.2234C25.333 24.5322 25.333 25.0327 25.0243 25.3414C24.7156 25.6502 24.215 25.6502 23.9063 25.3414L14.6829 16.118L5.45943 25.3414C5.1507 25.6502 4.65016 25.6502 4.34144 25.3414C4.03271 25.0327 4.03271 24.5322 4.34144 24.2234L13.5649 15L4.34144 5.77656C4.03271 5.46783 4.03271 4.96729 4.34144 4.65856Z" fill="#931E3F"/>
</svg>
