<svg width="13" height="17" viewBox="0 0 13 17" fill="none" xmlns="http://www.w3.org/2000/svg">
<path d="M9.3697 1.59187C9.51634 1.35788 9.83048 1.27766 10.0714 1.4127L11.2316 2.06319C11.4725 2.19824 11.5489 2.49739 11.4022 2.73139L4.62024 13.5533L2.66123 14.8177L2.60497 12.3862L9.3697 1.59187Z" stroke="#BF5C7A"/>
<path d="M3.56904 14.036C3.95336 14.2536 4.1471 14.36 4.1471 14.36L2.76504 15.3189L2.79688 13.6062C2.79688 13.6062 3.18471 13.8184 3.56904 14.036Z" fill="#BF5C7A"/>
<path d="M9.21655 0.991699L12.0983 2.60729L5.11576 13.7491C5.36514 13.3512 5.12169 12.4081 4.29835 11.9465C3.475 11.4849 2.60812 11.5366 2.23406 12.1335L9.21655 0.991699Z" fill="#BF5C7A"/>
</svg>
