<svg width="20" height="29" viewBox="0 0 20 29" fill="none" xmlns="http://www.w3.org/2000/svg">
<path d="M14.9632 1.11518C15.104 0.877637 15.4107 0.799212 15.6483 0.940017L18.8083 2.81315C19.0459 2.95396 19.1243 3.26067 18.9835 3.49822L7.16143 23.4428L3.26829 26.0994L3.1574 21.0323L14.9632 1.11518Z" stroke="#1D76C9"/>
<path d="M5.13727 24.0455C5.783 24.4321 6.10851 24.6212 6.10851 24.6212L3.78642 26.3246L3.83991 23.2822C3.83991 23.2822 4.49153 23.659 5.13727 24.0455Z" fill="#1D76C9"/>
<path d="M14.626 0.873047L19.4677 3.74297L7.73595 23.5352C8.15494 22.8283 7.74591 21.1531 6.36256 20.3331C4.9792 19.5131 3.52269 19.605 2.89421 20.6653L14.626 0.873047Z" fill="#1D76C9"/>
</svg>
