<svg width="19" height="28" viewBox="0 0 19 28" fill="none" xmlns="http://www.w3.org/2000/svg">
<path fill-rule="evenodd" clip-rule="evenodd" d="M17.1791 3.09252L13.8502 1.1193L12.7351 3.0005L16.064 4.97372L17.1791 3.09252ZM16.9243 5.48362L18.0393 3.60242C18.3209 3.12733 18.1641 2.5139 17.689 2.23229L14.3601 0.259063C13.885 -0.022547 13.2715 0.134303 12.9899 0.609397L0.682617 21.3726L0.79535 26.5236L0.821455 27.7165L1.80698 27.044L5.73203 24.3656L6.0371 23.8509C6.01512 23.9436 5.98273 24.027 5.94001 24.0991L16.9613 5.50556L16.9243 5.48362ZM5.75582 22.3643C5.48631 21.8421 5.04281 21.3239 4.41943 20.9543C3.7391 20.5511 3.05069 20.3458 2.45219 20.3484L1.68863 21.6365L1.72932 23.4958C2.21002 23.8835 2.86399 24.394 3.25166 24.6261L3.42464 24.7295L4.985 23.6647L5.75582 22.3643Z" fill="#23A104"/>
</svg>
