<svg width="23" height="22" viewBox="0 0 23 22" fill="none" xmlns="http://www.w3.org/2000/svg">
<path d="M13.3401 9.95534V18.8883M13.3401 9.95534H18.9929M13.3401 9.95534V6.60547M13.3401 18.8883H18.9929V9.95534M13.3401 18.8883H9.38307M18.9929 9.95534H20.3119V6.60547H13.3401M13.3401 6.60547H11.3616H9.38307M9.38307 6.60547H2.78809V9.95534H3.73023M9.38307 6.60547V9.95534M9.38307 18.8883H3.73023V9.95534M9.38307 18.8883V9.95534M3.73023 9.95534H9.38307" stroke="#BF5C7A"/>
<path d="M7.57432 6.60651C6.16236 5.41643 3.89095 2.79824 6.10097 1.84617C8.311 0.894108 10.2731 4.62304 10.887 6.60651H11.8078C12.4831 4.68915 14.8674 1.05279 16.7828 1.84617C19.177 2.83791 17.3353 5.41643 15.4936 6.60651" stroke="#BF5C7A"/>
</svg>
