<svg width="77" height="77" viewBox="0 0 77 77" fill="none" xmlns="http://www.w3.org/2000/svg">
<g clip-path="url(#clip0_1419_89467)">
<path d="M2.40625 20.4531L38.5 38.5L74.5937 20.4531V58.9531L38.5 76.9997L2.40625 58.9528V20.4531Z" fill="#DB496C"/>
<path d="M2.40625 24.0625V35.3117L38.3796 52.9374L74.5936 35.2515V24.0625L38.5 41.7486L2.40625 24.0625Z" fill="#D3365C"/>
<path d="M38.5 76.9997V38.5L4.81252 21.6562H2.40625V58.9531L38.5 76.9997Z" fill="#D24063"/>
<path d="M2.40625 24.0625V35.3117L38.3796 52.9374L38.5 52.8772V41.6883V41.7484L2.40625 24.0625Z" fill="#D3365C"/>
<path d="M0 19.1918L38.5 0.00195312L77 19.1918V21.7184L38.5 40.9079L0 21.7784V19.1918Z" fill="#DB496C"/>
<path d="M60.5774 6.07583C59.3141 3.78992 56.6071 2.40625 53.4188 2.40625C46.1399 2.40625 41.0267 9.20395 38.5 13.5352C35.9734 9.20395 30.8001 2.46643 23.5813 2.46643C18.9493 2.46643 15.6406 5.2938 15.6406 9.14377C15.6406 16.0015 23.1602 20.4531 38.2593 20.4531C53.3584 20.4531 61.3593 14.7383 61.3593 9.20395C61.3594 8.12118 61.1189 7.0384 60.5774 6.07583ZM25.1455 13.4752C23.4611 12.3322 22.8596 11.0689 22.8596 10.2267C22.8596 9.20411 23.8222 8.42208 25.2057 8.42208C28.4542 8.42208 31.0408 12.6932 32.4845 15.6409C28.6947 15.34 26.4688 14.3172 25.1455 13.4752ZM51.8547 13.4752C50.5312 14.3174 48.3055 15.34 44.5157 15.6407C45.8992 12.6932 48.486 8.42192 51.7945 8.42192C53.1781 8.42192 54.1406 9.20395 54.1406 10.2265C54.1408 11.0689 53.5391 12.3321 51.8547 13.4752Z" fill="#EFEFEF"/>
<path d="M0 19.25L38.5 38.0789L77 19.25V31.7023L38.3796 50.5312L0 31.7023V19.25Z" fill="#CD2F55"/>
<path d="M52.9373 32.6644V31.2808L38.4999 23.4605L24.0624 31.2808V32.6644L14.4375 28.4535V26.5285L38.0186 14.0762L38.4999 14.3167L38.9812 14.0762L62.5623 26.4683V28.3933L52.9373 32.6644Z" fill="#EFEFEF"/>
<path d="M52.9375 31.2813V69.7211L62.5624 64.9086V26.4688L52.9375 31.2813Z" fill="#DCDCDC"/>
<path d="M14.4375 64.9686L24.0624 69.7811V31.3415L14.4375 26.4688C14.4375 26.4686 14.4375 64.9686 14.4375 64.9686Z" fill="#D1D1D1"/>
</g>
<defs>
<clipPath id="clip0_1419_89467">
<rect width="77" height="77" fill="white"/>
</clipPath>
</defs>
</svg>
